<svg width="1157" height="98" viewBox="0 0 1157 98" fill="none" xmlns="http://www.w3.org/2000/svg">
<g clip-path="url(#clip0_10_944)">
<path fill-rule="evenodd" clip-rule="evenodd" d="M14.5001 29C20.0229 29 24.5001 33.4771 24.5001 39V29H34.5001C40.0229 29 44.5001 33.4771 44.5001 39C44.5001 44.5228 40.0229 49 34.5001 49C40.0229 49 44.5001 53.4772 44.5001 59C44.5001 61.7423 43.3962 64.2268 41.6086 66.0334L41.5712 66.0711L41.538 66.1041C39.731 67.8943 37.2447 69 34.5001 69C31.7742 69 29.303 67.9093 27.4991 66.1405C27.4757 66.1175 27.4523 66.0943 27.429 66.0711C27.4071 66.0492 27.3853 66.0272 27.3636 66.0051C25.5925 64.2009 24.5001 61.728 24.5001 59C24.5001 64.5228 20.0229 69 14.5001 69C8.97721 69 4.50006 64.5228 4.50006 59V49H14.5001C8.97721 49 4.50006 44.5228 4.50006 39C4.50006 33.4771 8.97721 29 14.5001 29ZM22.5001 39C22.5001 43.4183 18.9184 47 14.5001 47V31C18.9184 31 22.5001 34.5817 22.5001 39ZM42.5001 59C42.5001 54.5817 38.9184 51 34.5001 51C30.0818 51 26.5001 54.5817 26.5001 59H42.5001ZM6.50006 51V59C6.50006 63.4183 10.0818 67 14.5001 67C18.9184 67 22.5001 63.4183 22.5001 59V51H6.50006ZM26.5001 47V31H34.5001C38.9184 31 42.5001 34.5817 42.5001 39C42.5001 43.4183 38.9184 47 34.5001 47H26.5001Z" fill="#263238"/>
</g>
<g clip-path="url(#clip1_10_944)">
<path fill-rule="evenodd" clip-rule="evenodd" d="M198.486 38.9614L188.5 48.8468C190.497 50.8241 192.779 52.4905 195.267 53.7942C195.954 55.5998 197.032 57.2931 198.5 58.7463C204.023 64.2136 212.977 64.2136 218.5 58.7463C219.968 57.2931 221.046 55.5998 221.733 53.7941C224.221 52.4905 226.503 50.8241 228.5 48.8468L218.522 38.9695C218.515 38.9621 218.507 38.9547 218.5 38.9473C212.977 33.48 204.023 33.48 198.5 38.9473C198.495 38.952 198.491 38.9567 198.486 38.9614ZM217.545 55.5777C214.635 56.5499 211.58 57.0478 208.5 57.0478C205.42 57.0478 202.366 56.5499 199.456 55.5777C199.771 55.9918 200.119 56.3892 200.5 56.7664C204.918 61.1403 212.082 61.1403 216.5 56.7664C216.881 56.3892 217.229 55.9918 217.545 55.5777ZM200.705 40.7292C201.455 41.2199 202.253 41.6398 203.088 41.9822C204.804 42.6857 206.643 43.0478 208.5 43.0478C210.357 43.0478 212.196 42.6857 213.912 41.9822C214.747 41.6398 215.545 41.2199 216.295 40.7292C211.932 36.6193 205.068 36.6193 200.705 40.7292Z" fill="#3B4158"/>
</g>
<g clip-path="url(#clip2_10_944)">
<path d="M420.496 44.5165C420.501 44.4748 420.501 44.4326 420.496 44.3909C420.501 44.3569 420.501 44.3223 420.496 44.2882L420.088 41.3556C420.03 41.0047 419.872 40.6768 419.634 40.4085L419.564 40.3286L419.437 40.2031L412.383 34.2465L412.581 34.4405C412.419 34.2506 412.216 34.0987 411.986 33.996C411.756 33.8933 411.506 33.8424 411.254 33.8471H409.112C408.764 33.8403 408.424 33.9489 408.146 34.1552C407.855 33.9501 407.504 33.8421 407.145 33.8471H405.003C404.722 33.8426 404.445 33.911 404.2 34.0452C403.955 34.1795 403.75 34.3749 403.607 34.6116C403.385 34.9498 403.302 35.3572 403.374 35.7527L403.642 37.6013C403.464 37.5028 403.263 37.4516 403.06 37.453H392.689C392.317 37.4553 391.953 37.5622 391.641 37.7611C391.339 37.9462 391.097 38.2113 390.943 38.5256L390.14 37.8524C389.824 37.5656 389.406 37.4102 388.976 37.4188H372.704C372.33 37.4254 371.965 37.5277 371.644 37.7155C371.206 37.9672 370.884 38.3764 370.748 38.8566L365.58 55.802C365.484 56.0812 365.474 56.3824 365.553 56.6669C365.632 56.9514 365.795 57.2065 366.022 57.3996C366.082 57.4488 366.144 57.4945 366.209 57.5365C366.209 57.5365 366.104 57.468 366.046 57.411L373.099 63.379C373.398 63.6483 373.788 63.7988 374.193 63.8011H390.594C390.968 63.7916 391.333 63.6853 391.653 63.493C391.833 63.3963 391.995 63.2688 392.13 63.1165L392.188 63.0366L392.281 62.9225L392.351 62.797L393.119 63.4474C393.413 63.706 393.795 63.8483 394.19 63.8468H410.625C410.999 63.8346 411.364 63.7285 411.684 63.5387C411.861 63.436 412.022 63.3092 412.162 63.1621L412.22 63.0823L412.313 62.9682C412.363 62.896 412.405 62.8196 412.441 62.7399C412.479 62.6707 412.51 62.5981 412.534 62.5231L417.248 47.0497V46.9128C417.254 46.8597 417.254 46.8061 417.248 46.753V46.6504C417.254 46.6163 417.254 46.5817 417.248 46.5476C417.253 46.4755 417.253 46.403 417.248 46.3308H418.761C418.893 46.3426 419.025 46.3426 419.157 46.3308H419.262C419.347 46.3059 419.429 46.2714 419.506 46.2281H419.623L419.832 46.0684L419.925 45.9999L420.088 45.7945V45.7261L420.205 45.532C420.198 45.4943 420.198 45.4557 420.205 45.418C420.198 45.3994 420.198 45.3794 420.205 45.3609C420.229 45.294 420.249 45.2253 420.263 45.1555C420.257 45.133 420.257 45.1095 420.263 45.087C420.257 45.053 420.257 45.0183 420.263 44.9843C420.263 44.9843 420.496 44.5393 420.496 44.5165Z" fill="black"/>
<path d="M389.453 38.7197C389.515 38.7745 389.558 38.8465 389.577 38.9261C389.595 39.0057 389.589 39.089 389.558 39.1647L384.401 56.0988C384.336 56.2836 384.204 56.4382 384.029 56.5324C383.887 56.6256 383.722 56.6807 383.552 56.6922H367.163C367.023 56.6856 366.891 56.6287 366.791 56.5324C366.731 56.4785 366.69 56.4084 366.671 56.3313C366.652 56.254 366.657 56.1731 366.686 56.0988L371.854 39.1647C371.913 38.9775 372.042 38.8188 372.215 38.7197C372.359 38.6332 372.523 38.5823 372.692 38.5714H389.08C389.219 38.5727 389.352 38.6257 389.453 38.7197ZM380.898 52.6869L383.982 42.5766H375.346L372.273 52.6869H380.898ZM405.097 38.8909C405.152 38.9546 405.222 39.0051 405.301 39.0387C405.38 39.0723 405.465 39.088 405.551 39.0849H407.681C407.762 39.0856 407.842 39.0661 407.913 39.0282C407.984 38.9903 408.044 38.9351 408.088 38.868C408.126 38.8156 408.152 38.7563 408.166 38.6936C408.18 38.6308 408.181 38.566 408.169 38.5029L407.75 35.4904C407.71 35.3509 407.639 35.2222 407.541 35.1138C407.485 35.0501 407.415 34.9996 407.336 34.966C407.258 34.9324 407.173 34.9166 407.087 34.9198H404.957C404.876 34.919 404.796 34.9385 404.725 34.9765C404.653 35.0144 404.593 35.0695 404.55 35.1366C404.468 35.2964 404.433 35.3991 404.468 35.4904L404.899 38.5029C404.921 38.6496 404.99 38.7855 405.097 38.8909ZM411.859 35.4676C411.819 35.3281 411.748 35.1994 411.65 35.091C411.596 35.0275 411.528 34.977 411.452 34.9434C411.375 34.9097 411.291 34.8939 411.207 34.897H409.066C408.986 34.8948 408.907 34.9137 408.837 34.9519C408.768 34.9901 408.71 35.046 408.67 35.1138C408.592 35.215 408.559 35.3422 408.577 35.4676L409.007 38.4801C409.034 38.6252 409.103 38.7598 409.205 38.868C409.262 38.9305 409.332 38.9802 409.411 39.0137C409.489 39.0471 409.574 39.0636 409.659 39.062H411.801C411.881 39.0631 411.959 39.0436 412.028 39.0055C412.098 38.9675 412.156 38.9122 412.197 38.8452C412.237 38.7942 412.265 38.7349 412.28 38.6717C412.294 38.6085 412.293 38.543 412.278 38.4801L411.859 35.4676ZM403.223 40.032L403.013 38.5485H392.689C392.527 38.5573 392.37 38.6085 392.235 38.6969C392.149 38.7427 392.074 38.8062 392.016 38.8831C391.958 38.9599 391.917 39.0482 391.897 39.1419L391.036 41.9718C391.002 42.0426 390.99 42.1219 391.002 42.1993C391.015 42.2767 391.051 42.3486 391.106 42.4055C391.204 42.4959 391.332 42.5487 391.467 42.5538H404.014L400.93 52.6641H388.417C388.256 52.6677 388.099 52.7151 387.963 52.8009C387.799 52.9035 387.678 53.0619 387.626 53.246L386.753 56.076C386.724 56.1486 386.717 56.2275 386.731 56.304C386.745 56.3805 386.781 56.4516 386.834 56.5095C386.929 56.6061 387.058 56.6632 387.195 56.6693H403.63C403.8 56.655 403.964 56.6001 404.107 56.5095C404.279 56.4149 404.408 56.26 404.468 56.076L409.194 40.6025H403.874C403.79 40.6042 403.706 40.5888 403.628 40.5574C403.55 40.526 403.479 40.4792 403.42 40.4199C403.324 40.3165 403.256 40.1909 403.223 40.0548V40.032Z" fill="white"/>
</g>
<g clip-path="url(#clip3_10_944)">
<path d="M597.497 38.4115C597.497 38.4453 597.497 38.4876 597.488 38.5129C597.444 38.8426 597.444 39.1723 597.47 39.5105C597.488 39.595 597.505 39.6795 597.576 39.7472C597.69 39.874 597.866 39.8486 597.937 39.6964C597.972 39.6204 597.972 39.5443 597.954 39.4682C597.866 39.147 597.849 38.8088 597.84 38.4791C597.84 38.4622 597.84 38.4369 597.84 38.4115C597.937 38.4031 598.025 38.3946 598.104 38.3946C598.166 38.3861 598.219 38.3777 598.263 38.3523C598.395 38.2847 598.395 38.141 598.254 38.0734C598.201 38.048 598.131 38.0396 598.069 38.0396C597.849 38.048 597.629 38.048 597.408 38.048C597.329 38.048 597.25 38.0565 597.171 38.0649C597.127 38.0734 597.074 38.0734 597.039 38.0987C596.977 38.1241 596.942 38.1664 596.942 38.2255C596.95 38.2847 596.977 38.3185 597.039 38.3439C597.074 38.3692 597.118 38.3777 597.162 38.3777C597.267 38.3861 597.382 38.4031 597.497 38.4115ZM599.919 38.8004C599.919 38.8088 599.927 38.8173 599.927 38.8173C599.963 39.0455 599.998 39.2653 600.024 39.4851C600.033 39.5612 600.042 39.6288 600.095 39.688C600.209 39.8317 600.385 39.8148 600.465 39.6626C600.5 39.5865 600.509 39.5105 600.491 39.4259C600.438 39.1723 600.412 38.9187 600.359 38.6736C600.324 38.5214 600.28 38.3777 600.236 38.2424C600.209 38.1579 600.148 38.0987 600.042 38.0903C599.936 38.0734 599.857 38.1241 599.813 38.2002C599.76 38.2678 599.716 38.3354 599.681 38.4115C599.619 38.5468 599.566 38.682 599.496 38.8088C599.487 38.8426 599.478 38.868 599.461 38.8934C599.452 38.8764 599.443 38.868 599.443 38.868C599.329 38.6567 599.223 38.4453 599.108 38.2424C599.091 38.2255 599.082 38.2086 599.073 38.1917C599.02 38.1156 598.959 38.0734 598.862 38.0734C598.774 38.0818 598.703 38.1325 598.659 38.2086C598.642 38.2424 598.642 38.2678 598.633 38.3016C598.597 38.5721 598.553 38.8426 598.518 39.1131C598.501 39.2653 598.492 39.4175 598.492 39.5696C598.483 39.6034 598.492 39.6457 598.509 39.6795C598.527 39.7471 598.58 39.7894 598.65 39.7979C598.738 39.8063 598.8 39.781 598.826 39.7133C598.853 39.6626 598.862 39.6204 598.871 39.5781C598.906 39.4259 598.932 39.2822 598.959 39.1385C598.976 39.054 598.985 38.9863 599.011 38.8934C599.029 38.9272 599.047 38.9525 599.064 38.9779C599.144 39.0793 599.223 39.1808 599.32 39.2653C599.417 39.3329 599.496 39.3245 599.575 39.2484C599.593 39.2315 599.602 39.223 599.619 39.2061C599.698 39.0878 599.795 38.9694 599.875 38.8511C599.892 38.8342 599.901 38.8173 599.919 38.8004Z" fill="#3A3B7B"/>
<path d="M579.624 38.5776C579.563 38.7383 579.552 38.854 579.58 38.9502C579.611 39.081 579.692 39.1238 579.802 39.0906C580.837 38.845 583.105 39.542 583.945 39.7362C584.143 39.777 584.304 39.5316 584.169 39.3115C583.972 39.0985 581.704 38.1862 580.839 38.1364C580.5 38.118 579.894 38.0346 579.624 38.5776Z" fill="#3A3B7B"/>
<path d="M588.49 35.6244C588.601 35.6854 588.662 35.7437 588.693 35.8088C588.738 35.8942 588.714 35.9533 588.638 35.9834C587.954 36.3037 587.044 37.6828 586.677 38.1585C586.588 38.2679 586.382 38.2043 586.351 38.0244C586.358 37.8209 587.164 36.3243 587.615 35.9167C587.791 35.7575 588.084 35.4453 588.49 35.6244Z" fill="#3A3B7B"/>
<path d="M583.044 34.9455C583.177 34.8497 583.315 34.8161 583.385 34.8784C584.417 35.7253 584.964 37.0664 585.303 38.2942C585.315 38.3228 585.316 38.3639 585.306 38.4067C585.302 38.4433 585.274 38.482 585.23 38.5119C585.182 38.5449 585.142 38.555 585.123 38.5265C584.67 37.9362 582.088 35.6393 583.044 34.9455Z" fill="#3A3B7B"/>
<path d="M561.195 49.6286C561.443 49.4519 561.711 49.3048 561.996 49.1906C562.293 49.109 562.611 49.1225 562.9 49.2293C563.189 49.336 563.433 49.5301 563.597 49.7823C563.744 50.0338 563.801 50.3242 563.76 50.6097C563.72 50.8952 563.584 51.1603 563.373 51.3652C563.209 51.5313 563.023 51.676 562.821 51.7956C561.916 52.3565 561.003 52.8867 560.09 53.4476C559.904 53.588 559.706 53.714 559.498 53.8242C559.182 53.9753 558.821 54.0158 558.478 53.9386C558.134 53.8615 557.83 53.6715 557.616 53.4016C557.457 53.2104 557.323 53.0014 557.216 52.7791C556.351 51.0348 555.455 49.2982 554.622 47.5231C554.238 46.7548 553.926 45.8711 553.621 45.0181C553.49 44.7703 553.464 44.483 553.55 44.2173C553.635 43.9515 553.826 43.7284 554.08 43.5952C554.335 43.4621 554.633 43.4295 554.912 43.5044C555.192 43.5793 555.429 43.7557 555.575 43.9961C556.023 44.5673 556.419 45.174 556.76 45.8096C557.624 47.3464 558.449 48.8832 559.282 50.374C559.33 50.4564 559.384 50.5358 559.442 50.6122C560.069 50.3593 560.658 50.0286 561.195 49.6286Z" fill="#3A3B7B"/>
<path d="M570.135 49.0925C568.158 51.3132 564.843 50.7522 563.178 47.8937C561.993 45.8651 561.785 42.5148 564.363 40.4017C564.913 39.9593 565.572 39.6579 566.276 39.5257C567.14 39.4068 568.021 39.5531 568.794 39.9437C569.566 40.3342 570.189 40.9491 570.576 41.7003C571.985 44.1592 571.785 47.2943 570.135 49.0925ZM569.335 43.9133C569.125 43.3091 568.703 42.7932 568.142 42.4533C567.824 42.236 567.438 42.1304 567.049 42.1542C566.66 42.178 566.291 42.3297 566.004 42.584C564.859 43.5599 564.619 45.8728 565.452 47.2483C565.558 47.4726 565.714 47.6719 565.909 47.8323C566.103 47.9927 566.332 48.1104 566.579 48.1769C566.826 48.2436 567.086 48.2575 567.339 48.2179C567.592 48.1782 567.833 48.086 568.046 47.9475C568.666 47.4857 569.122 46.8498 569.348 46.1282C569.575 45.4066 569.562 44.6351 569.311 43.921L569.335 43.9133Z" fill="#3A3B7B"/>
<path d="M578.206 44.8816C578.003 44.9234 577.794 44.9259 577.59 44.8889C577.387 44.8519 577.193 44.7763 577.021 44.6665C576.87 44.5836 576.74 44.4696 576.64 44.3327C576.54 44.1958 576.474 44.0395 576.445 43.8748C576.416 43.7103 576.425 43.5415 576.472 43.3808C576.519 43.22 576.602 43.0713 576.716 42.9452C576.915 42.6918 577.197 42.5105 577.517 42.4304C578.352 42.1978 579.211 42.0561 580.079 42.0078C580.27 41.9865 580.463 42.002 580.647 42.0533C580.832 42.1047 581.003 42.1909 581.153 42.3069C581.302 42.4228 581.425 42.5662 581.516 42.7286C581.606 42.891 581.662 43.0692 581.68 43.2526C581.93 44.1536 581.958 45.0982 581.76 46.0112C581.04 48.9619 578.558 49.9762 575.772 49.031C574.99 48.7783 574.304 48.3075 573.802 47.6786C573.133 46.9214 572.659 46.0239 572.417 45.0584C572.221 44.1986 572.243 43.3064 572.48 42.4563C572.716 41.6061 573.162 40.8226 573.778 40.1712C574.363 39.4633 575.123 38.9061 575.988 38.5499C576.535 38.2606 577.174 38.1784 577.781 38.3194C577.919 38.3559 578.044 38.4272 578.143 38.5257C578.242 38.6243 578.312 38.7465 578.346 38.8798C578.38 39.013 578.375 39.1525 578.334 39.2836C578.292 39.4148 578.215 39.5329 578.11 39.6257C577.91 39.7994 577.692 39.9538 577.461 40.0867C576.749 40.5218 576.13 41.0823 575.636 41.7388C575.312 42.1636 575.088 42.6514 574.982 43.1678C574.875 43.6842 574.888 44.2167 575.019 44.728C575.201 45.425 575.604 46.0507 576.172 46.5183C577.933 48.0552 580.223 46.5721 579.823 44.4743C579.238 44.6127 578.726 44.7587 578.206 44.8816Z" fill="#3A3B7B"/>
<path d="M588.966 49.2154C586.364 50.7523 583.402 49.2154 582.753 45.9881C582.281 43.6829 583.178 40.4556 586.316 39.2261C586.984 38.9701 587.708 38.8803 588.422 38.9648C589.279 39.1155 590.065 39.5206 590.67 40.123C591.275 40.7255 591.667 41.4949 591.792 42.3228C592.321 45.066 591.12 47.9937 588.966 49.2154ZM589.871 44.044C589.87 43.4057 589.635 42.788 589.206 42.2997C588.977 41.9977 588.646 41.7814 588.269 41.6874C587.893 41.5936 587.494 41.628 587.141 41.7849C585.732 42.3689 584.739 44.4897 585.099 46.0496C585.127 46.2944 585.209 46.5305 585.342 46.7414C585.474 46.9522 585.653 47.1327 585.866 47.2703C586.079 47.4079 586.32 47.4992 586.574 47.5379C586.827 47.5766 587.086 47.5617 587.333 47.4942C588.078 47.2445 588.722 46.7778 589.177 46.1592C589.632 45.5407 589.875 44.8012 589.871 44.044Z" fill="#3A3B7B"/>
<path d="M594.424 49.8609C594.384 50.1421 594.23 50.3969 593.995 50.5691C593.76 50.7413 593.464 50.8169 593.171 50.7792C592.878 50.7415 592.612 50.5936 592.433 50.368C592.253 50.1425 592.175 49.8578 592.214 49.5766C592.253 49.2953 592.407 49.0406 592.642 48.8684C592.877 48.6962 593.174 48.6206 593.467 48.6583C593.76 48.696 594.025 48.8439 594.205 49.0694C594.384 49.295 594.463 49.5797 594.424 49.8609ZM593.727 39.495C593.879 39.2718 594.103 39.1018 594.364 39.0104C594.625 38.919 594.91 38.9111 595.176 38.9878C595.447 39.0528 595.686 39.2051 595.854 39.4191C596.021 39.6331 596.107 39.8959 596.097 40.1635C596.062 40.5927 595.995 41.0189 595.897 41.4391C595.633 42.8606 595.376 44.2822 595.096 45.6884C594.968 46.2494 594.8 46.7872 594.616 47.3558C594.552 47.5336 594.445 47.6942 594.303 47.8246C594.216 47.9227 594.104 47.9979 593.978 48.0433C593.851 48.0888 593.716 48.1029 593.582 48.0845C593.449 48.0661 593.323 48.0158 593.215 47.9381C593.107 47.8604 593.022 47.758 592.966 47.6402C592.871 47.4289 592.82 47.2018 592.814 46.9717C592.814 46.0188 592.814 45.0583 592.878 44.0978C592.987 42.727 593.201 41.3657 593.519 40.0252C593.556 39.8456 593.627 39.6738 593.727 39.518V39.495Z" fill="#3A3B7B"/>
<path fill-rule="evenodd" clip-rule="evenodd" d="M557.813 56.0357C557.718 56.2383 557.692 56.4641 557.738 56.6814C557.769 56.9678 557.837 57.2496 557.939 57.5202C558.068 57.8516 558.211 58.1793 558.388 58.5832C558.429 58.6761 558.471 58.7731 558.516 58.8752C558.754 59.4224 559.054 60.1217 559.453 61.1337C559.566 61.4212 559.667 61.7111 559.768 62.003C559.809 62.1209 559.85 62.2392 559.892 62.3577C560.042 62.7793 560.301 63.158 560.644 63.4582C560.789 63.6231 560.982 63.7434 561.199 63.8035C561.42 63.8648 561.655 63.8609 561.873 63.7923C562.092 63.7237 562.284 63.5936 562.424 63.4189C562.562 63.2476 562.643 63.0412 562.659 62.8255C562.749 62.4054 562.718 61.9698 562.571 61.5648C562.337 60.8923 562.071 60.2189 561.765 59.5602L561.763 59.5573C561.258 58.5267 560.745 57.5033 560.208 56.4794L560.204 56.4723C560.047 56.2055 559.842 55.9671 559.6 55.7676C559.442 55.5896 559.225 55.4695 558.986 55.4281C558.741 55.3859 558.488 55.4285 558.273 55.5483C558.07 55.6599 557.908 55.8305 557.813 56.0357Z" fill="#3A3B7B"/>
<path fill-rule="evenodd" clip-rule="evenodd" d="M565.522 53.4981C564.731 53.3014 563.904 53.2727 563.1 53.4142C562.477 53.473 561.865 53.6109 561.439 53.884C561.223 54.023 561.048 54.2015 560.951 54.4284C560.853 54.6565 560.841 54.9173 560.921 55.208C561.067 55.7404 561.257 56.2581 561.447 56.7741L561.477 56.8576L561.478 56.8595C562.048 58.3585 562.624 59.8525 563.205 61.3413C563.273 61.5759 563.369 61.8023 563.491 62.0158L563.493 62.0197C563.654 62.2849 563.861 62.5221 564.104 62.7214C564.226 62.8309 564.376 62.9067 564.539 62.9406C564.704 62.9747 564.876 62.9648 565.035 62.9119C565.194 62.8589 565.336 62.765 565.443 62.6403C565.549 62.5176 565.618 62.3699 565.644 62.2126C565.749 61.7854 565.715 61.3375 565.547 60.9292C565.495 60.7918 565.454 60.6513 565.41 60.5035C565.396 60.4542 565.381 60.404 565.366 60.3529C566.696 59.854 568.111 59.1831 568.608 57.6224C568.803 57.083 568.82 56.499 568.655 55.9504C568.49 55.4012 568.152 54.9144 567.687 54.557C567.055 54.0568 566.316 53.6953 565.522 53.4981ZM563.328 55.4125C563.355 55.4052 563.381 55.3985 563.407 55.3922C564.273 55.2616 565.159 55.4357 565.902 55.8823C566.229 56.1007 566.363 56.3435 566.386 56.5771C566.41 56.8176 566.319 57.0782 566.136 57.3287C565.79 57.8019 565.159 58.1807 564.589 58.2513C564.173 57.3326 563.751 56.3768 563.328 55.4125Z" fill="#3A3B7B"/>
<path d="M570.799 51.8165C571.742 51.3988 572.909 51.3266 573.823 51.6203C574.053 51.6847 574.253 51.8238 574.388 52.0139C574.522 52.2029 574.584 52.4306 574.563 52.6583C574.562 52.806 574.524 52.9514 574.453 53.0826C574.38 53.2161 574.275 53.3309 574.147 53.4174C574.019 53.5038 573.871 53.5594 573.715 53.5792C573.56 53.5991 573.401 53.5828 573.254 53.5316L573.243 53.5277L573.232 53.5223C573.157 53.4844 573.077 53.4559 572.994 53.4373L572.988 53.4362C572.346 53.2724 571.74 53.5438 571.518 53.8774C571.412 54.0364 571.399 54.197 571.487 54.343C571.582 54.4994 571.813 54.675 572.28 54.8001C572.409 54.8339 572.54 54.8666 572.674 54.8998C573.044 54.9917 573.428 55.0872 573.8 55.2194L573.801 55.22C575.515 55.8458 576.153 57.1421 575.935 58.3613C575.718 59.5669 574.669 60.6642 573.092 60.923C572.518 61.0451 571.92 61.0213 571.358 60.854C570.795 60.6861 570.288 60.3799 569.886 59.9654L569.876 59.9546C569.749 59.7985 569.664 59.615 569.626 59.4204C569.591 59.2448 569.61 59.0633 569.679 58.8972C569.747 58.7322 569.864 58.5894 570.014 58.4853C570.172 58.3673 570.363 58.2965 570.563 58.2818C570.763 58.2671 570.962 58.3087 571.137 58.4013C571.312 58.4824 571.475 58.5858 571.621 58.7088L571.623 58.711C571.882 58.9377 572.194 58.9968 572.494 58.942C572.798 58.8866 573.084 58.7139 573.267 58.4849C573.45 58.2573 573.523 57.987 573.436 57.7245C573.349 57.4601 573.085 57.164 572.507 56.9163C572.356 56.8547 572.199 56.805 572.036 56.7566C571.992 56.7436 571.947 56.7306 571.902 56.7174C571.781 56.6823 571.657 56.6461 571.536 56.6062C571.452 56.5788 571.369 56.5528 571.286 56.5271C571.061 56.4567 570.842 56.3882 570.631 56.2963C570.172 56.1461 569.775 55.8578 569.499 55.474C569.223 55.0887 569.084 54.628 569.103 54.1605C569.104 53.0214 569.852 52.2367 570.799 51.8165Z" fill="#3A3B7B"/>
<path d="M582.749 51.6953C582.566 51.6096 582.364 51.5689 582.161 51.5769C581.957 51.585 581.76 51.6414 581.585 51.7412C581.411 51.8403 581.266 51.9792 581.161 52.1453C581.066 52.2852 581 52.4417 580.967 52.606C580.934 52.7702 580.935 52.9389 580.969 53.1027C581.003 53.3132 581.041 53.5179 581.078 53.7198C581.14 54.0539 581.2 54.3805 581.239 54.7135L581.241 54.7219C581.331 55.2441 581.378 55.7722 581.383 56.3015L581.383 56.309C581.414 56.8805 581.211 57.441 580.818 57.8714L580.811 57.879C580.684 58.0363 580.513 58.1564 580.318 58.2258C580.123 58.2952 579.911 58.3112 579.707 58.2719C579.503 58.2326 579.315 58.1397 579.163 58.0034C579.011 57.8672 578.901 57.6925 578.847 57.5C578.73 57.0942 578.662 56.6768 578.645 56.2562L578.845 53.207C578.847 53.1672 578.851 53.1264 578.854 53.0851C578.862 52.9925 578.87 52.8982 578.873 52.8102C578.878 52.6808 578.874 52.5476 578.842 52.4216C578.81 52.2928 578.749 52.1703 578.64 52.066C578.533 51.9627 578.388 51.8865 578.205 51.8346C577.875 51.7429 577.596 51.7458 577.364 51.8405C577.131 51.9353 576.972 52.1111 576.859 52.3142C576.747 52.5157 576.675 52.7541 576.621 52.993C576.58 53.1702 576.548 53.3563 576.517 53.5334C576.506 53.5944 576.496 53.6543 576.485 53.7125L576.485 53.7142C576.32 54.6854 576.271 55.6716 576.339 56.6535C576.352 57.1841 576.467 57.7079 576.679 58.1981C576.918 58.8305 577.352 59.3785 577.922 59.7697C578.494 60.1616 579.176 60.3776 579.879 60.389C580.581 60.4004 581.271 60.2067 581.856 59.8336C582.44 59.461 582.893 58.927 583.154 58.3023C583.52 57.5064 583.692 56.6409 583.657 55.7717C583.635 55.1371 583.599 54.4977 583.563 53.8615C583.546 53.5494 583.528 53.238 583.512 52.9284C583.505 52.6181 583.398 52.3175 583.207 52.0669C583.089 51.9086 582.931 51.7808 582.749 51.6953Z" fill="#3A3B7B"/>
<path d="M589.217 56.4764C589.199 56.499 589.179 56.5224 589.159 56.5467C589.01 55.7236 588.872 54.9008 588.734 54.0768C588.685 53.7811 588.635 53.4842 588.585 53.1881L588.58 53.1551L588.561 53.1266C588.527 53.0728 588.523 53.0202 588.523 52.9079V52.8949L588.521 52.882C588.484 52.6501 588.375 52.4342 588.208 52.2627C588.041 52.0917 587.825 51.9727 587.587 51.921C587.35 51.8648 587.1 51.8772 586.87 51.9567C586.64 52.036 586.44 52.1784 586.294 52.3663C586.173 52.5104 586.074 52.6703 585.999 52.8412C585.831 53.2092 585.66 53.5782 585.489 53.9481L585.487 53.9545C585.06 54.8781 584.631 55.8079 584.214 56.745L584.213 56.748C583.957 57.3556 583.746 57.9958 583.535 58.6341C583.493 58.7615 583.451 58.8889 583.409 59.0159C583.333 59.2173 583.299 59.4312 583.311 59.6451C583.297 59.8366 583.345 60.0276 583.448 60.1923C583.553 60.3603 583.71 60.4926 583.897 60.5704C584.096 60.654 584.318 60.6717 584.528 60.6208C584.738 60.57 584.925 60.4537 585.058 60.2903C585.229 60.0889 585.376 59.8693 585.495 59.6367C585.848 58.9434 586.186 58.2418 586.522 57.5431C586.652 57.2729 586.778 57.0309 586.922 56.7673C586.931 56.7998 586.942 56.8315 586.952 56.8633C587.103 57.4996 587.357 58.1091 587.705 58.6695C587.771 58.7882 587.863 58.8919 587.974 58.9736C588.087 59.0563 588.217 59.1143 588.356 59.1437C588.494 59.1732 588.638 59.1733 588.777 59.1441C588.915 59.115 589.046 59.0569 589.158 58.9747L589.382 58.8142L591.116 57.4125L591.013 58.0396C590.872 58.9016 590.733 59.7565 590.584 60.6115C590.487 60.9905 590.487 61.3863 590.585 61.7652C590.627 61.9784 590.734 62.1747 590.893 62.329C591.054 62.4847 591.259 62.5904 591.483 62.6326C591.706 62.6747 591.938 62.6513 592.148 62.5655C592.355 62.4809 592.53 62.3395 592.653 62.1592C592.939 61.8188 593.117 61.4066 593.166 60.9718C593.239 60.3578 593.323 59.7355 593.406 59.1133C593.502 58.3961 593.597 57.6792 593.678 56.976L593.679 56.9738C593.756 56.204 593.794 55.4311 593.792 54.6578C593.809 54.4134 593.745 54.1699 593.61 53.9618C593.475 53.753 593.274 53.5907 593.037 53.4978C592.79 53.3901 592.513 53.3613 592.248 53.4158C591.985 53.4698 591.746 53.6031 591.568 53.7961C591.248 54.08 590.948 54.3838 590.669 54.7055L590.668 54.7076C590.364 55.071 590.062 55.4415 589.762 55.8096C589.58 56.0333 589.398 56.2566 589.217 56.4764Z" fill="#3A3B7B"/>
</g>
<g clip-path="url(#clip4_10_944)">
<path d="M778.938 36.6905C778.938 37.1565 779.32 37.5343 779.792 37.5343H780.646C781.118 37.5343 781.5 37.1565 781.5 36.6905C781.5 36.2246 781.118 35.8468 780.646 35.8468H779.792C779.32 35.8468 778.938 36.2246 778.938 36.6905Z" fill="#212326"/>
<path d="M754.167 62.8468H758.316L757.108 61.6535C756.788 61.3371 756.353 61.1593 755.9 61.1593H754.167C747.562 61.1593 742.208 55.8707 742.208 49.3468C742.208 42.8229 747.562 37.5343 754.167 37.5343H767.833C774.438 37.5343 779.792 42.8229 779.792 49.3468C779.792 55.8707 774.438 61.1593 767.833 61.1593H762.721C762.041 61.1593 761.389 60.8926 760.909 60.4179L759.494 59.02C758.693 58.2288 757.606 57.7843 756.474 57.7843H754.167C749.449 57.7843 745.625 54.0067 745.625 49.3468C745.625 44.6869 749.449 40.9093 754.167 40.9093H767.833C772.551 40.9093 776.375 44.6869 776.375 49.3468C776.375 54.0067 772.551 57.7843 767.833 57.7843H764.551C763.871 57.7843 763.219 57.5176 762.739 57.0429L761.323 55.645C760.522 54.8538 759.436 54.4093 758.303 54.4093H754.167C751.336 54.4093 749.042 52.1427 749.042 49.3468C749.042 46.5509 751.336 44.2843 754.167 44.2843H767.833C770.664 44.2843 772.958 46.5509 772.958 49.3468C772.958 52.1086 770.719 54.354 767.937 54.4083L767.936 54.4093H766.686C766.006 54.4093 765.355 54.1426 764.874 53.6679L763.459 52.27C762.802 51.6207 761.952 51.205 761.043 51.0767L761 51.0343H754.167C753.223 51.0343 752.458 50.2788 752.458 49.3468C752.458 48.4148 753.223 47.6593 754.167 47.6593H767.833C768.777 47.6593 769.542 48.4148 769.542 49.3468C769.542 50.2788 768.777 51.0343 767.833 51.0343H764.417L765.625 52.2276C765.945 52.544 766.38 52.7218 766.833 52.7218H767.833C769.72 52.7218 771.25 51.2107 771.25 49.3468C771.25 47.4829 769.72 45.9718 767.833 45.9718H754.167C752.28 45.9718 750.75 47.4829 750.75 49.3468C750.75 51.2107 752.28 52.7218 754.167 52.7218H760.439C761.119 52.7218 761.77 52.9885 762.251 53.4632L763.666 54.8611C764.467 55.6523 765.553 56.0968 766.686 56.0968H768.26V56.0838C771.835 55.8661 774.667 52.933 774.667 49.3468C774.667 45.6189 771.607 42.5968 767.833 42.5968H754.167C750.393 42.5968 747.333 45.6189 747.333 49.3468C747.333 53.0748 750.393 56.0968 754.167 56.0968H758.303C758.983 56.0968 759.635 56.3635 760.115 56.8382L761.531 58.2361C762.332 59.0273 763.418 59.4718 764.551 59.4718H767.833C773.494 59.4718 778.083 54.9387 778.083 49.3468C778.083 43.7549 773.494 39.2218 767.833 39.2218H754.167C748.506 39.2218 743.917 43.7549 743.917 49.3468C743.917 54.9387 748.506 59.4718 754.167 59.4718H756.474C757.153 59.4718 757.805 59.7385 758.286 60.2132L759.701 61.6111C760.502 62.4023 761.588 62.8468 762.721 62.8468H767.833C775.381 62.8468 781.5 56.8027 781.5 49.3468C781.5 41.891 775.381 35.8468 767.833 35.8468L754.167 35.8468C746.619 35.8468 740.5 41.891 740.5 49.3468C740.5 56.8027 746.619 62.8468 754.167 62.8468Z" fill="#212326"/>
</g>
<g clip-path="url(#clip5_10_944)">
<path d="M930.843 38.8468C928.812 38.8468 926.865 39.6535 925.429 41.0894L920.743 45.7757C919.307 47.2117 918.5 49.1592 918.5 51.1899C918.5 55.4187 921.928 58.8468 926.157 58.8468C928.188 58.8468 930.135 58.0401 931.571 56.6041L934.813 53.3626C934.813 53.3625 934.813 53.3627 934.813 53.3626L944.257 43.9179C944.943 43.2321 945.873 42.8468 946.843 42.8468C948.467 42.8468 949.843 43.9051 950.321 45.3695L953.301 42.3888C951.942 40.259 949.557 38.8468 946.843 38.8468C944.812 38.8468 942.865 39.6535 941.429 41.0894L928.743 53.7757C928.057 54.4615 927.127 54.8468 926.157 54.8468C924.137 54.8468 922.5 53.2096 922.5 51.1899C922.5 50.2201 922.885 49.2899 923.571 48.6041L928.257 43.9179C928.943 43.2321 929.873 42.8468 930.843 42.8468C932.467 42.8468 933.843 43.9051 934.321 45.3696L937.302 42.3888C935.942 40.2591 933.557 38.8468 930.843 38.8468Z" fill="#394149"/>
<path d="M944.743 53.7757C944.057 54.4615 943.127 54.8468 942.157 54.8468C940.533 54.8468 939.157 53.7888 938.68 52.3246L935.699 55.3053C937.059 57.4347 939.443 58.8468 942.157 58.8468C944.188 58.8468 946.135 58.0401 947.571 56.6041L960.257 43.9179C960.943 43.2321 961.873 42.8468 962.843 42.8468C964.863 42.8468 966.5 44.484 966.5 46.5037C966.5 47.4735 966.115 48.4037 965.429 49.0895L960.743 53.7757C960.057 54.4615 959.127 54.8468 958.157 54.8468C956.533 54.8468 955.157 53.7886 954.679 52.3243L951.699 55.305C953.059 57.4347 955.443 58.8468 958.157 58.8468C960.188 58.8468 962.135 58.0401 963.571 56.6041L968.257 51.9179C969.693 50.4819 970.5 48.5344 970.5 46.5037C970.5 42.2749 967.072 38.8468 962.843 38.8468C960.812 38.8468 958.865 39.6535 957.429 41.0894L944.743 53.7757Z" fill="#394149"/>
</g>
<g clip-path="url(#clip6_10_944)">
<path d="M1156.5 44.5165C1156.5 44.4748 1156.5 44.4326 1156.5 44.3909C1156.5 44.3569 1156.5 44.3223 1156.5 44.2882L1156.09 41.3556C1156.03 41.0047 1155.87 40.6768 1155.63 40.4085L1155.56 40.3286L1155.44 40.2031L1148.38 34.2465L1148.58 34.4405C1148.42 34.2506 1148.22 34.0987 1147.99 33.996C1147.76 33.8933 1147.51 33.8424 1147.25 33.8471H1145.11C1144.76 33.8403 1144.42 33.9489 1144.15 34.1552C1143.85 33.9501 1143.5 33.8421 1143.15 33.8471H1141C1140.72 33.8426 1140.45 33.911 1140.2 34.0452C1139.95 34.1795 1139.75 34.3749 1139.61 34.6116C1139.39 34.9498 1139.3 35.3572 1139.37 35.7527L1139.64 37.6013C1139.46 37.5028 1139.26 37.4516 1139.06 37.453H1128.69C1128.32 37.4553 1127.95 37.5622 1127.64 37.7611C1127.34 37.9462 1127.1 38.2113 1126.94 38.5256L1126.14 37.8524C1125.82 37.5656 1125.41 37.4102 1124.98 37.4188H1108.7C1108.33 37.4254 1107.97 37.5277 1107.64 37.7155C1107.21 37.9672 1106.88 38.3764 1106.75 38.8566L1101.58 55.802C1101.48 56.0812 1101.47 56.3824 1101.55 56.6669C1101.63 56.9514 1101.8 57.2065 1102.02 57.3996C1102.08 57.4488 1102.14 57.4945 1102.21 57.5365C1102.21 57.5365 1102.1 57.468 1102.05 57.411L1109.1 63.379C1109.4 63.6483 1109.79 63.7988 1110.19 63.8011H1126.59C1126.97 63.7916 1127.33 63.6853 1127.65 63.493C1127.83 63.3963 1127.99 63.2688 1128.13 63.1165L1128.19 63.0366L1128.28 62.9225L1128.35 62.797L1129.12 63.4474C1129.41 63.706 1129.8 63.8483 1130.19 63.8468H1146.63C1147 63.8346 1147.36 63.7285 1147.68 63.5387C1147.86 63.436 1148.02 63.3092 1148.16 63.1621L1148.22 63.0823L1148.31 62.9682C1148.36 62.896 1148.41 62.8196 1148.44 62.7399C1148.48 62.6707 1148.51 62.5981 1148.53 62.5231L1153.25 47.0497V46.9128C1153.25 46.8597 1153.25 46.8061 1153.25 46.753V46.6504C1153.25 46.6163 1153.25 46.5817 1153.25 46.5476C1153.25 46.4755 1153.25 46.403 1153.25 46.3308H1154.76C1154.89 46.3426 1155.03 46.3426 1155.16 46.3308H1155.26C1155.35 46.3059 1155.43 46.2714 1155.51 46.2281H1155.62L1155.83 46.0684L1155.93 45.9999L1156.09 45.7945V45.7261L1156.2 45.532C1156.2 45.4943 1156.2 45.4557 1156.2 45.418C1156.2 45.3994 1156.2 45.3794 1156.2 45.3609C1156.23 45.294 1156.25 45.2253 1156.26 45.1555C1156.26 45.133 1156.26 45.1095 1156.26 45.087C1156.26 45.053 1156.26 45.0183 1156.26 44.9843C1156.26 44.9843 1156.5 44.5393 1156.5 44.5165Z" fill="black"/>
<path d="M1125.45 38.7197C1125.51 38.7745 1125.56 38.8465 1125.58 38.9261C1125.6 39.0057 1125.59 39.089 1125.56 39.1647L1120.4 56.0988C1120.34 56.2836 1120.2 56.4382 1120.03 56.5324C1119.89 56.6256 1119.72 56.6807 1119.55 56.6922H1103.16C1103.02 56.6856 1102.89 56.6287 1102.79 56.5324C1102.73 56.4785 1102.69 56.4084 1102.67 56.3313C1102.65 56.254 1102.66 56.1731 1102.69 56.0988L1107.85 39.1647C1107.91 38.9775 1108.04 38.8188 1108.21 38.7197C1108.36 38.6332 1108.52 38.5823 1108.69 38.5714H1125.08C1125.22 38.5727 1125.35 38.6257 1125.45 38.7197ZM1116.9 52.6869L1119.98 42.5766H1111.35L1108.27 52.6869H1116.9ZM1141.1 38.8909C1141.15 38.9546 1141.22 39.0051 1141.3 39.0387C1141.38 39.0723 1141.46 39.088 1141.55 39.0849H1143.68C1143.76 39.0856 1143.84 39.0661 1143.91 39.0282C1143.98 38.9903 1144.04 38.9351 1144.09 38.868C1144.13 38.8156 1144.15 38.7563 1144.17 38.6936C1144.18 38.6308 1144.18 38.566 1144.17 38.5029L1143.75 35.4904C1143.71 35.3509 1143.64 35.2222 1143.54 35.1138C1143.48 35.0501 1143.42 34.9996 1143.34 34.966C1143.26 34.9324 1143.17 34.9166 1143.09 34.9198H1140.96C1140.88 34.919 1140.8 34.9385 1140.72 34.9765C1140.65 35.0144 1140.59 35.0695 1140.55 35.1366C1140.47 35.2964 1140.43 35.3991 1140.47 35.4904L1140.9 38.5029C1140.92 38.6496 1140.99 38.7855 1141.1 38.8909ZM1147.86 35.4676C1147.82 35.3281 1147.75 35.1994 1147.65 35.091C1147.6 35.0275 1147.53 34.977 1147.45 34.9434C1147.37 34.9097 1147.29 34.8939 1147.21 34.897H1145.07C1144.99 34.8948 1144.91 34.9137 1144.84 34.9519C1144.77 34.9901 1144.71 35.046 1144.67 35.1138C1144.59 35.215 1144.56 35.3422 1144.58 35.4676L1145.01 38.4801C1145.03 38.6252 1145.1 38.7598 1145.21 38.868C1145.26 38.9305 1145.33 38.9802 1145.41 39.0137C1145.49 39.0471 1145.57 39.0636 1145.66 39.062H1147.8C1147.88 39.0631 1147.96 39.0436 1148.03 39.0055C1148.1 38.9675 1148.16 38.9122 1148.2 38.8452C1148.24 38.7942 1148.27 38.7349 1148.28 38.6717C1148.29 38.6085 1148.29 38.543 1148.28 38.4801L1147.86 35.4676ZM1139.22 40.032L1139.01 38.5485H1128.69C1128.53 38.5573 1128.37 38.6085 1128.23 38.6969C1128.15 38.7427 1128.07 38.8062 1128.02 38.8831C1127.96 38.9599 1127.92 39.0482 1127.9 39.1419L1127.04 41.9718C1127 42.0426 1126.99 42.1219 1127 42.1993C1127.01 42.2767 1127.05 42.3486 1127.11 42.4055C1127.2 42.4959 1127.33 42.5487 1127.47 42.5538H1140.01L1136.93 52.6641H1124.42C1124.26 52.6677 1124.1 52.7151 1123.96 52.8009C1123.8 52.9035 1123.68 53.0619 1123.63 53.246L1122.75 56.076C1122.72 56.1486 1122.72 56.2275 1122.73 56.304C1122.75 56.3805 1122.78 56.4516 1122.83 56.5095C1122.93 56.6061 1123.06 56.6632 1123.19 56.6693H1139.63C1139.8 56.655 1139.96 56.6001 1140.11 56.5095C1140.28 56.4149 1140.41 56.26 1140.47 56.076L1145.19 40.6025H1139.87C1139.79 40.6042 1139.71 40.5888 1139.63 40.5574C1139.55 40.526 1139.48 40.4792 1139.42 40.4199C1139.32 40.3165 1139.26 40.1909 1139.22 40.0548V40.032Z" fill="white"/>
</g>
<defs>
<clipPath id="clip0_10_944">
<rect width="40" height="40" fill="white" transform="translate(4.50006 29)"/>
</clipPath>
<clipPath id="clip1_10_944">
<rect width="40" height="28" fill="white" transform="translate(188.5 34.8468)"/>
</clipPath>
<clipPath id="clip2_10_944">
<rect width="55" height="30" fill="white" transform="translate(365.5 33.8468)"/>
</clipPath>
<clipPath id="clip3_10_944">
<rect width="47" height="29" fill="white" transform="translate(553.5 34.8468)"/>
</clipPath>
<clipPath id="clip4_10_944">
<rect width="41" height="27" fill="white" transform="translate(740.5 35.8468)"/>
</clipPath>
<clipPath id="clip5_10_944">
<rect width="52" height="20" fill="white" transform="translate(918.5 38.8468)"/>
</clipPath>
<clipPath id="clip6_10_944">
<rect width="55" height="30" fill="white" transform="translate(1101.5 33.8468)"/>
</clipPath>
</defs>
</svg>
