<svg width="67" height="57" viewBox="0 0 67 57" fill="none" xmlns="http://www.w3.org/2000/svg">
<path d="M66.5 39C66.5 48.9411 58.4411 57 48.5 57L21.5 57C18.7386 57 16.5 54.7614 16.5 52L16.5 18C16.5 12.4772 20.9772 8 26.5 8L61.5 8C64.2614 8 66.5 10.2386 66.5 13L66.5 39Z" fill="#E8F5E9"/>
<path d="M28.8117 23.6446C28.5709 23.6446 28.3473 23.5784 28.1487 23.4719V23.4748C28.1487 23.8536 28.0014 24.2094 27.7343 24.4758C27.4671 24.743 27.1116 24.8903 26.7332 24.8903C26.4889 24.8903 26.2625 24.8224 26.0617 24.7131C26.0415 25.0597 25.9029 25.3836 25.6558 25.631C25.3886 25.8982 25.0331 26.0454 24.6545 26.0454C23.9022 26.0454 23.2913 25.4541 23.2473 24.7129C23.0145 24.8387 22.7513 24.9046 22.4799 24.8872C21.7398 24.8387 21.1603 24.1993 21.1603 23.4312V17.0645L20.4353 18.3205C20.1592 18.8009 19.6423 19.0991 19.0858 19.0991C18.8147 19.0991 18.5468 19.028 18.3095 18.892C18.0141 18.7208 17.8028 18.4458 17.7149 18.1169C17.6265 17.7878 17.6722 17.4436 17.8431 17.1486C17.8433 17.1486 20.215 13.0414 20.3597 12.7891C20.3769 12.7512 20.4259 12.6411 20.4676 12.5474C20.5075 12.4578 20.5416 12.366 20.5744 12.2736C21.2896 10.2543 23.0607 8.99998 25.1966 8.99998C27.9703 8.99998 30.2268 11.4469 30.2268 14.4546L30.227 22.2289C30.227 22.6073 30.08 22.9628 29.8131 23.2302C29.5459 23.4974 29.1904 23.6447 28.8116 23.6447L28.8117 23.6446ZM25.1966 9.75212C23.3613 9.75212 21.8984 10.7888 21.2833 12.5251C21.244 12.6354 21.203 12.7457 21.1552 12.8531C21.0164 13.1643 21.0164 13.1643 20.9773 13.2091L20.9721 13.2046C20.7784 13.57 20.2031 14.5663 18.4943 17.525C18.4241 17.6463 18.4055 17.7872 18.4413 17.922C18.4776 18.0567 18.5645 18.1703 18.6849 18.2398C19.0586 18.4544 19.5703 18.3159 19.7833 17.9448L21.2108 15.4734C21.2961 15.3261 21.4685 15.2538 21.6339 15.2986C21.7983 15.3426 21.9126 15.4918 21.9126 15.6619V23.4314C21.9126 23.798 22.1892 24.1144 22.5292 24.1368C22.7252 24.1471 22.908 24.0814 23.0454 23.9443C23.1702 23.8194 23.239 23.6531 23.239 23.4752V18.3938C23.239 18.186 23.4075 18.0176 23.6153 18.0176C23.8231 18.0176 23.9915 18.1858 23.9915 18.3938L23.9913 24.6302C23.9913 24.9958 24.2889 25.2934 24.6545 25.2934C24.8321 25.2934 24.999 25.2246 25.1241 25.0997C25.2489 24.9746 25.3177 24.8078 25.3177 24.6302V18.3938C25.3177 18.186 25.4859 18.0176 25.694 18.0176C25.9018 18.0176 26.0702 18.1858 26.0702 18.3938L26.07 23.4168V23.4752C26.07 23.8406 26.3675 24.1381 26.7334 24.1381C26.9108 24.1381 27.0772 24.0691 27.203 23.9438C27.3278 23.8191 27.3966 23.6528 27.3966 23.4749V18.3936C27.3966 18.1858 27.5649 18.0173 27.7729 18.0173C27.9807 18.0173 28.1491 18.1855 28.1491 18.3936L28.1487 22.2291C28.1487 22.595 28.4462 22.8925 28.8116 22.8925C28.9895 22.8925 29.1558 22.8235 29.2807 22.6989C29.406 22.5736 29.4746 22.4067 29.4746 22.2291L29.4748 14.4548C29.4748 11.862 27.5557 9.7522 25.1966 9.7522L25.1966 9.75212Z" fill="#103E13"/>
<path d="M14.0291 29.048L19.4888 25.7727C20.1471 25.3774 20.9941 25.5454 21.4162 26.1553C21.5703 26.3775 21.649 26.6364 21.6613 26.9001C21.8648 26.7938 22.0863 26.7361 22.3117 26.7361C22.4272 26.7361 22.5431 26.7505 22.6576 26.779C23.0244 26.8706 23.3335 27.0999 23.5279 27.424C23.7225 27.7487 23.7793 28.1291 23.6877 28.4955C23.6031 28.8346 23.3969 29.1199 23.1102 29.3157C23.3107 29.4339 23.4836 29.5953 23.6066 29.8008C23.8012 30.1254 23.858 30.5057 23.7666 30.8725C23.6749 31.2389 23.4457 31.548 23.121 31.7429L23.1192 31.744C23.3161 31.8621 23.486 32.0218 23.6076 32.2242C23.8024 32.5488 23.8592 32.9293 23.7675 33.2961C23.6756 33.6627 23.4464 33.9718 23.1222 34.1664L16.4558 38.1657C15.2116 38.9119 13.7733 39.1694 12.4064 38.8902C11.0272 38.6084 9.88497 37.8157 9.19046 36.6579C8.09138 34.8261 8.25609 32.6619 9.61949 31.0101C9.68192 30.9347 9.74341 30.8579 9.79925 30.7783C9.85839 30.6942 9.92742 30.5952 9.95098 30.5613C10.0921 30.3092 12.3949 26.1603 12.3946 26.1608C12.6272 25.7412 13.063 25.5037 13.5125 25.5039C13.7222 25.5039 13.9349 25.5555 14.1312 25.6644C14.3682 25.7968 14.5673 25.9898 14.7065 26.2223C14.9928 26.6994 15.0029 27.2964 14.7334 27.7796L14.0291 29.048ZM14.0618 26.6091C13.9888 26.4873 13.8884 26.3902 13.7657 26.3214C13.512 26.181 13.1925 26.2724 13.0528 26.5252C11.405 29.4937 10.8434 30.5054 10.6266 30.8654L10.6315 30.8666C10.6134 30.9269 10.6134 30.9269 10.415 31.2103C10.3476 31.3062 10.2744 31.3983 10.1997 31.489C9.02732 32.9094 8.89119 34.6969 9.83521 36.2709C10.42 37.2458 11.3864 37.9142 12.5566 38.1531C13.7395 38.3937 14.9863 38.1699 16.0684 37.5206L22.7355 33.5211C22.8876 33.4299 22.9951 33.285 23.038 33.1133C23.0808 32.9417 23.0542 32.7634 22.9628 32.6112C22.7748 32.2979 22.3665 32.1949 22.0532 32.3836L18.7642 34.3568C18.5861 34.4637 18.3548 34.4062 18.248 34.2279C18.1411 34.0498 18.1988 33.8187 18.3769 33.7117L21.6661 31.7386L22.7343 31.0977C22.8865 31.0063 22.9941 30.8614 23.037 30.6901C23.0799 30.5184 23.0533 30.3398 22.9619 30.1878C22.7736 29.8743 22.3653 29.7723 22.0522 29.9603L17.6948 32.5742C17.5163 32.6814 17.2856 32.6235 17.1787 32.4454C17.0717 32.2673 17.1296 32.0361 17.3075 31.9292L22.6554 28.7211C22.8076 28.6296 22.915 28.485 22.9579 28.3132C23.0007 28.1417 22.9741 27.9634 22.8829 27.8112C22.7918 27.6592 22.6469 27.5518 22.4751 27.5089C22.3024 27.466 22.1248 27.4927 21.9731 27.5836L20.9831 28.1775C20.9829 28.1775 20.9829 28.1778 20.9826 28.1778H20.9824L16.6252 30.7917C16.4467 30.8992 16.2158 30.8412 16.1091 30.6629C16.0021 30.4848 16.0601 30.2536 16.2379 30.1467L20.5953 27.5327C20.7475 27.4413 20.8552 27.2964 20.898 27.1251C20.9452 26.9371 20.9094 26.7449 20.7977 26.5837C20.604 26.3036 20.1898 26.2291 19.8758 26.4179L13.2136 30.4146C13.0678 30.5017 12.8809 30.4805 12.7587 30.3625C12.6362 30.2442 12.6086 30.0583 12.6911 29.9097L14.0764 27.4137C14.2154 27.1642 14.21 26.8561 14.0618 26.6092L14.0618 26.6091Z" fill="#103E13"/>
<path d="M40.1181 36.6577C39.4238 37.8157 38.2819 38.6083 36.9025 38.8901C35.5353 39.1688 34.0974 38.9117 32.853 38.1656L26.186 34.1661C25.8616 33.9715 25.6321 33.6624 25.5402 33.2953C25.449 32.9289 25.506 32.5484 25.7004 32.2243C25.8217 32.0216 25.9918 31.8619 26.189 31.7439L26.1871 31.7427C25.8627 31.5481 25.6333 31.239 25.5419 30.8724C25.45 30.5058 25.507 30.125 25.7016 29.8004C25.8269 29.5919 25.9987 29.4289 26.1947 29.3132C25.9101 29.1174 25.7051 28.8331 25.6208 28.4957C25.5289 28.1288 25.5859 27.7483 25.7805 27.4242C25.9749 27.0997 26.2842 26.8705 26.6508 26.7789C26.7653 26.7501 26.8815 26.736 26.9965 26.736C27.2222 26.7362 27.4436 26.7935 27.6472 26.9C27.6597 26.6363 27.7381 26.3774 27.8922 26.1552C28.3146 25.5458 29.1609 25.3771 29.8201 25.7726L35.2796 29.0474L34.5759 27.7799C34.3059 27.296 34.3158 26.699 34.6021 26.2216C34.7415 25.9893 34.9408 25.7964 35.179 25.6628C35.3748 25.5544 35.5869 25.5031 35.796 25.5031C36.2453 25.5033 36.6817 25.7403 36.9139 26.1599C37.7235 27.6185 39.2511 30.3694 39.3585 30.5614C39.3813 30.5946 39.4504 30.6936 39.5095 30.7777C39.5658 30.8575 39.6266 30.9339 39.6895 31.0097C41.0527 32.6622 41.2171 34.8262 40.1181 36.6578L40.1181 36.6577ZM39.1091 31.4892C39.0341 31.3985 38.9606 31.3059 38.8937 31.2105C38.6902 30.9217 38.685 30.9141 38.6697 30.8385C38.4317 30.4448 37.8512 29.3997 36.2555 26.5249C36.1156 26.2726 35.7975 26.1805 35.5443 26.3204C35.4196 26.3901 35.3195 26.4874 35.2465 26.6093C35.0985 26.8559 35.0928 27.1641 35.2326 27.4143L36.6174 29.9095C36.7001 30.0584 36.6725 30.2441 36.5503 30.3623C36.4282 30.4808 36.2416 30.5016 36.0951 30.4144L29.4329 26.4177C29.1189 26.2295 28.7049 26.3032 28.5108 26.5836C28.3991 26.7447 28.3635 26.937 28.4102 27.1247C28.4531 27.2963 28.5607 27.4409 28.7132 27.5323C28.7136 27.5326 28.7139 27.533 28.7143 27.5333L33.0703 30.1465C33.2484 30.2535 33.3062 30.4844 33.1992 30.6627C33.0922 30.8406 32.8616 30.8988 32.683 30.7916L27.3352 27.5835C27.1834 27.4925 27.0048 27.4657 26.8333 27.5088C26.6613 27.5517 26.5167 27.6591 26.4255 27.8115C26.3341 27.9635 26.3077 28.1418 26.3501 28.3133C26.393 28.4849 26.5007 28.6297 26.6529 28.7212L27.6935 29.3453L32.0005 31.9293C32.1786 32.0363 32.2363 32.2672 32.1293 32.4455C32.0224 32.6234 31.7917 32.6814 31.6131 32.5744L27.2562 29.9604C26.9429 29.7719 26.5348 29.8742 26.3464 30.188C26.255 30.3402 26.2286 30.5186 26.271 30.6901C26.3139 30.8616 26.4215 31.0062 26.5739 31.0979L27.6422 31.7387L30.9308 33.7119C31.109 33.8188 31.1667 34.0497 31.0597 34.2281C30.9528 34.4059 30.7221 34.4644 30.5435 34.3569L27.2548 32.3838C27.1031 32.2928 26.9252 32.266 26.7528 32.3091C26.5813 32.352 26.4361 32.4594 26.345 32.6114C26.2538 32.7636 26.2272 32.9421 26.2696 33.1134C26.3124 33.2849 26.4201 33.4296 26.5725 33.5212L33.2395 37.5207C34.3214 38.1698 35.5691 38.3945 36.7514 38.1533C37.9213 37.9144 38.8878 37.246 39.4725 36.2711C40.4175 34.6968 40.2816 32.9091 39.1095 31.4892L39.1091 31.4892Z" fill="#103E13"/>
</svg>
