<svg width="442" height="442" viewBox="0 0 442 442" fill="none" xmlns="http://www.w3.org/2000/svg">
<path d="M221 386C315.661 386 392.399 381.511 392.399 375.973C392.399 370.435 315.661 365.946 221 365.946C126.339 365.946 49.6012 370.435 49.6012 375.973C49.6012 381.511 126.339 386 221 386Z" fill="#F5F5F5"/>
<path d="M308.737 152.043L299.968 148.5C299.968 148.5 288.396 169.643 285.081 170.715C280.573 172.168 271.238 176.207 265.704 176.915C264.952 177.801 263.724 180.556 263.838 181.557C271.273 184.046 287.609 180.742 291.11 178.138C299.075 172.23 308.737 152.043 308.737 152.043Z" fill="#E58A7B"/>
<path d="M311.433 147.234C313.068 153.283 304.211 165.454 304.211 165.454L292.604 158.935C292.604 158.935 294.779 153.93 297.431 148.837C301.683 140.608 309.568 140.334 311.433 147.234Z" fill="#4CAF4F"/>
<path opacity="0.2" d="M311.433 147.234C313.068 153.283 304.211 165.454 304.211 165.454L292.604 158.935C292.604 158.935 294.779 153.93 297.431 148.837C301.683 140.608 309.568 140.334 311.433 147.234Z" fill="black"/>
<path opacity="0.2" d="M297.21 161.539L301.78 164.107L302.584 150.05C299.924 152.096 298.05 158.261 297.21 161.539Z" fill="black"/>
<path d="M303.795 142.681C303.795 142.681 294.761 162.823 300.03 200.326H335.628C336.194 194.852 334.32 168.138 341.1 142.344C337.195 141.579 333.244 141.073 329.272 140.829C324.235 140.537 319.185 140.537 314.147 140.829C310.655 141.185 307.195 141.804 303.795 142.681Z" fill="#4CAF4F"/>
<path opacity="0.2" d="M303.795 142.681C303.795 142.681 294.761 162.823 300.03 200.326H335.628C336.194 194.852 334.32 168.138 341.1 142.344C337.195 141.579 333.244 141.073 329.272 140.829C324.235 140.537 319.185 140.537 314.147 140.829C310.655 141.185 307.195 141.804 303.795 142.681Z" fill="black"/>
<g style="mix-blend-mode:multiply">
<path d="M295.539 376.771C295.486 377.727 308.984 378.498 325.683 378.498C342.382 378.498 355.978 377.727 356.031 376.771C356.084 375.814 342.594 375.052 325.886 375.052C309.179 375.052 295.601 375.823 295.539 376.771Z" fill="#E8ECF1"/>
</g>
<path d="M319.301 351.635L312.987 354.084L318.426 368.162L324.74 365.713L319.301 351.635Z" fill="#E58A7B"/>
<path d="M347.456 369.959H340.8L338.36 354.52H345.016L347.456 369.959Z" fill="#E58A7B"/>
<path d="M340.34 369.188H347.819C347.949 369.189 348.074 369.235 348.173 369.319C348.271 369.404 348.337 369.521 348.358 369.649L349.322 375.575C349.342 375.723 349.33 375.875 349.287 376.018C349.244 376.162 349.17 376.294 349.071 376.407C348.972 376.52 348.85 376.61 348.713 376.671C348.576 376.732 348.428 376.763 348.278 376.762C345.671 376.717 344.415 376.558 341.127 376.558C339.103 376.558 334.939 376.77 332.128 376.77C329.317 376.77 329.131 374.007 330.289 373.75C335.487 372.625 337.503 371.093 339.235 369.605C339.541 369.336 339.934 369.188 340.34 369.188Z" fill="#263238"/>
<path d="M318.24 366.902L325.312 364.83C325.438 364.794 325.573 364.803 325.693 364.854C325.814 364.906 325.913 364.997 325.975 365.113L328.627 370.428C328.689 370.563 328.72 370.709 328.719 370.858C328.718 371.006 328.685 371.152 328.622 371.286C328.559 371.42 328.467 371.539 328.354 371.634C328.24 371.729 328.107 371.798 327.964 371.836C325.392 372.545 323.668 372.979 320.45 373.918C318.231 374.564 315.968 375.618 313.776 376.318C312.255 376.805 308.684 376.823 306.836 376.823C304.105 376.823 303.495 373.935 304.671 373.802C307.632 373.475 308.03 373.625 309.665 372.802C312.341 371.63 314.766 369.951 316.808 367.859C317.193 367.419 317.687 367.089 318.24 366.902Z" fill="#263238"/>
<path d="M266.818 176.88L259.498 173.807L256.484 181.938C259.484 182.396 262.536 182.396 265.536 181.938L266.818 176.88Z" fill="#E58A7B"/>
<path d="M254.053 173.594L253.858 178.997L256.484 181.92L259.498 173.789L254.053 173.594Z" fill="#E58A7B"/>
<path d="M320.167 352.83L313.834 355.28L316.639 362.56L322.972 360.11L320.167 352.83Z" fill="#CF6F64"/>
<path d="M345.016 354.52H338.36L339.624 362.483H346.28L345.016 354.52Z" fill="#CF6F64"/>
<path opacity="0.2" d="M298.898 190.184C299.031 191.787 299.181 193.426 299.375 195.109L325.842 186.499C329.976 185.272 333.568 182.669 336.026 179.121C336.132 176.756 336.265 174.267 336.468 171.672C336.556 170.414 336.662 169.121 336.777 167.81C336.892 166.499 337.051 165.046 337.219 163.647L298.898 190.184Z" fill="black"/>
<path d="M307.543 161.131L306.659 161.025C307.181 156.596 310.478 153.106 313.952 153.195V154.081C310.911 154.019 308.012 157.163 307.543 161.131Z" fill="white"/>
<path d="M312.255 169.307H312.105V168.421C315.146 168.536 318.001 165.356 318.47 161.397L319.354 161.503C318.885 165.834 315.694 169.307 312.255 169.307Z" fill="white"/>
<path d="M328.777 123.761C327.531 128.641 326.063 137.579 329.272 140.829C329.272 140.829 327.027 145.781 317.984 145.781C309.718 145.781 314.147 140.829 314.147 140.829C319.646 139.536 319.743 135.515 319.018 131.706L328.777 123.761Z" fill="#E58A7B"/>
<path d="M324.799 127.003L319.027 131.706C319.206 132.581 319.309 133.47 319.336 134.363C321.024 136.046 324.41 131.786 324.755 129.607C324.93 128.749 324.945 127.866 324.799 127.003Z" fill="#CF6F64"/>
<path d="M309.099 123.699C309.501 124.396 310.042 125.004 310.688 125.482C311.335 125.961 312.073 126.3 312.856 126.48C314.978 126.95 316.039 124.992 315.455 123.026C314.934 121.254 313.192 118.872 311.035 119.279C310.573 119.374 310.141 119.579 309.774 119.877C309.407 120.174 309.117 120.555 308.927 120.988C308.738 121.42 308.654 121.892 308.684 122.364C308.714 122.836 308.857 123.294 309.099 123.699Z" fill="#CF6F64"/>
<path d="M312.609 108.083C309.303 109.598 308.136 122.76 312.291 124.709C316.445 126.657 318.868 105.204 312.609 108.083Z" fill="#263238"/>
<path d="M329.785 116.418C328.99 123.026 328.901 126.914 325.365 130.298C324.269 131.42 322.885 132.218 321.366 132.602C319.846 132.987 318.25 132.943 316.754 132.475C315.258 132.008 313.919 131.135 312.887 129.954C311.854 128.772 311.168 127.328 310.903 125.78C309.833 119.846 311.31 110.04 317.922 107.41C319.311 106.796 320.839 106.565 322.347 106.742C323.855 106.919 325.289 107.497 326.499 108.416C327.709 109.335 328.652 110.561 329.23 111.968C329.808 113.375 329.999 114.912 329.785 116.418Z" fill="#E58A7B"/>
<path d="M318.921 111.502C323.818 110.253 327.416 109.403 326.125 113.486C324.419 118.942 322.368 124.221 325.117 124.461C326.797 124.611 334.223 121.458 333.277 118.26C332.455 115.479 335.929 114.717 336.548 113.309C338.837 108.207 332.287 108.88 333.454 105.78C334.62 102.68 328.15 97.684 324.614 100.173C318.859 104.194 308.984 104.132 314.174 97.5157C317.895 92.7946 311.256 93.7601 311.256 93.7601C311.256 93.7601 315.27 96.1428 308.516 99.8275C301.373 103.76 307.924 114.327 318.921 111.502Z" fill="#263238"/>
<path d="M332.384 123.699C331.417 125.101 329.965 126.092 328.309 126.48C326.125 126.95 325.285 124.992 326.108 123.026C326.841 121.254 328.857 118.872 330.943 119.279C333.029 119.686 333.507 121.963 332.384 123.699Z" fill="#E58A7B"/>
<path d="M300.03 200.326C300.03 200.326 294.054 253.915 293.585 274.252C293.108 295.404 313.838 361.402 313.838 361.402L324.446 356.973C324.446 356.973 312.07 296.671 313.838 275.899C315.712 253.25 323.456 200.362 323.456 200.362L300.03 200.326Z" fill="#4CAF4F"/>
<path opacity="0.2" d="M314.881 215.039C310.116 224.942 313.325 244.526 315.906 256.129C316.887 247.936 318.054 239.043 319.159 230.814C319.053 218.166 318.072 208.396 314.881 215.039Z" fill="black"/>
<path d="M323.977 353.466C324.03 353.466 325.232 356.849 325.232 356.849L312.998 362.005L311.071 358.408L323.977 353.466Z" fill="#4CAF4F"/>
<path d="M312.662 200.326C312.662 200.326 317.232 251.293 320.256 270.381C323.579 291.294 336.61 360.941 336.61 360.941H348.8C348.8 360.941 341.498 292.986 340.119 272.277C338.616 249.814 335.628 200.326 335.628 200.326H312.662Z" fill="#4CAF4F"/>
<path d="M348.985 357.761C349.038 357.761 349.392 361.171 349.392 361.171H335.991L335.036 357.256L348.985 357.761Z" fill="#4CAF4F"/>
<path opacity="0.2" d="M344.318 353.723C344.29 353.723 344.263 353.713 344.242 353.695C344.221 353.678 344.207 353.653 344.203 353.625C344.132 353.005 337.546 291.622 336.309 273.021C334.965 252.843 332.26 208.086 332.234 207.634C332.232 207.619 332.234 207.604 332.239 207.591C332.244 207.577 332.251 207.564 332.261 207.553C332.271 207.542 332.284 207.534 332.297 207.528C332.31 207.522 332.325 207.519 332.34 207.519C332.369 207.519 332.397 207.53 332.418 207.549C332.439 207.569 332.452 207.596 332.455 207.625C332.455 208.077 335.186 252.799 336.53 273.012C337.767 291.613 344.353 352.952 344.415 353.616C344.418 353.631 344.417 353.646 344.413 353.66C344.41 353.675 344.403 353.688 344.394 353.7C344.385 353.712 344.373 353.721 344.36 353.728C344.347 353.735 344.333 353.739 344.318 353.74V353.723Z" fill="black"/>
<path d="M319.672 118.261C319.672 118.801 319.336 119.235 318.983 119.235C318.629 119.235 318.373 118.801 318.408 118.261C318.443 117.72 318.744 117.286 319.097 117.286C319.451 117.286 319.707 117.729 319.672 118.261Z" fill="#263238"/>
<path d="M313.608 118.261C313.608 118.801 313.263 119.235 312.918 119.235C312.573 119.235 312.308 118.801 312.335 118.261C312.361 117.72 312.679 117.286 313.033 117.286C313.387 117.286 313.643 117.729 313.608 118.261Z" fill="#263238"/>
<path d="M315.517 118.535C314.78 120.185 313.828 121.73 312.689 123.132C313.573 124.018 315.226 123.61 315.226 123.61L315.517 118.535Z" fill="#DF5753"/>
<path d="M315.676 125.87C315.656 125.87 315.636 125.866 315.617 125.857C315.598 125.849 315.581 125.837 315.567 125.822C315.553 125.808 315.542 125.79 315.535 125.771C315.528 125.751 315.525 125.731 315.526 125.71C315.528 125.667 315.547 125.627 315.578 125.597C315.61 125.567 315.651 125.551 315.694 125.551C316.37 125.555 317.039 125.408 317.651 125.12C318.263 124.832 318.802 124.41 319.23 123.885C319.261 123.858 319.3 123.844 319.341 123.844C319.381 123.844 319.42 123.858 319.451 123.885C319.48 123.915 319.496 123.954 319.496 123.996C319.496 124.037 319.48 124.077 319.451 124.107C318.993 124.664 318.416 125.112 317.763 125.417C317.11 125.722 316.397 125.877 315.676 125.87Z" fill="#263238"/>
<path d="M320.75 116.631C320.708 116.653 320.661 116.664 320.613 116.664C320.566 116.664 320.519 116.653 320.476 116.631C320.146 116.417 319.769 116.283 319.378 116.242C318.986 116.2 318.59 116.252 318.222 116.392C318.186 116.41 318.147 116.42 318.107 116.423C318.067 116.425 318.027 116.42 317.989 116.407C317.951 116.394 317.916 116.373 317.887 116.346C317.857 116.319 317.833 116.286 317.816 116.25C317.783 116.171 317.782 116.082 317.813 116.003C317.845 115.924 317.906 115.86 317.984 115.825C318.446 115.635 318.947 115.561 319.444 115.607C319.941 115.653 320.419 115.819 320.839 116.09C320.873 116.113 320.902 116.143 320.924 116.178C320.946 116.212 320.962 116.25 320.969 116.291C320.977 116.331 320.976 116.373 320.967 116.413C320.959 116.453 320.942 116.491 320.918 116.525C320.874 116.575 320.815 116.612 320.75 116.631Z" fill="#263238"/>
<path d="M311.265 114.859C311.218 114.848 311.175 114.823 311.141 114.789C311.112 114.76 311.089 114.725 311.073 114.687C311.057 114.649 311.049 114.608 311.049 114.567C311.049 114.526 311.057 114.485 311.073 114.447C311.089 114.409 311.112 114.374 311.141 114.346C311.48 113.965 311.902 113.667 312.375 113.477C312.847 113.286 313.357 113.208 313.864 113.247C313.905 113.253 313.944 113.268 313.979 113.29C314.013 113.312 314.043 113.341 314.067 113.375C314.09 113.409 314.106 113.447 314.113 113.488C314.121 113.528 314.121 113.57 314.112 113.61C314.093 113.692 314.045 113.765 313.976 113.813C313.908 113.862 313.824 113.885 313.74 113.876C313.339 113.851 312.937 113.917 312.564 114.071C312.192 114.224 311.86 114.461 311.592 114.762C311.552 114.807 311.5 114.84 311.442 114.857C311.385 114.874 311.323 114.875 311.265 114.859Z" fill="#263238"/>
<path d="M344.521 151.06L335.328 148.606C335.328 148.606 326.311 170.848 323.12 172.292C318.788 174.276 307.818 181.149 303.15 184.4C302.894 185.507 303.097 188.439 303.68 189.245C311.636 187.793 326.868 181.92 330.05 178.935C337.308 172.123 344.521 151.06 344.521 151.06Z" fill="#E58A7B"/>
<path d="M338.103 370.358C337.655 370.393 337.208 370.271 336.839 370.012C336.725 369.909 336.64 369.778 336.592 369.632C336.544 369.486 336.535 369.33 336.565 369.179C336.571 369.085 336.602 368.994 336.655 368.916C336.707 368.838 336.78 368.776 336.866 368.736C337.608 368.355 339.686 369.675 339.924 369.826C339.951 369.842 339.971 369.867 339.982 369.895C339.993 369.924 339.995 369.956 339.986 369.985C339.979 370.016 339.963 370.045 339.942 370.068C339.92 370.091 339.893 370.109 339.863 370.118C339.286 370.26 338.697 370.34 338.103 370.358ZM337.219 368.975C337.152 368.961 337.083 368.961 337.016 368.975C336.982 368.993 336.954 369.019 336.935 369.053C336.916 369.086 336.908 369.123 336.91 369.161C336.886 369.265 336.89 369.372 336.921 369.473C336.952 369.574 337.009 369.665 337.087 369.737C337.432 370.047 338.298 370.083 339.438 369.861C338.759 369.413 337.995 369.111 337.193 368.975H337.219Z" fill="#4CAF4F"/>
<path d="M339.818 370.119C339.795 370.126 339.771 370.126 339.748 370.119C339.085 369.747 337.838 368.285 338.024 367.54C338.052 367.422 338.118 367.317 338.213 367.242C338.307 367.166 338.425 367.125 338.545 367.124C338.664 367.108 338.785 367.118 338.899 367.153C339.014 367.188 339.119 367.248 339.208 367.328C339.942 367.957 339.986 369.888 339.986 369.986C339.991 370.015 339.985 370.045 339.971 370.07C339.956 370.096 339.934 370.116 339.907 370.128C339.877 370.134 339.846 370.131 339.818 370.119ZM338.634 367.416H338.572C338.369 367.416 338.342 367.532 338.333 367.576C338.227 368.01 339.014 369.118 339.668 369.64C339.665 368.892 339.434 368.162 339.005 367.549C338.903 367.46 338.77 367.412 338.634 367.416Z" fill="#4CAF4F"/>
<path d="M314.633 369.25C314.092 369.439 313.503 369.439 312.962 369.25C312.84 369.184 312.736 369.087 312.66 368.969C312.584 368.851 312.539 368.717 312.529 368.577C312.518 368.489 312.529 368.4 312.562 368.318C312.594 368.236 312.647 368.163 312.715 368.107C313.422 367.469 316.313 368.107 316.64 368.231C316.671 368.239 316.699 368.258 316.718 368.284C316.737 368.309 316.747 368.341 316.746 368.373C316.747 368.406 316.739 368.439 316.722 368.468C316.704 368.496 316.679 368.519 316.649 368.533C315.998 368.827 315.324 369.067 314.633 369.25ZM313.192 368.196C313.091 368.216 312.997 368.262 312.918 368.329C312.89 368.35 312.869 368.379 312.856 368.412C312.843 368.444 312.841 368.48 312.848 368.515C312.853 368.608 312.882 368.698 312.932 368.777C312.981 368.856 313.049 368.921 313.13 368.967C313.599 369.215 314.686 369.02 316.092 368.426C315.145 368.187 314.165 368.109 313.192 368.196Z" fill="#4CAF4F"/>
<path d="M316.622 368.533H316.551C315.667 368.374 313.899 367.355 313.846 366.593C313.846 366.416 313.926 366.168 314.35 366.026C314.494 365.975 314.646 365.953 314.798 365.962C314.949 365.971 315.098 366.011 315.234 366.079C316.189 366.549 316.693 368.25 316.719 368.33C316.726 368.356 316.725 368.384 316.717 368.411C316.709 368.437 316.695 368.461 316.675 368.48C316.662 368.502 316.644 368.52 316.622 368.533ZM314.527 366.292H314.439C314.165 366.389 314.165 366.504 314.165 366.54C314.165 367.001 315.446 367.842 316.339 368.126C316.134 367.414 315.698 366.791 315.102 366.354C314.924 366.263 314.72 366.241 314.527 366.292Z" fill="#4CAF4F"/>
<path d="M303.901 183.878L294.681 188.129L293.612 190.787L297.015 193.081C297.015 193.081 303.38 192.39 305.192 188.289L303.901 183.878Z" fill="#E58A7B"/>
<path d="M304.291 189.396C304.084 187.621 303.5 185.911 302.576 184.383L304.034 183.284C305.131 185.046 305.831 187.026 306.085 189.086L304.291 189.396Z" fill="#263238"/>
<path d="M305.864 185.136C306.059 185.443 306.155 185.803 306.138 186.167C306.122 186.531 305.994 186.88 305.772 187.169C305.55 187.457 305.245 187.67 304.898 187.778C304.551 187.887 304.18 187.885 303.834 187.775C303.488 187.664 303.184 187.449 302.964 187.159C302.744 186.869 302.619 186.518 302.605 186.154C302.591 185.79 302.69 185.431 302.887 185.125C303.084 184.819 303.37 184.582 303.707 184.445C304.085 184.252 304.523 184.216 304.927 184.346C305.331 184.475 305.668 184.759 305.864 185.136Z" fill="#263238"/>
<path d="M288.449 191.566L289.678 192.806L297.952 189.263L294.681 188.129L288.449 191.566Z" fill="#E58A7B"/>
<path opacity="0.2" d="M323.977 353.466C324.03 353.466 325.232 356.849 325.232 356.849L312.998 362.005L311.071 358.408L323.977 353.466Z" fill="black"/>
<path opacity="0.2" d="M348.985 357.761C349.038 357.761 349.392 361.171 349.392 361.171H335.991L335.036 357.256L348.985 357.761Z" fill="black"/>
<path d="M346.917 148.509C349.348 156.366 339.845 167.11 339.845 167.11L326.718 161.743C328.274 157.201 330.068 152.746 332.092 148.394C336.123 139.687 344.459 140.582 346.917 148.509Z" fill="#4CAF4F"/>
<path opacity="0.2" d="M346.917 148.509C349.348 156.366 339.845 167.11 339.845 167.11L326.718 161.743C328.274 157.201 330.068 152.746 332.092 148.394C336.123 139.687 344.459 140.582 346.917 148.509Z" fill="black"/>
<path d="M216.474 69.791H210.825V70.7036H216.474V69.791Z" fill="#4CAF4F"/>
<path d="M289.597 105.901L288.913 121.103L289.823 121.144L290.506 105.942L289.597 105.901Z" fill="#4CAF4F"/>
<path d="M287.839 73.8833H183.527L173.821 291.533H278.133L287.839 73.8833Z" fill="#4CAF4F"/>
<path opacity="0.56" d="M284.728 76.8772H180.416L170.709 294.527H275.021L284.728 76.8772Z" fill="#FAFAFA"/>
<path opacity="0.07" d="M281.616 79.8625H177.304L167.589 297.512H271.901L281.616 79.8625Z" fill="#4CAF4F"/>
<path d="M269.744 174.79H180.707L179.965 191.442H269.001L269.744 174.79Z" fill="white"/>
<path d="M229.672 162.637H181.247L180.919 170.086H229.345L229.672 162.637Z" fill="#4CAF4F"/>
<path d="M267.737 219.733H178.701L177.958 236.385H266.994L267.737 219.733Z" fill="white"/>
<path opacity="0.47" d="M251.409 258.875H191.536L190.643 278.831H250.517L251.409 258.875Z" fill="#4CAF4F"/>
<path d="M247.405 281.931H187.532C187.506 281.938 187.478 281.938 187.452 281.931C187.444 281.905 187.444 281.877 187.452 281.851L188.336 261.886C188.336 261.873 188.339 261.859 188.345 261.847C188.35 261.834 188.358 261.823 188.368 261.814C188.378 261.805 188.39 261.798 188.403 261.794C188.415 261.789 188.429 261.788 188.442 261.789H248.316C248.327 261.783 248.339 261.781 248.351 261.781C248.363 261.781 248.376 261.783 248.386 261.789C248.393 261.8 248.396 261.812 248.396 261.824C248.396 261.837 248.393 261.849 248.386 261.86L247.52 281.869C247.51 281.89 247.493 281.907 247.472 281.918C247.452 281.929 247.428 281.934 247.405 281.931ZM187.638 281.718H247.299L248.183 261.966H188.522L187.638 281.718Z" fill="white"/>
<path d="M219.214 207.58H179.24L178.913 215.038H218.878L219.214 207.58Z" fill="#4CAF4F"/>
<path d="M250.269 120.997C250.041 125.844 248.321 130.5 245.345 134.328C243.143 137.219 240.308 139.567 237.06 141.189C233.811 142.812 230.235 143.668 226.605 143.691C223.671 143.713 220.764 143.133 218.063 141.988C215.361 140.842 212.923 139.154 210.897 137.028C208.871 134.902 207.302 132.383 206.284 129.626C205.267 126.869 204.824 123.932 204.982 120.997C205.293 114.907 207.914 109.165 212.31 104.947C216.705 100.729 222.543 98.3527 228.629 98.3042C231.565 98.2767 234.475 98.8528 237.179 99.9967C239.884 101.141 242.326 102.828 244.354 104.955C246.382 107.082 247.953 109.603 248.971 112.362C249.988 115.121 250.43 118.06 250.269 120.997Z" fill="white"/>
<path d="M252.4 103.051C252.342 104.34 251.885 105.579 251.091 106.595C250.504 107.362 249.75 107.986 248.886 108.417C248.022 108.849 247.071 109.076 246.105 109.084C245.17 109.089 244.248 108.865 243.419 108.431C242.59 107.998 241.879 107.367 241.35 106.595C240.648 105.551 240.301 104.308 240.359 103.051C240.445 101.434 241.143 99.911 242.311 98.7917C243.479 97.6725 245.029 97.0418 246.645 97.0283C247.424 97.0212 248.197 97.1741 248.916 97.4776C249.634 97.7811 250.283 98.2288 250.822 98.7931C251.361 99.3574 251.779 100.026 252.051 100.759C252.322 101.491 252.441 102.271 252.4 103.051Z" fill="#4CAF4F"/>
<path d="M190.299 183.115C190.256 183.829 189.945 184.5 189.429 184.993C188.912 185.486 188.228 185.765 187.514 185.773C187.17 185.777 186.828 185.71 186.51 185.577C186.192 185.443 185.905 185.246 185.667 184.997C185.428 184.748 185.243 184.452 185.123 184.129C185.003 183.805 184.95 183.46 184.968 183.115C185.007 182.4 185.316 181.727 185.834 181.233C186.352 180.739 187.038 180.462 187.753 180.458C188.097 180.455 188.438 180.523 188.755 180.657C189.072 180.791 189.359 180.988 189.597 181.237C189.836 181.486 190.021 181.781 190.141 182.104C190.262 182.427 190.316 182.771 190.299 183.115Z" fill="#263238"/>
<path d="M202.215 183.115C202.175 183.83 201.864 184.502 201.347 184.996C200.83 185.489 200.145 185.767 199.43 185.773C199.087 185.776 198.746 185.708 198.429 185.574C198.112 185.44 197.826 185.242 197.589 184.994C197.351 184.745 197.167 184.45 197.047 184.127C196.928 183.804 196.875 183.459 196.893 183.115C196.931 182.402 197.24 181.73 197.756 181.236C198.271 180.742 198.956 180.464 199.669 180.458C200.014 180.454 200.355 180.521 200.673 180.654C200.991 180.788 201.278 180.985 201.517 181.234C201.755 181.483 201.94 181.779 202.06 182.102C202.181 182.426 202.233 182.771 202.215 183.115Z" fill="#263238"/>
<path d="M214.14 183.115C214.1 183.83 213.789 184.502 213.272 184.996C212.755 185.489 212.07 185.767 211.356 185.773C211.011 185.776 210.67 185.708 210.353 185.574C210.036 185.44 209.749 185.243 209.511 184.994C209.273 184.745 209.088 184.45 208.967 184.127C208.846 183.804 208.793 183.46 208.81 183.115C208.85 182.401 209.16 181.729 209.678 181.235C210.195 180.742 210.88 180.464 211.594 180.458C211.939 180.454 212.281 180.521 212.598 180.654C212.916 180.788 213.203 180.985 213.442 181.234C213.68 181.483 213.865 181.779 213.986 182.102C214.106 182.426 214.158 182.771 214.14 183.115Z" fill="#263238"/>
<path d="M188.292 228.059C188.25 228.773 187.939 229.444 187.422 229.937C186.905 230.43 186.221 230.709 185.507 230.716C185.163 230.719 184.822 230.651 184.505 230.518C184.188 230.384 183.901 230.186 183.663 229.937C183.425 229.689 183.239 229.394 183.119 229.071C182.998 228.748 182.945 228.403 182.962 228.059C183.002 227.344 183.312 226.672 183.829 226.179C184.347 225.685 185.032 225.407 185.746 225.402C186.09 225.399 186.431 225.466 186.749 225.6C187.066 225.734 187.352 225.932 187.591 226.181C187.829 226.429 188.014 226.724 188.135 227.047C188.255 227.37 188.309 227.715 188.292 228.059Z" fill="#263238"/>
<path d="M200.208 228.059C200.168 228.772 199.859 229.443 199.344 229.936C198.828 230.43 198.145 230.708 197.433 230.716C197.088 230.72 196.746 230.654 196.429 230.52C196.111 230.387 195.824 230.189 195.585 229.94C195.346 229.691 195.161 229.396 195.041 229.072C194.921 228.749 194.869 228.404 194.887 228.059C194.927 227.344 195.237 226.672 195.755 226.179C196.272 225.685 196.957 225.407 197.671 225.402C198.015 225.399 198.356 225.466 198.673 225.6C198.989 225.734 199.275 225.932 199.513 226.181C199.751 226.43 199.935 226.725 200.055 227.048C200.174 227.371 200.226 227.715 200.208 228.059Z" fill="#263238"/>
<path d="M212.16 228.059C212.12 228.773 211.809 229.446 211.292 229.939C210.775 230.433 210.09 230.711 209.375 230.716C209.032 230.718 208.691 230.649 208.374 230.515C208.058 230.38 207.772 230.183 207.534 229.935C207.296 229.686 207.11 229.392 206.989 229.069C206.868 228.747 206.814 228.403 206.83 228.059C206.872 227.345 207.183 226.674 207.7 226.181C208.216 225.688 208.901 225.409 209.614 225.402C209.959 225.397 210.3 225.464 210.618 225.598C210.936 225.731 211.223 225.928 211.462 226.178C211.7 226.427 211.885 226.722 212.005 227.046C212.126 227.369 212.178 227.714 212.16 228.059Z" fill="#263238"/>
<path d="M224.059 228.059C224.016 228.773 223.705 229.444 223.189 229.937C222.672 230.43 221.988 230.709 221.274 230.716C220.93 230.718 220.59 230.649 220.273 230.515C219.957 230.381 219.671 230.183 219.432 229.935C219.194 229.686 219.009 229.392 218.888 229.069C218.767 228.747 218.713 228.403 218.728 228.059C218.771 227.345 219.082 226.674 219.598 226.181C220.115 225.688 220.799 225.409 221.513 225.402C221.857 225.399 222.198 225.466 222.515 225.6C222.832 225.734 223.119 225.932 223.357 226.181C223.596 226.429 223.781 226.724 223.901 227.047C224.022 227.37 224.076 227.715 224.059 228.059Z" fill="#263238"/>
<path d="M236.028 228.059C235.986 228.773 235.675 229.444 235.158 229.937C234.641 230.43 233.957 230.709 233.243 230.716C232.899 230.72 232.557 230.654 232.239 230.52C231.922 230.387 231.635 230.189 231.396 229.94C231.157 229.691 230.972 229.396 230.852 229.072C230.732 228.749 230.679 228.404 230.697 228.059C230.738 227.344 231.048 226.672 231.565 226.179C232.083 225.685 232.768 225.407 233.482 225.402C233.826 225.399 234.167 225.466 234.485 225.6C234.802 225.734 235.088 225.932 235.327 226.181C235.565 226.429 235.75 226.724 235.871 227.047C235.991 227.37 236.045 227.715 236.028 228.059Z" fill="#263238"/>
<path d="M234.219 119.815C237.919 116.19 238.115 110.379 234.657 106.836C231.2 103.293 225.397 103.36 221.697 106.985C217.997 110.611 217.801 116.422 221.258 119.965C224.716 123.508 230.519 123.441 234.219 119.815Z" fill="#4CAF4F"/>
<path d="M245.345 134.328C243.143 137.219 240.309 139.566 237.06 141.189C233.811 142.812 230.235 143.668 226.605 143.691C223.085 143.72 219.611 142.882 216.491 141.249C213.371 139.617 210.699 137.24 208.713 134.328C213.009 130.041 219.807 127.242 227.338 127.242C234.87 127.242 241.429 130.041 245.345 134.328Z" fill="#4CAF4F"/>
<path opacity="0.1" d="M234.219 119.815C237.919 116.19 238.115 110.379 234.657 106.836C231.2 103.293 225.397 103.36 221.697 106.985C217.997 110.611 217.801 116.422 221.258 119.965C224.716 123.508 230.519 123.441 234.219 119.815Z" fill="white"/>
<path opacity="0.1" d="M245.345 134.328C243.143 137.219 240.309 139.566 237.06 141.189C233.811 142.812 230.235 143.668 226.605 143.691C223.085 143.72 219.611 142.882 216.491 141.249C213.371 139.617 210.699 137.24 208.713 134.328C213.009 130.041 219.807 127.242 227.338 127.242C234.87 127.242 241.429 130.041 245.345 134.328Z" fill="white"/>
<path d="M115.282 195.455C114.443 197.297 113.559 199.326 112.79 201.292C112.02 203.259 111.234 205.287 110.553 207.307C109.163 211.287 108.105 215.375 107.388 219.53L107.194 220.832C107.175 221.055 107.196 221.28 107.256 221.496C107.464 222.231 107.793 222.925 108.228 223.551C109.363 225.173 110.68 226.659 112.153 227.98C113.706 229.427 115.335 230.791 117.033 232.064C118.73 233.375 120.516 234.65 122.275 235.855L120.622 238.964C116.421 237.13 112.434 234.84 108.732 232.134C106.757 230.691 104.974 229 103.428 227.103C102.511 225.974 101.797 224.694 101.315 223.321C101.035 222.463 100.892 221.566 100.891 220.664C100.891 220.451 100.891 220.141 100.891 219.991V219.557L100.979 218.671C101.486 214.056 102.454 209.504 103.87 205.083C104.559 202.904 105.293 200.734 106.133 198.617C106.973 196.5 107.839 194.428 108.909 192.275L115.282 195.455Z" fill="#E58A7B"/>
<path d="M121.029 235.305L127.278 232.134L125.661 239.008C125.661 239.008 121.373 240.212 119.384 238.122L121.029 235.305Z" fill="#E58A7B"/>
<path d="M132.998 233.259L131.336 238.946L125.661 239.008L127.278 232.134L132.998 233.259Z" fill="#E58A7B"/>
<path d="M141.82 162.292C142.154 163.519 142.62 164.707 143.208 165.835C143.036 166.03 142.815 166.175 142.567 166.255C142.32 166.334 142.056 166.345 141.802 166.287L141.82 162.292Z" fill="#DF5753"/>
<path d="M141.635 162.345C142.001 162.345 142.298 161.889 142.298 161.327C142.298 160.764 142.001 160.308 141.635 160.308C141.268 160.308 140.972 160.764 140.972 161.327C140.972 161.889 141.268 162.345 141.635 162.345Z" fill="#263238"/>
<path d="M141.44 160.343L142.784 159.962C142.784 159.962 142.129 161.008 141.44 160.343Z" fill="#263238"/>
<path d="M124.556 168.793C125.36 172.912 126.164 180.468 123.283 183.222C123.283 183.222 124.414 187.403 132.061 187.403C140.468 187.403 136.074 183.222 136.074 183.222C131.486 182.124 131.601 178.714 132.405 175.507L124.556 168.793Z" fill="#E58A7B"/>
<path d="M122.319 159.404C122.743 166.287 122.779 169.21 126.244 172.744C131.469 178.058 139.813 176.039 141.449 169.201C142.925 163 141.988 152.796 135.261 150.059C133.784 149.45 132.177 149.228 130.591 149.414C129.004 149.601 127.492 150.19 126.196 151.125C124.901 152.061 123.865 153.312 123.186 154.761C122.508 156.21 122.209 157.808 122.319 159.404Z" fill="#E58A7B"/>
<path d="M123 151.662C119.552 152.92 114.955 151.981 116.759 162.637C118.668 173.921 115.733 177.633 115.733 177.633C115.733 177.633 128.808 180.423 142.156 177.464C142.156 177.464 138.081 170.325 139.221 165.064C140.68 158.42 139.531 155.967 139.531 155.967C139.531 155.967 127.844 149.891 123 151.662Z" fill="#263238"/>
<path d="M137.586 162.991C137.589 164.3 137.963 165.581 138.664 166.685C139.601 168.12 140.706 167.571 140.98 166.047C141.228 164.71 141.042 162.345 139.849 161.423C138.655 160.502 137.603 161.406 137.586 162.991Z" fill="#E58A7B"/>
<path d="M120.003 152.823C119.013 150.033 123.734 145.737 133.723 147.508C143.712 149.28 144.145 157.615 144.145 157.615L142.13 155.206L142.218 157.739L131.955 159.714L120.003 152.823Z" fill="#263238"/>
<path d="M120.852 183.691C120.793 183.287 120.894 182.875 121.133 182.545C121.373 182.214 121.731 181.99 122.133 181.92C125.245 181.406 132.317 180.361 135.871 180.857C138.523 181.229 139.212 182.77 139.327 184.037C139.345 184.259 139.316 184.482 139.24 184.691C139.165 184.9 139.046 185.091 138.891 185.251C138.736 185.41 138.549 185.535 138.342 185.615C138.135 185.696 137.914 185.732 137.692 185.72L122.328 185.029C121.966 185.011 121.621 184.867 121.352 184.624C121.083 184.38 120.906 184.051 120.852 183.691Z" fill="#4CAF4F"/>
<path opacity="0.6" d="M120.852 183.691C120.793 183.287 120.894 182.875 121.133 182.545C121.373 182.214 121.731 181.99 122.133 181.92C125.245 181.406 132.317 180.361 135.871 180.857C138.523 181.229 139.212 182.77 139.327 184.037C139.345 184.259 139.316 184.482 139.24 184.691C139.165 184.9 139.046 185.091 138.891 185.251C138.736 185.41 138.549 185.535 138.342 185.615C138.135 185.696 137.914 185.732 137.692 185.72L122.328 185.029C121.966 185.011 121.621 184.867 121.352 184.624C121.083 184.38 120.906 184.051 120.852 183.691Z" fill="black"/>
<path d="M129.736 338.434L135.438 342.403L144.976 329.444L139.274 325.485L129.736 338.434Z" fill="#E58A7B"/>
<path d="M116.441 338.177L122.461 341.614L130.903 327.911L124.883 324.475L116.441 338.177Z" fill="#E58A7B"/>
<path d="M144.967 329.444L140.052 336.123L134.35 332.163L139.265 325.485L144.967 329.444Z" fill="#CF6F64"/>
<path d="M124.874 324.475L130.903 327.92L126.553 334.98L120.525 331.534L124.874 324.475Z" fill="#CF6F64"/>
<path d="M134.545 226.952C134.545 226.952 156.804 255.058 152.623 281.94C149.255 303.651 129.718 333.049 129.718 333.049L120.534 328.478C127.007 315.48 132.532 302.028 137.064 288.229C138.462 283.945 138.87 279.399 138.257 274.934C137.645 270.469 136.028 266.201 133.528 262.454C122.248 245.952 104.18 255.775 116.335 226.952H134.545Z" fill="#4CAF4F"/>
<path opacity="0.6" d="M134.545 226.952C134.545 226.952 156.804 255.058 152.623 281.94C149.255 303.651 129.718 333.049 129.718 333.049L120.534 328.478C127.007 315.48 132.532 302.028 137.064 288.229C138.462 283.945 138.87 279.399 138.257 274.934C137.645 270.469 136.028 266.201 133.528 262.454C122.248 245.952 104.18 255.775 116.335 226.952H134.545Z" fill="black"/>
<path opacity="0.4" d="M145.462 245.004L142.227 241.78C142.227 242.037 148.494 280.807 150.254 291.702C151.292 288.519 152.087 285.262 152.631 281.958C154.7 268.769 150.377 255.297 145.462 245.004Z" fill="black"/>
<path d="M144.481 226.952C144.481 226.952 171.284 262.277 172.044 283.455C172.672 301.17 142.872 335.494 142.872 335.494L134.209 329.878C134.209 329.878 151.65 305.502 156.044 285.59C154.346 265.855 118.456 226.952 118.456 226.952H144.481Z" fill="#4CAF4F"/>
<path opacity="0.6" d="M144.481 226.952C144.481 226.952 171.284 262.277 172.044 283.455C172.672 301.17 142.872 335.494 142.872 335.494L134.209 329.878C134.209 329.878 151.65 305.502 156.044 285.59C154.346 265.855 118.456 226.952 118.456 226.952H144.481Z" fill="black"/>
<path d="M111.322 184.799C108.458 185.481 105.709 195.915 105.709 195.915L116.909 203.409C116.909 203.409 120.64 195.153 119.331 191.54C117.979 187.775 114.92 183.94 111.322 184.799Z" fill="#4CAF4F"/>
<path opacity="0.2" d="M113.514 191.522L112.737 200.619L116.9 203.418C118.05 200.824 118.901 198.108 119.437 195.322L113.514 191.522Z" fill="black"/>
<path d="M147.796 185.003C147.796 185.003 151.102 186.163 144.481 226.943H116.317C116.794 215.428 116.803 208.342 111.322 184.799C115.266 183.984 119.263 183.458 123.283 183.222C127.541 182.916 131.816 182.916 136.074 183.222C141.573 183.727 147.796 185.003 147.796 185.003Z" fill="#4CAF4F"/>
<path d="M150.66 191.522C151.297 193.293 151.969 195.198 152.676 197.031C153.383 198.865 154.055 200.751 154.771 202.611L156.937 208.174L157.485 209.565L157.768 210.256L157.9 210.601C157.9 210.663 157.9 210.663 157.9 210.654C157.739 210.426 157.527 210.238 157.281 210.105C156.932 209.899 156.537 209.78 156.132 209.759C155.795 209.749 155.461 209.812 155.151 209.946C154.744 210.132 154.744 210.211 154.753 210.202C154.827 210.143 154.892 210.075 154.948 209.999C155.437 209.355 155.86 208.663 156.212 207.935C156.627 207.12 157.025 206.252 157.423 205.375C158.201 203.603 158.917 201.77 159.633 199.919C160.349 198.067 161.03 196.198 161.693 194.312L163.708 188.661L167.111 189.546C166.44 193.585 165.573 197.518 164.53 201.522C164.026 203.515 163.434 205.49 162.762 207.483C162.426 208.484 162.055 209.476 161.631 210.495C161.188 211.6 160.644 212.662 160.004 213.666C159.769 214.004 159.509 214.323 159.226 214.622C158.775 215.111 158.227 215.5 157.617 215.765C157.076 215.998 156.491 216.107 155.902 216.084C155.243 216.059 154.602 215.867 154.037 215.526C153.371 215.109 152.818 214.534 152.428 213.852C152.296 213.621 152.181 213.391 152.101 213.223L151.933 212.886L151.597 212.195L150.925 210.822C150.041 208.98 149.157 207.12 148.388 205.251C147.619 203.382 146.806 201.486 146.046 199.582C145.285 197.678 144.605 195.773 143.959 193.718L150.66 191.522Z" fill="#E58A7B"/>
<path d="M147.796 185.003C151.182 185.809 154.992 195.836 154.992 195.836L144.923 204.419C144.923 204.419 138.408 193.488 139.725 189.883C141.095 186.128 143.376 183.949 147.796 185.003Z" fill="#4CAF4F"/>
<path d="M165.308 185.49L168.844 182.532L171.302 186.367L169.489 189.565C169.489 189.565 166.608 192.222 164.062 190.867C163.658 189.957 163.561 188.939 163.786 187.969C164.01 186.999 164.545 186.129 165.308 185.49Z" fill="#E58A7B"/>
<path d="M175.226 182.541L174.961 183.506L169.365 184.445L168.817 182.532L175.226 182.541Z" fill="#E58A7B"/>
<path d="M143.562 335.945L133.466 329.408L135.279 326.255L146.62 333.244L143.562 335.945Z" fill="#4CAF4F"/>
<path d="M126.412 341.154C125.526 341.046 124.675 340.743 123.919 340.268C123.888 340.257 123.861 340.237 123.842 340.21C123.823 340.183 123.812 340.151 123.812 340.118C123.812 340.084 123.823 340.052 123.842 340.025C123.861 339.998 123.888 339.978 123.919 339.967C124.193 339.878 126.571 339.143 127.261 339.71C127.338 339.774 127.397 339.859 127.431 339.954C127.465 340.049 127.474 340.151 127.455 340.25C127.443 340.41 127.39 340.564 127.302 340.697C127.214 340.83 127.093 340.939 126.951 341.012C126.786 341.103 126.601 341.152 126.412 341.154ZM124.423 340.18C125.528 340.747 126.412 340.95 126.836 340.738C126.929 340.686 127.006 340.612 127.062 340.522C127.118 340.432 127.15 340.33 127.155 340.224C127.155 340.082 127.155 340.02 127.075 339.985C126.704 339.683 125.378 339.914 124.405 340.18H124.423Z" fill="#263238"/>
<path d="M123.981 340.331C123.934 340.33 123.89 340.311 123.857 340.277C123.844 340.253 123.837 340.226 123.837 340.198C123.837 340.17 123.844 340.142 123.857 340.118C123.857 340.038 124.432 338.116 125.333 337.681C125.449 337.629 125.574 337.602 125.7 337.602C125.827 337.602 125.952 337.629 126.067 337.681C126.191 337.721 126.299 337.801 126.372 337.908C126.446 338.016 126.482 338.145 126.474 338.275C126.412 339.072 124.794 340.171 124.052 340.357L123.981 340.331ZM125.696 337.912C125.61 337.914 125.526 337.936 125.448 337.974C124.9 338.24 124.449 339.276 124.228 339.905C125.006 339.577 126.076 338.709 126.111 338.222C126.111 338.142 126.111 338.045 125.908 337.956C125.842 337.92 125.77 337.896 125.696 337.885V337.912Z" fill="#263238"/>
<path d="M139.027 344.981C138.028 344.981 136.64 343.696 135.88 342.908C135.86 342.881 135.85 342.848 135.85 342.815C135.85 342.781 135.86 342.749 135.88 342.722C135.897 342.693 135.922 342.67 135.951 342.654C135.981 342.639 136.014 342.631 136.048 342.633C136.401 342.633 139.469 343.094 139.902 343.962C139.948 344.04 139.972 344.129 139.972 344.219C139.972 344.309 139.948 344.398 139.902 344.476C139.837 344.611 139.739 344.728 139.617 344.814C139.494 344.901 139.352 344.955 139.203 344.972L139.027 344.981ZM136.463 343.032C137.577 344.113 138.558 344.715 139.115 344.644C139.213 344.631 139.305 344.595 139.386 344.538C139.466 344.481 139.531 344.405 139.575 344.316C139.594 344.286 139.605 344.251 139.605 344.215C139.605 344.178 139.594 344.143 139.575 344.113C139.345 343.634 137.709 343.227 136.463 343.032Z" fill="#263238"/>
<path d="M136.56 342.988C136.362 342.993 136.163 342.979 135.968 342.943C135.941 342.939 135.915 342.928 135.893 342.911C135.872 342.894 135.855 342.872 135.844 342.846C135.831 342.82 135.824 342.791 135.824 342.762C135.824 342.733 135.831 342.704 135.844 342.678C135.897 342.616 137.091 341.171 138.222 341.074C138.543 341.049 138.86 341.151 139.106 341.358C139.451 341.659 139.433 341.925 139.345 342.093C139.124 342.695 137.595 342.988 136.56 342.988ZM136.331 342.66C137.321 342.713 138.903 342.385 139.106 341.951C139.106 341.951 139.177 341.809 138.947 341.614C138.856 341.535 138.749 341.475 138.633 341.438C138.518 341.402 138.396 341.389 138.275 341.402C137.513 341.615 136.834 342.057 136.331 342.669V342.66Z" fill="#263238"/>
<path d="M124.22 339.373L116.723 337.247C116.594 337.208 116.455 337.218 116.333 337.275C116.21 337.332 116.113 337.433 116.06 337.557L113.532 343.253C113.473 343.399 113.445 343.555 113.45 343.713C113.456 343.87 113.494 344.025 113.564 344.166C113.633 344.308 113.731 344.433 113.852 344.533C113.974 344.634 114.114 344.708 114.266 344.75C116.918 345.441 118.191 345.635 121.488 346.583C123.521 347.15 126.421 348.204 129.223 349.001C132.025 349.798 132.962 347.061 131.875 346.477C126.96 343.873 126.571 342.048 125.227 340.099C124.987 339.746 124.63 339.489 124.22 339.373Z" fill="#4CAF4F"/>
<path d="M136.083 341.871L129.683 337.442C129.574 337.363 129.44 337.327 129.307 337.34C129.173 337.353 129.049 337.415 128.958 337.513L124.715 342.084C124.611 342.202 124.534 342.341 124.488 342.491C124.443 342.641 124.429 342.8 124.45 342.956C124.47 343.111 124.523 343.261 124.605 343.395C124.687 343.529 124.797 343.643 124.927 343.731C127.181 345.246 128.348 345.857 131.168 347.815C132.936 349.019 136.357 351.694 138.744 353.36C141.131 355.025 142.907 352.74 142.059 351.836C138.258 347.77 137.427 345.219 136.799 342.908C136.69 342.488 136.436 342.121 136.083 341.871Z" fill="#4CAF4F"/>
<path d="M130.894 333.634L119.358 327.885L120.551 324.75L132.874 330.808L130.894 333.634Z" fill="#4CAF4F"/>
<path d="M115.892 225.287L114.92 227.839C114.823 228.034 115.053 228.237 115.38 228.237H144.622C144.879 228.237 145.091 228.113 145.109 227.954L145.356 225.42C145.356 225.252 145.153 225.101 144.879 225.101H116.352C116.266 225.093 116.18 225.106 116.1 225.138C116.02 225.17 115.949 225.221 115.892 225.287Z" fill="#4CAF4F"/>
<path opacity="0.4" d="M115.892 225.287L114.92 227.839C114.823 228.034 115.053 228.237 115.38 228.237H144.622C144.879 228.237 145.091 228.113 145.109 227.954L145.356 225.42C145.356 225.252 145.153 225.101 144.879 225.101H116.352C116.266 225.093 116.18 225.106 116.1 225.138C116.02 225.17 115.949 225.221 115.892 225.287Z" fill="white"/>
<path d="M120.498 228.486H119.729C119.579 228.486 119.464 228.406 119.473 228.308L119.835 225.021C119.835 224.933 119.977 224.853 120.127 224.853H120.896C121.046 224.853 121.161 224.933 121.152 225.021L120.79 228.308C120.781 228.406 120.648 228.486 120.498 228.486Z" fill="#4CAF4F"/>
<path d="M138.532 228.486H137.771C137.621 228.486 137.506 228.406 137.515 228.308L137.869 225.021C137.869 224.933 138.019 224.853 138.169 224.853H138.93C139.08 224.853 139.204 224.933 139.186 225.021L138.832 228.308C138.788 228.406 138.691 228.486 138.532 228.486Z" fill="#4CAF4F"/>
<g style="mix-blend-mode:multiply">
<path d="M119.826 378.489C132.906 378.489 143.509 377.72 143.509 376.771C143.509 375.821 132.906 375.052 119.826 375.052C106.747 375.052 96.1438 375.821 96.1438 376.771C96.1438 377.72 106.747 378.489 119.826 378.489Z" fill="#F5F5F5"/>
</g>
<path d="M134.253 374.343C130.063 373.121 125.413 371.553 122.602 369.915C122.522 369.861 122.434 369.835 122.354 369.791V350.782H130.832C131.475 350.744 132.08 350.461 132.522 349.991C132.964 349.521 133.211 348.899 133.211 348.253C133.211 347.607 132.964 346.986 132.522 346.516C132.08 346.046 131.475 345.763 130.832 345.724H122.399V259.079H117.307V345.724H108.882C108.538 345.704 108.194 345.754 107.87 345.872C107.546 345.99 107.249 346.173 106.999 346.41C106.748 346.647 106.548 346.932 106.412 347.249C106.275 347.566 106.205 347.908 106.205 348.253C106.205 348.599 106.275 348.94 106.412 349.257C106.548 349.574 106.748 349.86 106.999 350.097C107.249 350.334 107.546 350.516 107.87 350.634C108.194 350.752 108.538 350.802 108.882 350.782H117.307V369.764C117.227 369.764 117.148 369.835 117.068 369.888C114.213 371.553 109.598 373.121 105.408 374.317C105.125 374.403 104.882 374.587 104.723 374.837C104.564 375.087 104.499 375.385 104.541 375.679C104.583 375.972 104.728 376.241 104.95 376.436C105.172 376.631 105.457 376.741 105.753 376.744H133.908C134.191 376.724 134.458 376.609 134.666 376.416C134.873 376.223 135.009 375.964 135.049 375.683C135.089 375.402 135.032 375.116 134.888 374.872C134.743 374.628 134.519 374.442 134.253 374.343Z" fill="#E0E0E0"/>
<path d="M135.552 250.257H104.117C101.588 250.257 99.5383 252.311 99.5383 254.845V264.208C99.5383 266.742 101.588 268.796 104.117 268.796H135.552C138.081 268.796 140.132 266.742 140.132 264.208V254.845C140.132 252.311 138.081 250.257 135.552 250.257Z" fill="#4CAF4F"/>
<path d="M103.826 268.804V270.417C103.826 271.745 105.267 272.826 107.035 272.826H132.671C134.439 272.826 135.88 271.745 135.88 270.417V268.804H103.826Z" fill="#4CAF4F"/>
<path opacity="0.3" d="M103.826 268.804V270.417C103.826 271.745 105.267 272.826 107.035 272.826H132.671C134.439 272.826 135.88 271.745 135.88 270.417V268.804H103.826Z" fill="white"/>
</svg>
