<svg width="219" height="40" viewBox="0 0 219 40" fill="none" xmlns="http://www.w3.org/2000/svg">
<path d="M13.6874 6.81226L20.2812 18.3513L26.8749 6.81226H13.6874Z" fill="white"/>
<path d="M9.57515 3.51562L18.6327 18.3515H0.5L9.57515 3.51562Z" fill="#4CAF4F"/>
<path d="M20.2653 21.6482L26.8749 33.1872H13.6874L20.2653 21.6482Z" fill="white"/>
<path d="M21.9296 21.6482L30.9959 36.4841L40.0623 21.6482H21.9296Z" fill="#4CAF4F"/>
<path d="M30.9872 3.51562L21.9296 18.3515H40.0623L30.9872 3.51562Z" fill="#4CAF4F"/>
<path d="M18.6328 21.6482L9.62892 36.4841L0.500019 21.6482H18.6328Z" fill="#4CAF4F"/>
<path d="M72.5268 16.2029H67.162C67.064 15.5043 66.8639 14.8838 66.5618 14.3414C66.2597 13.7907 65.8718 13.3223 65.3982 12.936C64.9246 12.5497 64.3775 12.2538 63.7569 12.0484C63.1445 11.8429 62.479 11.7402 61.7604 11.7402C60.4621 11.7402 59.3311 12.0648 58.3676 12.7141C57.404 13.3551 56.6569 14.2921 56.1261 15.5249C55.5953 16.7495 55.33 18.237 55.33 19.9876C55.33 21.7875 55.5953 23.2997 56.1261 24.5243C56.665 25.7489 57.4163 26.6735 58.3798 27.2981C59.3434 27.9227 60.458 28.235 61.7236 28.235C62.4341 28.235 63.0914 28.1405 63.6956 27.9515C64.3081 27.7625 64.8511 27.4872 65.3247 27.1255C65.7983 26.7557 66.1902 26.3078 66.5005 25.7818C66.819 25.2558 67.0395 24.6558 67.162 23.9819L72.5268 24.0065C72.388 25.1654 72.0409 26.2831 71.4857 27.3598C70.9386 28.4282 70.1996 29.3857 69.2687 30.2322C68.346 31.0705 67.2436 31.7362 65.9616 32.2293C64.6878 32.7142 63.2465 32.9567 61.6379 32.9567C59.4005 32.9567 57.3999 32.4471 55.6362 31.428C53.8806 30.4089 52.4924 28.9336 51.4717 27.0022C50.4592 25.0709 49.9529 22.7327 49.9529 19.9876C49.9529 17.2344 50.4673 14.892 51.4962 12.9607C52.5251 11.0293 53.9214 9.55812 55.6852 8.54723C57.4489 7.52811 59.4332 7.01855 61.6379 7.01855C63.0914 7.01855 64.4387 7.22402 65.6799 7.63496C66.9292 8.04589 68.0357 8.64585 68.9992 9.43484C69.9628 10.2156 70.7467 11.1731 71.3509 12.3073C71.9634 13.4414 72.3553 14.74 72.5268 16.2029Z" fill="white"/>
<path d="M84.7324 32.9813C82.8298 32.9813 81.1844 32.5745 79.7962 31.7609C78.4162 30.939 77.3506 29.7966 76.5994 28.3337C75.8482 26.8625 75.4725 25.1572 75.4725 23.2176C75.4725 21.2615 75.8482 19.552 76.5994 18.0891C77.3506 16.618 78.4162 15.4756 79.7962 14.6619C81.1844 13.8401 82.8298 13.4291 84.7324 13.4291C86.635 13.4291 88.2762 13.8401 89.6562 14.6619C91.0444 15.4756 92.1141 16.618 92.8653 18.0891C93.6166 19.552 93.9922 21.2615 93.9922 23.2176C93.9922 25.1572 93.6166 26.8625 92.8653 28.3337C92.1141 29.7966 91.0444 30.939 89.6562 31.7609C88.2762 32.5745 86.635 32.9813 84.7324 32.9813ZM84.7569 28.9131C85.6224 28.9131 86.3451 28.6665 86.9248 28.1734C87.5046 27.6721 87.9415 26.9899 88.2354 26.127C88.5376 25.264 88.6886 24.2819 88.6886 23.1806C88.6886 22.0793 88.5376 21.0971 88.2354 20.2342C87.9415 19.3712 87.5046 18.6891 86.9248 18.1877C86.3451 17.6864 85.6224 17.4357 84.7569 17.4357C83.8831 17.4357 83.1482 17.6864 82.5521 18.1877C81.9642 18.6891 81.5192 19.3712 81.2171 20.2342C80.9231 21.0971 80.7761 22.0793 80.7761 23.1806C80.7761 24.2819 80.9231 25.264 81.2171 26.127C81.5192 26.9899 81.9642 27.6721 82.5521 28.1734C83.1482 28.6665 83.8831 28.9131 84.7569 28.9131Z" fill="white"/>
<path d="M109.45 24.549V13.6757H114.668V32.6115H109.658V29.172H109.462C109.037 30.2815 108.331 31.1732 107.343 31.8472C106.363 32.5211 105.167 32.8581 103.754 32.8581C102.497 32.8581 101.39 32.5704 100.435 31.9951C99.4795 31.4198 98.7323 30.602 98.1934 29.5418C97.6626 28.4816 97.3932 27.2118 97.385 25.7325V13.6757H102.603V24.7955C102.611 25.9133 102.909 26.7968 103.497 27.4461C104.085 28.0953 104.873 28.42 105.861 28.42C106.49 28.42 107.078 28.2761 107.625 27.9885C108.172 27.6926 108.613 27.257 108.948 26.6817C109.291 26.1064 109.458 25.3955 109.45 24.549Z" fill="white"/>
<path d="M118.841 32.6115V13.6757H123.9V16.9796H124.096C124.439 15.8043 125.014 14.9167 125.823 14.3167C126.631 13.7086 127.562 13.4045 128.616 13.4045C128.877 13.4045 129.159 13.4209 129.461 13.4538C129.763 13.4866 130.028 13.5319 130.257 13.5894V18.2494C130.012 18.1754 129.673 18.1096 129.24 18.0521C128.807 17.9946 128.411 17.9658 128.052 17.9658C127.285 17.9658 126.599 18.1343 125.994 18.4713C125.398 18.8 124.925 19.2603 124.574 19.852C124.231 20.4438 124.059 21.1259 124.059 21.8985V32.6115H118.841Z" fill="white"/>
<path d="M132.857 32.6115V29.4802L142.067 18.0028V17.8672H133.175V13.6757H148.351V17.0905L139.703 28.2844V28.42H148.669V32.6115H132.857Z" fill="white"/>
<path d="M170.689 15.5249C170.517 14.9249 170.277 14.3948 169.966 13.9346C169.656 13.4661 169.276 13.0716 168.827 12.7511C168.386 12.4223 167.88 12.1717 167.308 11.9991C166.745 11.8265 166.12 11.7402 165.434 11.7402C164.152 11.7402 163.026 12.0607 162.054 12.7018C161.09 13.3428 160.339 14.2756 159.8 15.5002C159.261 16.7166 158.992 18.2042 158.992 19.963C158.992 21.7218 159.257 23.2176 159.788 24.4504C160.319 25.6832 161.07 26.6242 162.042 27.2735C163.013 27.9145 164.161 28.235 165.483 28.235C166.684 28.235 167.709 28.0214 168.558 27.594C169.415 27.1584 170.068 26.5461 170.518 25.7571C170.975 24.9681 171.203 24.0353 171.203 22.9587L172.281 23.1189H165.814V19.1H176.311V22.2806C176.311 24.4997 175.846 26.4064 174.915 28.0008C173.984 29.587 172.702 30.8116 171.069 31.6746C169.436 32.5293 167.566 32.9567 165.459 32.9567C163.107 32.9567 161.041 32.4348 159.261 31.391C157.481 30.339 156.093 28.8473 155.097 26.916C154.109 24.9763 153.615 22.6751 153.615 20.0123C153.615 17.9658 153.909 16.1413 154.497 14.5386C155.093 12.9278 155.925 11.5635 156.995 10.4457C158.065 9.328 159.31 8.47737 160.731 7.89384C162.152 7.31032 163.691 7.01855 165.349 7.01855C166.769 7.01855 168.092 7.22813 169.317 7.64728C170.542 8.05822 171.628 8.64174 172.575 9.39786C173.531 10.154 174.31 11.0539 174.915 12.0977C175.519 13.1332 175.907 14.2756 176.078 15.5249H170.689Z" fill="#4CAF4F"/>
<path d="M188.771 32.9813C186.836 32.9813 185.17 32.5868 183.773 31.7978C182.385 31.0006 181.316 29.8747 180.564 28.42C179.813 26.957 179.437 25.227 179.437 23.2299C179.437 21.2821 179.813 19.5726 180.564 18.1014C181.316 16.6303 182.373 15.4838 183.737 14.6619C185.108 13.8401 186.717 13.4291 188.563 13.4291C189.804 13.4291 190.959 13.6305 192.029 14.0332C193.107 14.4277 194.046 15.0235 194.846 15.8207C195.654 16.618 196.283 17.6206 196.732 18.8288C197.181 20.0287 197.406 21.4341 197.406 23.045V24.4873H181.52V21.2327H192.494C192.494 20.4766 192.331 19.8068 192.004 19.2233C191.678 18.6398 191.225 18.1836 190.645 17.8549C190.073 17.5179 189.408 17.3494 188.648 17.3494C187.856 17.3494 187.154 17.5343 186.542 17.9042C185.937 18.2658 185.464 18.7548 185.121 19.3712C184.778 19.9794 184.602 20.6574 184.594 21.4053V24.4997C184.594 25.4366 184.766 26.2461 185.108 26.9283C185.46 27.6104 185.954 28.1364 186.591 28.5063C187.227 28.8761 187.983 29.061 188.856 29.061C189.436 29.061 189.967 28.9788 190.449 28.8145C190.931 28.6501 191.343 28.4035 191.686 28.0748C192.029 27.746 192.29 27.3433 192.47 26.8666L197.296 27.1872C197.051 28.3542 196.549 29.3733 195.789 30.2445C195.038 31.1075 194.066 31.7814 192.874 32.2663C191.69 32.743 190.322 32.9813 188.771 32.9813Z" fill="#4CAF4F"/>
<path d="M206.029 21.6642V32.6115H200.811V13.6757H205.784V17.0166H206.004C206.421 15.9153 207.119 15.0441 208.099 14.403C209.079 13.7538 210.267 13.4291 211.663 13.4291C212.97 13.4291 214.109 13.7168 215.08 14.2921C216.052 14.8674 216.807 15.6892 217.346 16.7577C217.885 17.8179 218.155 19.0836 218.155 20.5547V32.6115H212.937V21.4916C212.945 20.3328 212.651 19.4287 212.055 18.7795C211.459 18.122 210.638 17.7932 209.593 17.7932C208.891 17.7932 208.27 17.9453 207.731 18.2494C207.201 18.5535 206.784 18.9973 206.482 19.5808C206.188 20.1561 206.037 20.8506 206.029 21.6642Z" fill="#4CAF4F"/>
</svg>
