<svg width="442" height="442" viewBox="0 0 442 442" fill="none" xmlns="http://www.w3.org/2000/svg">
<path d="M376.767 437.731C376.767 437.876 304.923 438 216.329 438C127.734 438 55.8591 437.876 55.8591 437.731C55.8591 437.586 127.693 437.461 216.329 437.461C304.965 437.461 376.767 437.596 376.767 437.731Z" fill="#263238"/>
<path d="M306.765 311.031C290.78 299.864 287.159 279.133 287.79 260.494C287.893 257.389 287.552 254.098 289.031 251.376C290.511 248.654 293.967 246.781 296.75 248.085C299.057 249.171 300.061 251.862 301.354 254.087C303.079 257.051 305.608 259.466 308.648 261.053C310.624 262.088 313.076 262.709 315.031 261.632C317.721 260.152 318.032 256.457 318.011 253.353C318.011 247.578 317.977 241.809 317.908 236.048C317.722 232.954 318.036 229.851 318.839 226.858C319.801 223.918 321.943 221.196 324.871 220.368C327.799 219.54 331.451 221.248 332.113 224.27C332.227 225.55 332.258 226.836 332.206 228.12C332.289 229.414 332.889 230.832 334.099 231.225C335.31 231.618 336.572 230.718 337.503 229.807C340.69 226.702 342.863 222.656 344.88 218.661C346.898 214.666 348.874 210.557 351.771 207.152C354.668 203.747 358.672 201.046 363.152 200.787C367.632 200.528 372.298 203.281 373.415 207.628C374.532 211.975 371.998 216.415 369.277 219.944C365.171 225.183 360.33 229.801 354.906 233.657C353.847 234.236 353.002 235.139 352.495 236.234C351.823 238.304 353.778 240.374 355.816 241.026C358.123 241.792 360.627 241.554 363.059 241.844C365.49 242.134 368.076 243.189 368.997 245.466C370.259 248.633 367.611 251.945 365.014 254.118C359.799 258.465 353.878 261.885 347.508 264.23C345.232 265.058 342.842 265.793 341 267.387C339.159 268.98 338.062 271.765 339.169 273.948C340.276 276.132 343.121 276.825 345.511 276.38C347.901 275.935 350.022 274.652 352.298 273.793C356.551 272.189 362.034 272.479 364.714 276.153C365.544 277.418 366.07 278.859 366.249 280.362C366.429 281.865 366.257 283.39 365.749 284.815C364.713 287.653 363.119 290.253 361.062 292.464C354.285 300.563 345.481 306.716 335.548 310.296C325.688 313.711 316.552 314.643 306.755 311.052" fill="#4CAF4F"/>
<path d="M368.863 203.343C368.863 203.343 368.77 203.447 368.563 203.633L367.642 204.451C366.835 205.175 365.645 206.231 364.145 207.628C359.891 211.579 355.942 215.844 352.329 220.389C350.022 223.256 347.632 226.506 345.087 230.035C342.542 233.564 339.914 237.373 337.307 241.419C334.527 245.687 331.982 250.102 329.682 254.646C328.481 257.016 327.426 259.49 326.34 262.015L323.133 269.725C318.905 279.438 315.223 289.378 312.103 299.501C309.591 307.784 307.859 316.283 306.93 324.889C306.329 330.696 306.232 336.545 306.641 342.369C306.806 344.439 306.961 346.023 307.106 347.099C307.168 347.616 307.21 348.03 307.251 348.331V348.755C307.207 348.62 307.175 348.482 307.158 348.341C307.106 348.041 307.044 347.637 306.961 347.12C306.775 346.085 306.579 344.449 306.392 342.38C305.893 336.545 305.928 330.676 306.496 324.847C307.367 316.205 309.061 307.666 311.555 299.346C314.648 289.195 318.32 279.229 322.553 269.498L325.843 261.818C326.93 259.303 327.995 256.809 329.206 254.429C331.522 249.871 334.088 245.445 336.893 241.171C339.542 237.031 342.211 233.285 344.725 229.786C347.239 226.288 349.671 223.018 351.967 220.161C355.616 215.629 359.619 211.393 363.938 207.493C365.469 206.117 366.69 205.082 367.518 204.389L368.48 203.612C368.598 203.51 368.726 203.419 368.863 203.343Z" fill="#263238"/>
<path d="M329.34 254.408C329.194 253.982 329.094 253.541 329.04 253.094C328.875 252.235 328.688 251.024 328.471 249.451C328.026 246.346 327.571 242.092 327.085 237.383C326.599 232.674 326.05 228.41 325.595 225.336C325.357 223.804 325.15 222.573 325.005 221.714C324.892 221.274 324.833 220.822 324.829 220.368C325.007 220.783 325.136 221.217 325.212 221.662C325.44 222.511 325.698 223.732 325.988 225.274C326.578 228.379 327.157 232.602 327.643 237.321C328.13 242.04 328.544 246.18 328.864 249.399C329.02 250.848 329.154 252.08 329.258 253.063C329.338 253.506 329.366 253.958 329.34 254.408Z" fill="#263238"/>
<path d="M369.152 246.977C368.649 247.087 368.136 247.149 367.621 247.163C366.587 247.257 365.117 247.381 363.296 247.588C359.655 247.981 354.647 248.705 349.153 249.74C343.659 250.775 338.724 251.945 335.176 252.845C333.406 253.301 331.979 253.715 331.037 253.994C330.534 254.173 330.014 254.298 329.485 254.367C329.963 254.126 330.462 253.929 330.975 253.777C331.947 253.435 333.355 252.959 335.113 252.452C338.641 251.417 343.577 250.185 349.091 249.13C353.762 248.236 358.476 247.58 363.214 247.163C365.045 247.008 366.524 246.946 367.559 246.925C368.091 246.889 368.624 246.907 369.152 246.977Z" fill="#263238"/>
<path d="M312.062 298.622C311.952 298.472 311.861 298.309 311.793 298.135L311.11 296.697C310.521 295.445 309.724 293.592 308.772 291.325C306.848 286.772 304.396 280.396 301.788 273.317C299.181 266.238 296.781 259.863 294.96 255.257C294.07 253.022 293.336 251.19 292.787 249.824L292.208 248.344C292.127 248.173 292.072 247.992 292.042 247.805C292.153 247.955 292.243 248.119 292.311 248.292L292.994 249.73C293.573 250.983 294.38 252.835 295.332 255.102C297.257 259.656 299.709 266.031 302.316 273.11C304.923 280.189 307.324 286.565 309.145 291.17C310.034 293.406 310.769 295.238 311.307 296.604C311.545 297.194 311.741 297.639 311.897 298.084C311.977 298.254 312.033 298.436 312.062 298.622Z" fill="#263238"/>
<path d="M364.91 281.576C364.745 281.671 364.567 281.744 364.383 281.793L362.852 282.311L357.192 284.143C352.412 285.695 345.811 287.91 338.569 290.352C331.327 292.795 324.695 294.968 319.884 296.417C317.483 297.152 315.528 297.711 314.173 298.084L312.61 298.487C312.429 298.545 312.242 298.583 312.052 298.601C312.217 298.506 312.395 298.433 312.579 298.384L314.111 297.866L319.77 296.034C324.55 294.482 331.151 292.267 338.393 289.825C345.636 287.382 352.257 285.209 357.068 283.76C359.479 283.025 361.424 282.466 362.789 282.093L364.352 281.69C364.533 281.632 364.721 281.594 364.91 281.576Z" fill="#263238"/>
<path d="M343.349 30.526L338.021 32.4304L335.734 25.4651C331.534 12.6213 318.146 5.80088 305.844 10.1374C293.542 14.4738 286.993 28.5596 291.194 41.4035L293.48 48.3687L288.131 50.2834C286.092 51.0748 284.435 52.622 283.507 54.6034C282.578 56.5849 282.448 58.8481 283.144 60.9228L297.971 106.244C298.278 107.271 298.789 108.225 299.473 109.051C300.157 109.876 301 110.556 301.951 111.049C302.903 111.543 303.944 111.84 305.013 111.923C306.081 112.006 307.156 111.873 308.172 111.532L363.39 91.7749C365.456 90.9849 367.136 89.424 368.076 87.4204C369.015 85.4169 369.142 83.1268 368.428 81.032L353.592 35.7112C353.276 34.687 352.757 33.737 352.066 32.9178C351.376 32.0986 350.527 31.427 349.571 30.9431C348.615 30.4592 347.571 30.1728 346.502 30.1012C345.433 30.0295 344.361 30.174 343.349 30.526ZM301.261 37.7707C300.128 34.4312 300.331 30.7827 301.828 27.5897C303.325 24.3967 305.998 21.907 309.289 20.6422C310.914 20.086 312.635 19.863 314.348 19.9864C316.061 20.1098 317.731 20.5772 319.26 21.3605C320.788 22.1439 322.143 23.2272 323.244 24.5459C324.345 25.8645 325.169 27.3915 325.667 29.0357L327.943 36.001L303.537 44.736L301.261 37.7707ZM332.299 77.9892L336.086 89.5601C336.155 89.7921 336.133 90.042 336.023 90.2578C335.913 90.4737 335.725 90.6389 335.496 90.7192L330.189 92.6132C329.977 92.6718 329.752 92.6463 329.559 92.5421C329.366 92.4379 329.221 92.2631 329.154 92.0543L325.336 80.5352C323.231 80.4205 321.211 79.6652 319.547 78.3704C317.883 77.0757 316.654 75.3033 316.025 73.2905C315.125 70.6296 315.289 67.7236 316.483 65.181C317.676 62.6383 319.807 60.6563 322.429 59.6498C323.723 59.2074 325.094 59.0302 326.458 59.1287C327.822 59.2273 329.153 59.5996 330.37 60.2235C331.588 60.8474 332.667 61.7101 333.544 62.7602C334.421 63.8103 335.078 65.0262 335.475 66.3356C336.141 68.3802 336.196 70.5746 335.634 72.6501C335.072 74.7255 333.916 76.5918 332.31 78.0203L332.299 77.9892Z" fill="#4CAF4F"/>
<path d="M337.783 32.3059C337.783 32.4508 327.902 36.1663 315.611 40.5856C303.32 45.0049 293.294 48.5548 293.242 48.4513C293.191 48.3478 303.123 44.6012 315.425 40.1716C327.726 35.742 337.731 32.1714 337.783 32.3059Z" fill="#263238"/>
<path d="M349.515 34.2102C349.561 34.3 349.599 34.3935 349.629 34.4896C349.712 34.6966 349.805 34.9657 349.929 35.2969C350.198 36.0524 350.571 37.0977 351.036 38.4018L355.009 49.9726C356.665 54.8783 358.641 60.6948 360.834 67.1529C361.869 70.3924 363.09 73.7663 364.228 77.3162C364.837 79.1456 365.1 81.0724 365.004 82.9981C364.916 83.9997 364.631 84.974 364.166 85.865C363.668 86.753 363.004 87.5367 362.21 88.1729C360.612 89.3401 358.838 90.245 356.954 90.8535L351.626 92.7682L341.538 96.3802L324.457 102.466L312.921 106.523L309.817 107.558L308.989 107.827C308.901 107.866 308.806 107.891 308.71 107.899C308.71 107.899 308.793 107.899 308.969 107.775L309.776 107.454L312.879 106.285L324.353 102.062L341.404 95.8523L351.471 92.2093L356.799 90.2843C358.629 89.7005 360.351 88.8232 361.9 87.6865C362.639 87.0961 363.257 86.3687 363.721 85.5441C364.159 84.7201 364.423 83.8147 364.497 82.8843C364.592 81.0288 364.339 79.1719 363.752 77.4094C362.634 73.8905 361.455 70.4855 360.389 67.2461C358.237 60.7776 356.251 54.9404 354.678 50.0347C353.105 45.129 351.781 41.1858 350.871 38.4121C350.436 37.0563 350.105 36.0007 349.836 35.2348L349.588 34.4068C349.557 34.3441 349.532 34.2782 349.515 34.2102Z" fill="#263238"/>
<path d="M320.38 19.9382C320.38 19.9382 319.832 19.6691 318.818 19.2551C317.373 18.6997 315.844 18.3918 314.297 18.3444C312.003 18.2657 309.72 18.6969 307.613 19.607C305.051 20.7403 302.86 22.5733 301.292 24.8957C299.713 27.2114 298.866 29.9481 298.86 32.751C298.882 35.0483 299.23 37.3309 299.895 39.53C300.433 41.4136 300.992 42.9143 301.364 43.9596C301.584 44.4906 301.764 45.0371 301.902 45.5948C301.608 45.0984 301.362 44.5751 301.167 44.0321C300.743 42.9971 300.133 41.5275 299.533 39.6335C298.796 37.4113 298.395 35.0916 298.343 32.751C298.315 29.8422 299.182 26.9951 300.826 24.5955C302.449 22.1883 304.729 20.2986 307.396 19.1516C309.569 18.2366 311.923 17.8329 314.276 17.9718C315.857 18.0524 317.41 18.4207 318.859 19.0585C319.247 19.2373 319.62 19.4449 319.977 19.6795C320.124 19.7442 320.26 19.8315 320.38 19.9382Z" fill="#263238"/>
<path d="M320.856 60.4361C321.022 60.336 321.195 60.2495 321.374 60.1774C321.892 59.9436 322.428 59.7532 322.977 59.6081C323.849 59.3507 324.749 59.1978 325.657 59.1527C326.892 59.0863 328.128 59.273 329.289 59.7013C331.937 60.6327 334.369 63.334 335.569 66.946C336.144 68.8844 336.144 70.9483 335.569 72.8866C334.931 74.9905 333.787 76.9058 332.237 78.4651L332.299 78.1856C333.675 81.9632 335.176 86.0617 336.728 90.336L336.821 90.5948L336.562 90.6879L334.193 91.4745L329.02 93.2029L328.761 93.2857L328.678 93.0269C327.261 88.7422 325.709 84.7473 324.54 80.8248L324.767 81.0007C322.745 80.8327 320.816 80.0732 319.222 78.817C317.779 77.7056 316.596 76.2928 315.756 74.6771C314.997 73.2443 314.62 71.6406 314.659 70.0198C314.707 68.3633 315.12 66.7379 315.87 65.26C316.619 63.782 317.686 62.4882 318.994 61.4711C319.533 61.0339 320.137 60.6846 320.784 60.4361C320.2 60.783 319.633 61.1595 319.087 61.5642C317.651 62.7801 316.55 64.3445 315.89 66.1077C315.324 67.4372 315.059 68.8756 315.115 70.3197C315.17 71.7637 315.545 73.1776 316.211 74.4598C317.038 76.0141 318.192 77.3701 319.594 78.434C321.115 79.6281 322.954 80.348 324.881 80.5039H325.057L325.109 80.6592C326.247 84.5092 327.809 88.5352 329.247 92.8406L328.906 92.6751L334.079 90.9467L336.438 90.1498L336.272 90.5016C334.731 86.2273 333.241 82.1185 331.875 78.3409V78.1856L331.999 78.0614C333.503 76.5668 334.625 74.7313 335.269 72.7107C335.817 70.8565 335.817 68.883 335.269 67.0288C334.141 63.5513 331.813 60.9122 329.289 59.9807C328.171 59.5497 326.978 59.349 325.781 59.3908C324.888 59.4113 323.999 59.5328 323.133 59.753C321.591 60.136 320.867 60.4878 320.856 60.4361Z" fill="#263238"/>
<path d="M288.876 359.27L185.528 358.794C179.56 358.761 173.849 356.36 169.649 352.118C165.449 347.876 163.104 342.14 163.129 336.17L164.225 77.0061C164.238 74.0483 164.832 71.1218 165.976 68.394C167.119 65.6663 168.789 63.1907 170.889 61.1088C172.99 59.0269 175.48 57.3795 178.217 56.2607C180.954 55.142 183.885 54.5739 186.842 54.5889L290.18 55.065C296.148 55.0951 301.861 57.4936 306.062 61.7336C310.264 65.9737 312.612 71.7086 312.59 77.6788L311.493 336.832C311.481 339.791 310.886 342.719 309.743 345.448C308.6 348.177 306.93 350.654 304.83 352.737C302.73 354.821 300.24 356.47 297.503 357.591C294.765 358.712 291.834 359.283 288.876 359.27Z" fill="#455A64"/>
<path d="M290.025 63.9757H269.995C269.341 63.9878 268.696 64.1286 268.097 64.3901C267.498 64.6515 266.956 65.0284 266.503 65.4994C266.049 65.9703 265.693 66.526 265.454 67.1347C265.215 67.7434 265.099 68.3932 265.111 69.047V72.6797C265.124 73.333 265.007 73.9823 264.768 74.5904C264.529 75.1985 264.173 75.7535 263.719 76.2236C263.265 76.6937 262.724 77.0697 262.125 77.33C261.525 77.5903 260.881 77.7299 260.228 77.7406L221.181 77.5647C219.86 77.5295 218.607 76.9713 217.698 76.0126C216.788 75.054 216.296 73.7734 216.329 72.452V68.8193C216.362 67.4996 215.871 66.2205 214.964 65.2622C214.056 64.3039 212.806 63.7445 211.487 63.7066H204.441L186.904 63.6238C182.733 63.599 178.722 65.2285 175.749 68.1556C172.777 71.0827 171.085 75.0689 171.044 79.2413L170.009 332.206C169.999 334.276 170.398 336.327 171.181 338.243C171.964 340.159 173.116 341.902 174.573 343.373C176.029 344.843 177.761 346.012 179.669 346.813C181.577 347.614 183.625 348.031 185.694 348.041L288.825 348.517C290.895 348.526 292.948 348.128 294.864 347.344C296.781 346.56 298.524 345.406 299.995 343.948C301.466 342.49 302.636 340.757 303.437 338.847C304.238 336.937 304.655 334.888 304.665 332.817L305.699 79.852C305.724 75.6678 304.087 71.645 301.148 68.6679C298.208 65.6908 294.208 64.0031 290.025 63.9757Z" fill="white"/>
<path d="M276.151 314.767L199.465 314.436C198.668 314.436 198.026 313.567 198.037 312.511L198.12 292.443C198.12 291.408 198.771 290.518 199.568 290.518L276.254 290.87C276.695 290.946 277.09 291.19 277.356 291.551C277.622 291.911 277.739 292.361 277.682 292.805L277.609 312.852C277.609 313.918 276.947 314.777 276.151 314.767Z" fill="#4CAF4F"/>
<path d="M222.826 304.578C221.924 304.578 221.013 304.31 220.509 303.919L220.956 302.927C221.436 303.277 222.151 303.521 222.834 303.521C223.615 303.521 223.932 303.261 223.932 302.911C223.932 301.846 220.623 302.578 220.623 300.464C220.623 299.496 221.403 298.691 223.021 298.691C223.737 298.691 224.469 298.862 224.997 299.195L224.591 300.195C224.062 299.894 223.517 299.748 223.013 299.748C222.233 299.748 221.932 300.041 221.932 300.399C221.932 301.447 225.241 300.724 225.241 302.814C225.241 303.765 224.452 304.578 222.826 304.578ZM226.141 304.48V298.789H227.458V304.48H226.141ZM232.729 298.789H234.03V304.48H232.948L230.11 301.025V304.48H228.809V298.789H229.899L232.729 302.244V298.789ZM239.222 303.212V301.545H240.426V303.854C239.8 304.326 238.938 304.578 238.125 304.578C236.336 304.578 235.018 303.35 235.018 301.635C235.018 299.919 236.336 298.691 238.149 298.691C239.149 298.691 239.979 299.033 240.531 299.675L239.686 300.455C239.271 300.016 238.791 299.813 238.214 299.813C237.108 299.813 236.352 300.553 236.352 301.635C236.352 302.7 237.108 303.456 238.198 303.456C238.556 303.456 238.889 303.391 239.222 303.212ZM246.481 304.578C244.863 304.578 243.903 303.651 243.903 301.976V298.789H245.221V301.927C245.221 303.009 245.692 303.456 246.489 303.456C247.294 303.456 247.758 303.009 247.758 301.927V298.789H249.059V301.976C249.059 303.651 248.099 304.578 246.481 304.578ZM252.824 298.789C254.345 298.789 255.296 299.577 255.296 300.854C255.296 302.122 254.345 302.911 252.824 302.911H251.678V304.48H250.36V298.789H252.824ZM252.751 301.838C253.556 301.838 253.963 301.472 253.963 300.854C253.963 300.228 253.556 299.862 252.751 299.862H251.678V301.838H252.751Z" fill="#E8E8E3"/>
<path d="M214.761 138.338L188.15 138.217L188.128 143.102L214.738 143.223L214.761 138.338Z" fill="#4CAF4F"/>
<path opacity="0.1" d="M214.761 138.338L188.15 138.217L188.128 143.102L214.738 143.223L214.761 138.338Z" fill="black"/>
<path d="M292.767 168.331C292.976 168.31 293.181 168.261 293.377 168.186C293.663 168.074 293.912 167.883 294.095 167.636C294.278 167.389 294.388 167.095 294.412 166.789C294.412 165.143 294.412 162.742 294.412 159.658C294.412 158.116 294.412 156.387 294.412 154.483C294.412 154.017 294.412 153.531 294.412 153.044C294.479 152.572 294.376 152.092 294.122 151.689C293.979 151.495 293.794 151.338 293.581 151.228C293.367 151.119 293.131 151.06 292.891 151.057H291.277H276.326L189.791 150.737C189.569 150.733 189.35 150.783 189.152 150.882C188.954 150.981 188.783 151.126 188.653 151.306C188.403 151.711 188.307 152.192 188.384 152.662C188.384 153.697 188.384 154.731 188.384 155.766C188.384 157.836 188.384 159.906 188.384 161.976C188.384 163.011 188.384 164.046 188.384 165.081C188.341 165.563 188.341 166.048 188.384 166.53C188.438 166.737 188.539 166.928 188.679 167.09C188.819 167.251 188.994 167.378 189.191 167.461C189.395 167.543 189.613 167.581 189.832 167.575H195.098L218.077 167.7L256.979 167.938L283.207 168.145L290.335 168.227H292.187C292.611 168.227 292.818 168.227 292.818 168.227H292.187H290.335H283.207H256.979L218.077 168.103L195.098 168.01H189.832C189.542 168.022 189.253 167.972 188.984 167.865C188.711 167.749 188.469 167.572 188.275 167.348C188.082 167.123 187.942 166.858 187.866 166.571C187.807 166.3 187.786 166.021 187.804 165.743V164.978C187.804 163.943 187.804 162.908 187.804 161.873C187.804 159.803 187.804 157.733 187.804 155.663C187.804 154.628 187.804 153.593 187.804 152.558C187.785 152.282 187.785 152.006 187.804 151.73C187.843 151.426 187.961 151.137 188.146 150.892C188.324 150.642 188.56 150.439 188.834 150.3C189.108 150.161 189.411 150.091 189.718 150.095L276.254 150.571L291.204 150.674H292.818C293.103 150.675 293.383 150.743 293.635 150.875C293.887 151.006 294.104 151.197 294.267 151.43C294.558 151.88 294.676 152.421 294.598 152.951C294.598 153.438 294.598 153.924 294.598 154.39C294.598 156.274 294.598 158.002 294.598 159.565C294.598 162.67 294.525 165.05 294.505 166.706C294.479 167.024 294.364 167.329 294.171 167.584C293.979 167.839 293.718 168.033 293.418 168.145C293.223 168.266 292.997 168.33 292.767 168.331Z" fill="#E0E0E0"/>
<path d="M244.812 155.932H196.143V160.496H244.812V155.932Z" fill="#4CAF4F"/>
<path opacity="0.2" d="M244.812 155.932H196.143V160.496H244.812V155.932Z" fill="white"/>
<path d="M214.579 182.902L187.969 182.781L187.947 187.666L214.557 187.787L214.579 182.902Z" fill="#4CAF4F"/>
<path opacity="0.1" d="M214.579 182.902L187.969 182.781L187.947 187.666L214.557 187.787L214.579 182.902Z" fill="black"/>
<path d="M292.094 212.896C292.303 212.871 292.51 212.833 292.715 212.782C293.004 212.69 293.27 212.538 293.495 212.334C293.719 212.13 293.898 211.881 294.018 211.603C294.181 211.185 294.245 210.735 294.205 210.288C294.205 209.791 294.205 209.253 294.205 208.653C294.205 207.452 294.205 206.086 294.205 204.513V197.941C294.254 197.465 294.149 196.986 293.905 196.575C293.649 196.153 293.248 195.84 292.777 195.695C292.262 195.603 291.737 195.575 291.215 195.612H276.326L190.091 195.292C189.627 195.293 189.179 195.462 188.831 195.769C188.483 196.075 188.258 196.498 188.197 196.958C188.197 197.941 188.197 199.028 188.197 200.063C188.197 202.133 188.197 204.203 188.197 206.273C188.197 207.308 188.197 208.342 188.197 209.377C188.159 209.861 188.18 210.348 188.26 210.826C188.389 211.246 188.655 211.61 189.015 211.861C189.397 212.104 189.846 212.22 190.298 212.193H191.736H194.726L217.622 212.306L256.389 212.544L282.524 212.751L289.632 212.834H282.524H256.389L217.601 212.793L194.705 212.71H190.205C189.645 212.743 189.09 212.594 188.622 212.286C188.151 211.959 187.807 211.48 187.649 210.93C187.556 210.404 187.529 209.869 187.566 209.336C187.566 208.301 187.566 207.266 187.566 206.231C187.566 204.161 187.566 202.091 187.566 200.021C187.566 198.986 187.566 197.951 187.566 196.917C187.642 196.325 187.93 195.781 188.378 195.386C188.825 194.992 189.401 194.774 189.998 194.774L276.233 195.25L291.121 195.364C291.676 195.33 292.232 195.368 292.777 195.478C293.314 195.654 293.768 196.022 294.049 196.513C294.317 196.969 294.433 197.498 294.381 198.024C294.381 198.51 294.381 198.986 294.381 199.463C294.381 201.336 294.381 203.054 294.381 204.637C294.381 206.221 294.381 207.556 294.381 208.777C294.381 209.367 294.381 209.916 294.381 210.423C294.418 210.886 294.344 211.351 294.163 211.779C294.029 212.064 293.835 212.317 293.594 212.521C293.353 212.725 293.07 212.874 292.767 212.958C292.54 212.977 292.313 212.956 292.094 212.896Z" fill="#E0E0E0"/>
<path d="M214.378 229.401L187.768 229.281L187.746 234.165L214.356 234.286L214.378 229.401Z" fill="#4CAF4F"/>
<path opacity="0.1" d="M214.378 229.401L187.768 229.281L187.746 234.165L214.356 234.286L214.378 229.401Z" fill="black"/>
<path d="M291.887 259.376C292.096 259.351 292.303 259.313 292.508 259.262C292.795 259.171 293.06 259.019 293.285 258.818C293.51 258.616 293.689 258.369 293.811 258.093C293.973 257.675 294.037 257.225 293.998 256.778C293.998 256.271 293.998 255.743 293.998 255.133C293.998 253.943 293.998 252.566 293.998 250.993V244.421C294.047 243.945 293.942 243.466 293.697 243.055C293.436 242.641 293.037 242.333 292.57 242.185C292.055 242.09 291.53 242.058 291.007 242.092H276.119L189.884 241.771C189.42 241.773 188.972 241.942 188.624 242.249C188.276 242.555 188.051 242.978 187.99 243.438C187.99 244.473 187.99 245.508 187.99 246.543C187.99 248.612 187.99 250.682 187.99 252.752C187.99 253.787 187.99 254.822 187.99 255.857C187.952 256.337 187.973 256.821 188.052 257.296C188.176 257.718 188.443 258.084 188.808 258.331C189.188 258.579 189.638 258.695 190.091 258.662H194.591L217.487 258.786L256.255 259.024L282.389 259.231L289.497 259.314H282.389H256.255L217.487 259.2L194.591 259.107H190.091C189.531 259.145 188.974 258.996 188.508 258.683C188.037 258.356 187.693 257.877 187.535 257.327C187.442 256.801 187.415 256.266 187.452 255.733C187.452 254.698 187.452 253.663 187.452 252.628C187.452 250.558 187.452 248.488 187.452 246.418C187.452 245.383 187.452 244.348 187.452 243.262C187.526 242.671 187.812 242.127 188.258 241.732C188.704 241.338 189.278 241.12 189.873 241.119L276.109 241.595L290.997 241.709C291.552 241.675 292.108 241.714 292.653 241.823C293.19 241.999 293.643 242.368 293.925 242.858C294.193 243.314 294.309 243.843 294.256 244.369C294.256 244.856 294.256 245.342 294.256 245.808C294.256 247.681 294.256 249.399 294.256 250.983C294.256 252.566 294.256 253.901 294.256 255.122C294.256 255.712 294.256 256.261 294.256 256.768C294.296 257.231 294.221 257.696 294.039 258.124C293.905 258.409 293.71 258.663 293.469 258.866C293.228 259.07 292.946 259.219 292.642 259.304C292.4 259.387 292.141 259.411 291.887 259.376Z" fill="#E0E0E0"/>
<path d="M243.773 201.788L195.105 201.567L195.084 206.131L243.752 206.352L243.773 201.788Z" fill="#4CAF4F"/>
<path opacity="0.2" d="M243.773 201.788L195.105 201.567L195.084 206.131L243.752 206.352L243.773 201.788Z" fill="white"/>
<path d="M199.506 250.931C199.475 251.347 199.323 251.745 199.069 252.076C198.814 252.407 198.468 252.655 198.073 252.791C197.679 252.927 197.253 252.944 196.849 252.839C196.445 252.735 196.08 252.515 195.8 252.205C195.52 251.896 195.337 251.511 195.274 251.098C195.21 250.686 195.27 250.264 195.444 249.884C195.618 249.505 195.9 249.185 196.254 248.965C196.608 248.744 197.02 248.633 197.437 248.644C198.013 248.676 198.554 248.934 198.941 249.362C199.328 249.79 199.531 250.354 199.506 250.931Z" fill="#4CAF4F"/>
<path d="M206.096 250.962C206.117 251.254 206.077 251.546 205.979 251.822C205.882 252.098 205.728 252.351 205.529 252.564C205.329 252.778 205.088 252.949 204.82 253.066C204.552 253.182 204.263 253.242 203.97 253.242C203.678 253.242 203.389 253.182 203.12 253.066C202.852 252.949 202.611 252.778 202.412 252.564C202.212 252.351 202.059 252.098 201.961 251.822C201.864 251.546 201.824 251.254 201.844 250.962C201.824 250.67 201.864 250.377 201.961 250.102C202.059 249.826 202.212 249.573 202.412 249.359C202.611 249.145 202.852 248.975 203.12 248.858C203.389 248.742 203.678 248.681 203.97 248.681C204.263 248.681 204.552 248.742 204.82 248.858C205.088 248.975 205.329 249.145 205.529 249.359C205.728 249.573 205.882 249.826 205.979 250.102C206.077 250.377 206.117 250.67 206.096 250.962Z" fill="#4CAF4F"/>
<path d="M212.697 250.993C212.667 251.409 212.515 251.807 212.26 252.138C212.005 252.469 211.659 252.717 211.265 252.853C210.87 252.989 210.444 253.006 210.04 252.902C209.636 252.797 209.271 252.577 208.991 252.267C208.711 251.958 208.528 251.573 208.465 251.16C208.402 250.748 208.461 250.326 208.635 249.946C208.809 249.567 209.091 249.247 209.445 249.027C209.8 248.806 210.211 248.695 210.628 248.706C211.204 248.74 211.742 248.999 212.129 249.427C212.516 249.854 212.72 250.417 212.697 250.993Z" fill="#4CAF4F"/>
<path d="M219.288 251.024C219.257 251.44 219.105 251.838 218.85 252.169C218.596 252.5 218.25 252.748 217.855 252.884C217.46 253.02 217.035 253.037 216.631 252.933C216.226 252.828 215.862 252.608 215.582 252.298C215.302 251.989 215.119 251.604 215.055 251.191C214.992 250.779 215.051 250.357 215.226 249.977C215.4 249.598 215.682 249.278 216.036 249.058C216.39 248.837 216.801 248.726 217.218 248.737C217.794 248.771 218.333 249.03 218.72 249.458C219.106 249.885 219.31 250.448 219.288 251.024Z" fill="#4CAF4F"/>
<path d="M225.878 251.045C225.85 251.461 225.699 251.861 225.446 252.193C225.192 252.525 224.847 252.775 224.452 252.913C224.057 253.05 223.631 253.068 223.226 252.965C222.822 252.862 222.456 252.642 222.175 252.333C221.894 252.024 221.71 251.639 221.646 251.226C221.582 250.813 221.64 250.39 221.815 250.01C221.989 249.63 222.271 249.31 222.625 249.089C222.98 248.868 223.391 248.756 223.809 248.768C224.383 248.802 224.92 249.06 225.306 249.485C225.693 249.911 225.898 250.47 225.878 251.045Z" fill="#4CAF4F"/>
<path d="M232.479 251.076C232.451 251.49 232.302 251.888 232.051 252.219C231.8 252.55 231.457 252.801 231.066 252.94C230.674 253.079 230.25 253.1 229.847 253.002C229.443 252.903 229.077 252.688 228.793 252.384C228.51 252.08 228.322 251.7 228.252 251.29C228.182 250.88 228.233 250.459 228.399 250.078C228.566 249.697 228.84 249.373 229.188 249.145C229.536 248.918 229.943 248.798 230.358 248.799C230.941 248.82 231.491 249.072 231.889 249.499C232.286 249.926 232.499 250.492 232.479 251.076Z" fill="#4CAF4F"/>
<path d="M239.07 251.107C239.09 251.398 239.05 251.691 238.953 251.967C238.855 252.243 238.702 252.495 238.502 252.709C238.303 252.923 238.061 253.094 237.793 253.21C237.525 253.327 237.236 253.387 236.944 253.387C236.651 253.387 236.362 253.327 236.094 253.21C235.826 253.094 235.584 252.923 235.385 252.709C235.185 252.495 235.032 252.243 234.935 251.967C234.837 251.691 234.797 251.398 234.817 251.107C234.797 250.815 234.837 250.522 234.935 250.246C235.032 249.971 235.185 249.718 235.385 249.504C235.584 249.29 235.826 249.12 236.094 249.003C236.362 248.886 236.651 248.826 236.944 248.826C237.236 248.826 237.525 248.886 237.793 249.003C238.061 249.12 238.303 249.29 238.502 249.504C238.702 249.718 238.855 249.971 238.953 250.246C239.05 250.522 239.09 250.815 239.07 251.107Z" fill="#4CAF4F"/>
<path d="M245.66 251.138C245.632 251.553 245.483 251.95 245.232 252.281C244.981 252.613 244.638 252.863 244.247 253.002C243.855 253.141 243.431 253.163 243.027 253.064C242.624 252.965 242.258 252.751 241.974 252.447C241.691 252.142 241.503 251.762 241.433 251.352C241.363 250.942 241.414 250.521 241.58 250.14C241.747 249.759 242.021 249.435 242.369 249.208C242.717 248.981 243.123 248.86 243.539 248.861C244.122 248.883 244.672 249.134 245.07 249.561C245.467 249.988 245.68 250.555 245.66 251.138Z" fill="#4CAF4F"/>
<path d="M252.251 251.169C252.222 251.586 252.072 251.985 251.818 252.317C251.565 252.649 251.219 252.9 250.825 253.037C250.43 253.174 250.004 253.192 249.599 253.089C249.194 252.986 248.828 252.766 248.547 252.457C248.266 252.148 248.082 251.763 248.018 251.35C247.954 250.937 248.013 250.514 248.187 250.135C248.361 249.755 248.643 249.434 248.998 249.213C249.352 248.993 249.764 248.881 250.182 248.892C250.755 248.927 251.293 249.184 251.679 249.609C252.066 250.035 252.271 250.594 252.251 251.169Z" fill="#4CAF4F"/>
<g opacity="0.2">
<path d="M199.506 250.931C199.475 251.347 199.323 251.745 199.069 252.076C198.814 252.407 198.468 252.655 198.073 252.791C197.679 252.927 197.253 252.944 196.849 252.839C196.445 252.735 196.08 252.515 195.8 252.205C195.52 251.896 195.337 251.511 195.274 251.098C195.21 250.686 195.27 250.264 195.444 249.884C195.618 249.505 195.9 249.185 196.254 248.965C196.608 248.744 197.02 248.633 197.437 248.644C198.013 248.676 198.554 248.934 198.941 249.362C199.328 249.79 199.531 250.354 199.506 250.931Z" fill="white"/>
<path d="M206.097 250.962C206.117 251.254 206.077 251.546 205.979 251.822C205.882 252.098 205.729 252.351 205.529 252.564C205.33 252.778 205.088 252.949 204.82 253.066C204.552 253.182 204.263 253.242 203.97 253.242C203.678 253.242 203.389 253.182 203.121 253.066C202.852 252.949 202.611 252.778 202.412 252.564C202.212 252.351 202.059 252.098 201.961 251.822C201.864 251.546 201.824 251.254 201.844 250.962C201.824 250.67 201.864 250.377 201.961 250.102C202.059 249.826 202.212 249.573 202.412 249.359C202.611 249.145 202.852 248.975 203.121 248.858C203.389 248.742 203.678 248.681 203.97 248.681C204.263 248.681 204.552 248.742 204.82 248.858C205.088 248.975 205.33 249.145 205.529 249.359C205.729 249.573 205.882 249.826 205.979 250.102C206.077 250.377 206.117 250.67 206.097 250.962Z" fill="white"/>
<path d="M212.697 250.993C212.667 251.409 212.515 251.807 212.26 252.138C212.005 252.469 211.659 252.717 211.265 252.853C210.87 252.989 210.444 253.006 210.04 252.902C209.636 252.797 209.271 252.577 208.991 252.267C208.711 251.958 208.528 251.573 208.465 251.16C208.402 250.748 208.461 250.326 208.635 249.946C208.809 249.567 209.091 249.247 209.445 249.027C209.8 248.806 210.211 248.695 210.628 248.706C211.204 248.74 211.742 248.999 212.129 249.427C212.516 249.854 212.72 250.417 212.697 250.993Z" fill="white"/>
<path d="M219.288 251.024C219.257 251.44 219.105 251.838 218.851 252.169C218.596 252.5 218.25 252.748 217.855 252.884C217.461 253.02 217.035 253.037 216.631 252.933C216.227 252.828 215.862 252.608 215.582 252.298C215.302 251.989 215.119 251.604 215.056 251.191C214.992 250.779 215.052 250.357 215.226 249.977C215.4 249.598 215.682 249.278 216.036 249.058C216.39 248.837 216.802 248.726 217.219 248.737C217.794 248.771 218.333 249.03 218.72 249.458C219.107 249.885 219.311 250.448 219.288 251.024Z" fill="white"/>
<path d="M225.879 251.045C225.85 251.461 225.7 251.861 225.446 252.193C225.192 252.525 224.847 252.775 224.452 252.913C224.058 253.05 223.632 253.068 223.227 252.965C222.822 252.862 222.456 252.642 222.175 252.333C221.894 252.024 221.71 251.639 221.646 251.226C221.582 250.813 221.641 250.39 221.815 250.01C221.989 249.63 222.271 249.31 222.625 249.089C222.98 248.868 223.392 248.756 223.809 248.768C224.383 248.802 224.92 249.06 225.307 249.485C225.693 249.911 225.898 250.47 225.879 251.045Z" fill="white"/>
<path d="M232.479 251.076C232.451 251.491 232.302 251.888 232.051 252.219C231.8 252.55 231.458 252.801 231.066 252.94C230.674 253.079 230.25 253.101 229.847 253.002C229.443 252.903 229.077 252.688 228.794 252.384C228.51 252.08 228.322 251.7 228.252 251.29C228.182 250.88 228.233 250.459 228.4 250.078C228.566 249.697 228.84 249.373 229.188 249.146C229.536 248.918 229.943 248.798 230.358 248.799C230.941 248.82 231.492 249.072 231.889 249.499C232.287 249.926 232.499 250.493 232.479 251.076Z" fill="white"/>
<path d="M239.07 251.107C239.09 251.399 239.05 251.692 238.953 251.967C238.855 252.243 238.702 252.496 238.502 252.709C238.303 252.923 238.062 253.094 237.794 253.211C237.525 253.327 237.236 253.387 236.944 253.387C236.651 253.387 236.362 253.327 236.094 253.211C235.826 253.094 235.585 252.923 235.385 252.709C235.186 252.496 235.032 252.243 234.935 251.967C234.837 251.692 234.797 251.399 234.818 251.107C234.797 250.815 234.837 250.522 234.935 250.247C235.032 249.971 235.186 249.718 235.385 249.504C235.585 249.29 235.826 249.12 236.094 249.003C236.362 248.887 236.651 248.826 236.944 248.826C237.236 248.826 237.525 248.887 237.794 249.003C238.062 249.12 238.303 249.29 238.502 249.504C238.702 249.718 238.855 249.971 238.953 250.247C239.05 250.522 239.09 250.815 239.07 251.107Z" fill="white"/>
<path d="M245.66 251.138C245.632 251.553 245.483 251.95 245.232 252.281C244.981 252.612 244.638 252.863 244.247 253.002C243.855 253.141 243.431 253.163 243.028 253.064C242.624 252.965 242.258 252.75 241.975 252.446C241.691 252.142 241.503 251.762 241.433 251.352C241.363 250.942 241.414 250.521 241.581 250.14C241.747 249.759 242.021 249.435 242.369 249.208C242.717 248.98 243.124 248.86 243.539 248.861C244.122 248.882 244.673 249.134 245.07 249.561C245.468 249.988 245.68 250.555 245.66 251.138Z" fill="white"/>
<path d="M252.251 251.169C252.222 251.586 252.072 251.985 251.818 252.317C251.565 252.649 251.219 252.9 250.825 253.037C250.43 253.174 250.004 253.192 249.599 253.089C249.194 252.986 248.828 252.766 248.547 252.457C248.266 252.148 248.082 251.763 248.018 251.35C247.954 250.937 248.013 250.514 248.187 250.135C248.361 249.755 248.643 249.434 248.998 249.213C249.352 248.993 249.764 248.881 250.182 248.892C250.755 248.927 251.293 249.184 251.679 249.609C252.066 250.035 252.271 250.594 252.251 251.169Z" fill="white"/>
</g>
<path d="M242.887 101.762C243.606 101.446 244.216 100.925 244.641 100.264C245.066 99.6035 245.287 98.8324 245.277 98.0469C245.304 97.5363 245.227 97.0255 245.05 96.5458C244.873 96.066 244.6 95.6273 244.248 95.2564C243.897 94.8855 243.473 94.5901 243.003 94.3882C242.534 94.1864 242.028 94.0823 241.517 94.0823C241.005 94.0823 240.5 94.1864 240.03 94.3882C239.56 94.5901 239.137 94.8855 238.785 95.2564C238.433 95.6273 238.16 96.066 237.983 96.5458C237.806 97.0255 237.729 97.5363 237.756 98.0469C237.74 98.8403 237.96 99.6206 238.387 100.289C238.814 100.958 239.43 101.485 240.156 101.804C234.362 102.673 234.621 108.966 234.621 108.966L248.319 109.028C248.319 109.028 248.64 102.621 242.887 101.762Z" fill="#4CAF4F"/>
<path opacity="0.1" d="M242.887 101.762C243.606 101.446 244.216 100.925 244.641 100.264C245.066 99.6035 245.287 98.8324 245.277 98.0469C245.304 97.5363 245.227 97.0255 245.05 96.5458C244.873 96.066 244.6 95.6273 244.248 95.2564C243.897 94.8855 243.473 94.5901 243.003 94.3882C242.534 94.1864 242.028 94.0823 241.517 94.0823C241.005 94.0823 240.5 94.1864 240.03 94.3882C239.56 94.5901 239.137 94.8855 238.785 95.2564C238.433 95.6273 238.16 96.066 237.983 96.5458C237.806 97.0255 237.729 97.5363 237.756 98.0469C237.74 98.8403 237.96 99.6206 238.387 100.289C238.814 100.958 239.43 101.485 240.156 101.804C234.362 102.673 234.621 108.966 234.621 108.966L248.319 109.028C248.319 109.028 248.64 102.621 242.887 101.762Z" fill="black"/>
<path d="M265.147 113.086L216.324 112.865L216.297 118.702L265.12 118.923L265.147 113.086Z" fill="#4CAF4F"/>
<path opacity="0.2" d="M265.147 113.086L216.324 112.865L216.297 118.702L265.12 118.923L265.147 113.086Z" fill="white"/>
<path d="M85.6562 143.336H85.17L83.7629 143.44C83.0014 143.486 82.2442 143.586 81.4971 143.74C81.0131 143.808 80.5331 143.901 80.0589 144.019L78.4553 144.464C75.7258 145.302 73.1505 146.578 70.8301 148.242C67.7644 150.468 65.2045 153.318 63.3188 156.604C62.2104 158.499 61.3284 160.517 60.6909 162.618C60.0209 164.9 59.6352 167.257 59.5424 169.635C59.4808 170.883 59.5015 172.135 59.6045 173.381C59.6045 174.012 59.7804 174.644 59.8632 175.285C59.9328 175.932 60.0539 176.573 60.2253 177.2C61.1556 181.353 63.0433 185.231 65.7378 188.525C68.4323 191.819 71.859 194.437 75.7446 196.171C78.5568 197.385 81.571 198.062 84.632 198.168C87.7935 198.342 90.9582 197.889 93.9435 196.833L94.854 196.492H94.9782L95.0816 196.554L108.128 203.178L107.745 203.509C106.349 199.183 105.004 194.991 103.7 190.965V190.81L103.814 190.696C106.979 187.507 109.328 183.602 110.663 179.311C111.872 175.389 112.225 171.252 111.698 167.182C111.229 163.564 110.066 160.071 108.273 156.894C106.728 154.165 104.734 151.716 102.376 149.65C100.43 148.014 98.2766 146.643 95.9714 145.572C94.2272 144.819 92.4106 144.247 90.55 143.864L88.4807 143.523L86.9806 143.409L86.0701 143.347H85.7597C85.8628 143.335 85.9669 143.335 86.0701 143.347H86.9909L88.4911 143.409L90.5603 143.709C92.4441 144.064 94.2854 144.615 96.0542 145.354C98.399 146.412 100.591 147.78 102.572 149.422C104.974 151.479 107.01 153.929 108.594 156.667C110.438 159.877 111.636 163.418 112.122 167.089C112.693 171.222 112.365 175.43 111.16 179.425C109.816 183.805 107.43 187.793 104.207 191.048L104.269 190.779C105.573 194.805 106.928 198.996 108.335 203.312L108.532 203.943L107.942 203.643L94.8954 197.03H95.123L94.1919 197.371C91.149 198.443 87.9257 198.907 84.7044 198.738C81.5774 198.618 78.5002 197.917 75.6308 196.668C70.1573 194.323 65.6035 190.247 62.667 185.066C61.3157 182.673 60.3288 180.091 59.739 177.407C59.5775 176.763 59.4566 176.11 59.3769 175.451C59.2941 174.799 59.1596 174.157 59.1286 173.516C58.8486 169.833 59.2377 166.13 60.277 162.586C60.9304 160.457 61.837 158.414 62.9774 156.501C64.9081 153.185 67.5213 150.316 70.6439 148.087C73.0025 146.418 75.621 145.152 78.3932 144.34L80.0176 143.926C80.4956 143.815 80.9791 143.729 81.466 143.667C82.2209 143.528 82.9852 143.445 83.7525 143.419L85.17 143.367C85.3311 143.346 85.4936 143.335 85.6562 143.336Z" fill="#4CAF4F"/>
<path d="M91.5535 167.472H89.6395L85.501 161.655V157.836C85.501 157.836 82.542 157.65 82.8937 162.649C83.2455 167.648 82.8937 166.375 82.8937 166.375C82.8937 166.375 76.6136 166.375 76.0963 166.944C75.579 167.513 75.5479 173.578 75.4755 176.962C75.4359 177.778 75.6699 178.584 76.1404 179.251C76.6109 179.919 77.2909 180.41 78.0724 180.647C78.2915 180.707 78.5176 180.739 78.7449 180.74C80.3175 180.74 88.3152 179.467 88.3152 179.467H91.6156L91.5535 167.472Z" fill="#4CAF4F"/>
<path d="M97.0267 166.447L95.8473 179.529H92.5779V166.716L97.0267 166.447Z" fill="#4CAF4F"/>
<path d="M136.022 432.773V423.924L120.161 423.81L120.026 437.192L121.009 437.265C125.386 437.544 143.274 437.958 146.213 437.047C149.482 436.033 136.022 432.773 136.022 432.773Z" fill="#4CAF4F"/>
<path d="M146.585 436.22C146.585 436.365 140.646 436.489 133.332 436.489C126.017 436.489 120.078 436.365 120.078 436.22C120.078 436.075 126.017 435.95 133.332 435.95C140.646 435.95 146.585 436.075 146.585 436.22Z" fill="#263238"/>
<path d="M136.301 434.584C136.166 434.512 136.301 434.046 136.622 433.549C136.942 433.052 137.377 432.845 137.48 432.949C137.584 433.052 137.366 433.446 137.056 433.87C136.746 434.294 136.435 434.656 136.301 434.584Z" fill="#263238"/>
<path d="M137.315 435.164C137.17 435.164 137.242 434.584 137.553 434.036C137.863 433.487 138.277 433.156 138.391 433.239C138.505 433.321 138.318 433.787 138.029 434.274C137.739 434.76 137.449 435.215 137.315 435.164Z" fill="#263238"/>
<path d="M124.858 436.178C124.796 436.178 124.558 435.991 124.216 435.598C123.8 435.093 123.335 434.628 122.83 434.211C122.333 433.814 121.741 433.554 121.113 433.456C120.626 433.394 120.316 433.456 120.285 433.394C120.254 433.331 120.554 433.114 121.123 433.073C121.874 433.057 122.607 433.306 123.192 433.776C123.741 434.224 124.204 434.767 124.558 435.381C124.796 435.836 124.92 436.136 124.858 436.178Z" fill="#263238"/>
<path d="M136.353 432.918C136.425 433.042 136.156 433.353 135.701 433.518C135.246 433.684 134.842 433.622 134.822 433.518C134.801 433.415 135.122 433.197 135.515 433.052C135.908 432.907 136.27 432.793 136.353 432.918Z" fill="#263238"/>
<path d="M136.105 432.059C136.105 432.214 135.691 432.339 135.153 432.349C134.615 432.359 134.191 432.235 134.201 432.09C134.211 431.945 134.635 431.81 135.153 431.8C135.67 431.79 136.084 431.914 136.105 432.059Z" fill="#263238"/>
<path d="M175.079 432.773V423.924L159.218 423.81L159.083 437.058L160.066 437.13C164.443 437.409 182.342 437.958 185.27 437.047C188.539 436.033 175.079 432.773 175.079 432.773Z" fill="#4CAF4F"/>
<path d="M185.642 436.24C185.642 436.385 179.714 436.509 172.389 436.509C165.064 436.509 159.146 436.385 159.146 436.24C159.146 436.095 165.074 435.971 172.389 435.971C179.703 435.971 185.642 436.095 185.642 436.24Z" fill="#263238"/>
<path d="M175.358 434.584C175.234 434.512 175.358 434.046 175.679 433.549C175.999 433.052 176.434 432.845 176.537 432.949C176.641 433.052 176.424 433.446 176.113 433.87C175.803 434.294 175.492 434.656 175.358 434.584Z" fill="#263238"/>
<path d="M176.372 435.164C176.237 435.164 176.299 434.584 176.62 434.036C176.941 433.487 177.344 433.156 177.458 433.239C177.572 433.321 177.375 433.787 177.086 434.274C176.796 434.76 176.517 435.215 176.372 435.164Z" fill="#263238"/>
<path d="M163.915 436.178C163.853 436.178 163.625 435.991 163.274 435.598C162.857 435.093 162.393 434.628 161.887 434.211C161.39 433.814 160.798 433.554 160.17 433.456C159.694 433.394 159.373 433.456 159.342 433.394C159.311 433.331 159.611 433.114 160.18 433.073C160.931 433.057 161.664 433.306 162.249 433.776C162.801 434.221 163.264 434.765 163.615 435.381C163.853 435.836 163.977 436.136 163.915 436.178Z" fill="#263238"/>
<path d="M175.41 432.918C175.482 433.042 175.213 433.353 174.758 433.518C174.303 433.684 173.899 433.622 173.878 433.518C173.858 433.415 174.178 433.197 174.572 433.052C174.965 432.907 175.327 432.793 175.41 432.918Z" fill="#263238"/>
<path d="M175.182 432.059C175.182 432.214 174.768 432.339 174.23 432.349C173.692 432.359 173.278 432.235 173.289 432.09C173.299 431.945 173.713 431.81 174.23 431.8C174.748 431.79 175.182 431.914 175.182 432.059Z" fill="#263238"/>
<path d="M233.514 169.997C233.1 169.572 232.076 169.779 232.076 169.779C232.178 169.183 232.178 168.574 232.076 167.978C231.89 167.399 230.586 167.513 230.586 167.513C230.526 167.025 230.526 166.531 230.586 166.043C230.596 165.935 230.573 165.826 230.519 165.732C230.466 165.637 230.384 165.562 230.286 165.515C229.669 165.264 229.007 165.144 228.341 165.163C227.544 164.594 230.772 160.071 231.972 158.622C233.172 157.174 232.955 156.045 231.89 156.045C231.155 156.045 227.389 160.392 226.23 161.852C225.071 163.311 221.999 167.368 221.895 164.128C221.792 160.889 220.488 158.447 219.671 158.033C218.853 157.619 217.984 158.591 218.429 159.492C218.82 160.515 219.064 161.588 219.153 162.679C219.266 163.549 219.227 164.431 219.04 165.288C218.697 166.881 218.23 168.445 217.643 169.966H217.56C217.56 169.966 194.985 191.627 193.35 193.169C191.891 194.556 162.549 191.524 156.662 190.903C154.662 190.61 152.642 190.472 150.62 190.489C148.065 190.603 147.609 190.965 145.064 190.996C138.637 191.067 132.224 191.631 125.882 192.683C123.011 193.171 120.329 194.439 118.128 196.348C115.928 198.257 114.294 200.734 113.405 203.509C107.476 222.034 94.0471 265.886 91.6778 290.518C89.8875 293.765 88.2712 297.106 86.8358 300.526C85.1701 305.059 85.5736 305.214 86.1323 305.317C87.6428 305.597 89.3603 297.462 90.0017 299.429C90.6432 301.395 86.7427 309.126 88.3257 309.354C90.3949 309.644 92.0399 301.074 92.2365 300.391C92.4331 299.708 93.4574 299.925 93.2711 300.567C92.9711 301.478 90.0638 311.134 92.0917 311.444C93.2091 311.61 93.3332 309.571 93.3332 309.571C93.3332 309.571 95.4025 300.329 96.344 300.515C97.2855 300.702 96.2819 306.156 95.806 307.977C95.33 309.799 95.9922 310.72 96.9647 310.275C97.6269 309.964 99.2099 304.427 99.6444 302.627C100.079 300.826 101.165 295.837 102.624 298.725C104.083 301.612 106.297 303.289 107.207 303.33C107.413 303.307 107.606 303.222 107.763 303.088C107.919 302.953 108.032 302.775 108.087 302.575C108.141 302.376 108.135 302.165 108.069 301.97C108.002 301.774 107.879 301.603 107.714 301.478C106.931 300.713 106.259 299.842 105.718 298.89C105.235 298.149 104.885 297.33 104.683 296.469C104.266 294.752 104.023 292.997 103.959 291.232L103.793 290.197C106.111 278.719 112.784 245.031 122.416 223.514L126.369 231.649L128.086 237.673L117.554 263.681L162.477 263.091L155.773 237.279L163.915 210.37C172.72 210.567 195.326 210.898 199.092 209.191C203.831 207.121 228.341 176.155 228.341 176.155C229.938 174.913 231.468 173.586 232.924 172.18C232.924 172.18 234.414 170.928 233.514 169.997Z" fill="#FFBE9D"/>
<path d="M115.577 244.462C116.881 240.012 123.575 218.009 123.575 218.009C123.575 218.009 126.865 235.945 125.996 238.108C125.197 239.959 124.252 241.745 123.172 243.448C115.577 255.009 116.571 260.794 116.571 260.794L162.456 259.397C162.56 252.98 158.762 238.056 157.976 235.675C157.19 233.295 159.807 225.502 159.807 225.502C159.807 225.502 164.981 220.234 164.794 217.522C164.696 215.087 164.395 212.663 163.894 210.278L191.829 211.313L190.949 192.373L150.827 188.357C149.43 192.3 136.797 190.365 136.797 190.365C123.161 190.82 122.313 193.325 116.643 197.734C110.973 202.143 101.589 239.981 101.589 239.981L115.577 244.462Z" fill="#4CAF4F"/>
<path d="M142.705 239.981C141.91 240.123 141.1 240.165 140.295 240.105C138.794 240.105 136.735 240.001 134.47 239.774C132.204 239.546 130.155 239.225 128.696 238.935C127.892 238.832 127.103 238.63 126.348 238.335C127.157 238.336 127.964 238.412 128.759 238.563C130.228 238.749 132.266 239.008 134.521 239.236C136.777 239.463 138.825 239.619 140.305 239.722C141.111 239.732 141.915 239.819 142.705 239.981Z" fill="#263238"/>
<path d="M145.851 236.079C145.055 236.469 144.214 236.757 143.347 236.938C139.219 238.023 134.96 238.528 130.693 238.439C129.81 238.467 128.927 238.384 128.065 238.19C128.937 238.08 129.815 238.035 130.693 238.056C132.318 238.004 134.552 237.89 137.015 237.6C139.477 237.31 141.671 236.896 143.223 236.565C144.085 236.335 144.963 236.172 145.851 236.079Z" fill="#263238"/>
<path d="M161.287 218.671C161.266 219.46 161.159 220.245 160.966 221.01C160.697 222.449 160.283 224.415 159.756 226.568C159.228 228.721 158.721 230.708 158.266 232.053C158.083 232.823 157.812 233.57 157.459 234.278C157.517 233.492 157.662 232.714 157.894 231.96C158.287 230.345 158.732 228.483 159.228 226.444C159.725 224.405 160.201 222.542 160.594 220.927C160.734 220.15 160.967 219.393 161.287 218.671Z" fill="#263238"/>
<path d="M116.064 241.823C113.67 241.453 111.308 240.903 108.997 240.177C106.636 239.625 104.319 238.899 102.065 238.004C104.458 238.38 106.82 238.93 109.132 239.649C111.494 240.2 113.811 240.926 116.064 241.823Z" fill="#263238"/>
<path d="M164.391 210.05C164.001 210.117 163.602 210.117 163.212 210.05C162.131 209.939 161.07 209.685 160.056 209.294C158.363 208.658 156.823 207.675 155.533 206.408C154.243 205.14 153.232 203.617 152.565 201.936C151.829 200.086 151.514 198.096 151.645 196.109C151.691 194.47 152.181 192.875 153.062 191.493C153.682 190.562 154.608 189.877 155.68 189.558C155.966 189.479 156.262 189.44 156.559 189.444C156.766 189.444 156.869 189.444 156.869 189.444C156.869 189.444 156.435 189.444 155.742 189.723C154.758 190.087 153.925 190.768 153.372 191.659C151.965 193.873 151.572 197.92 153.072 201.698C153.771 203.479 154.864 205.078 156.269 206.376C157.421 207.437 158.748 208.292 160.19 208.901C161.544 209.436 162.953 209.822 164.391 210.05Z" fill="#263238"/>
<path d="M188.508 210.94C188.249 207.766 188.166 204.581 188.26 201.398C188.179 198.217 188.275 195.035 188.549 191.866C188.808 195.036 188.89 198.218 188.797 201.398C188.884 204.581 188.787 207.767 188.508 210.94Z" fill="#263238"/>
<path d="M150.558 189.516C150.672 187.208 150.91 184.6 150.91 184.6C150.91 184.6 156.621 183.969 156.962 178.07C157.304 172.17 156.962 158.561 156.962 158.561L146.616 153.262L135.132 162.297L136.901 191.793L147.433 192.466C148.239 192.488 149.02 192.19 149.605 191.637C150.191 191.084 150.534 190.322 150.558 189.516Z" fill="#FFBE9D"/>
<path d="M151.582 173.402C151.582 173.402 151.582 173.516 151.489 173.65C151.412 173.748 151.313 173.825 151.199 173.876C151.086 173.926 150.961 173.948 150.837 173.94C150.175 173.94 149.534 173.174 149.306 172.284C149.198 171.853 149.198 171.401 149.306 170.97C149.327 170.781 149.395 170.601 149.504 170.446C149.612 170.291 149.758 170.165 149.927 170.08C150.066 170.022 150.222 170.022 150.362 170.08C150.465 170.131 150.548 170.215 150.6 170.318C150.672 170.494 150.6 170.608 150.6 170.597C150.6 170.587 150.6 170.494 150.496 170.39C150.442 170.316 150.362 170.265 150.273 170.245C150.183 170.226 150.089 170.241 150.01 170.287C149.883 170.364 149.777 170.471 149.703 170.6C149.629 170.728 149.589 170.873 149.586 171.022C149.498 171.407 149.498 171.806 149.586 172.191C149.792 172.998 150.351 173.65 150.848 173.712C150.945 173.726 151.044 173.719 151.138 173.692C151.232 173.665 151.32 173.619 151.396 173.557C151.52 173.474 151.562 173.392 151.582 173.402Z" fill="#EB996E"/>
<path d="M160.511 155.373C159.714 152.661 156.828 151.316 154.2 150.571C150.196 149.432 145.871 148.935 141.96 150.374C138.05 151.813 133.352 154.338 133.352 158.654C131.045 158.467 129.721 160.486 128.81 162.99C128.228 164.516 127.879 166.121 127.776 167.751C127.486 173.402 125.903 181.205 122.241 185.345C120.171 187.653 117.305 189.247 116.126 192.124C115.091 194.618 115.629 197.578 114.667 200.104C113.808 202.329 111.915 203.912 110.529 205.848C109.116 208.043 108.285 210.562 108.113 213.167C107.941 215.772 108.434 218.379 109.546 220.741C110.665 223.042 112.242 225.092 114.179 226.765C116.116 228.437 118.373 229.698 120.813 230.469C125.646 231.94 130.799 231.99 135.66 230.614C139.307 229.742 142.71 228.054 145.613 225.678C148.582 223.252 150.622 219.873 151.386 216.115C152.12 211.892 150.941 207.597 150.061 203.395C147.309 190.116 148.096 189.423 151.572 177.097C151.655 176.879 151.696 176.652 151.758 176.434C151.82 176.217 151.851 176.113 151.893 175.948C151.992 175.461 152.043 174.965 152.048 174.468C151.54 174.657 150.989 174.697 150.459 174.583C149.93 174.469 149.444 174.207 149.058 173.826C148.671 173.42 148.402 172.917 148.278 172.371C148.154 171.824 148.181 171.254 148.354 170.721C148.598 170.138 148.962 169.613 149.422 169.18C149.882 168.747 150.428 168.415 151.024 168.206C152.172 167.73 153.403 167.482 154.531 166.954C156.921 165.816 158.576 163.456 159.704 160.982C160.631 159.268 160.917 157.279 160.511 155.373Z" fill="#263238"/>
<path d="M151.996 173.681C152.215 174.004 152.395 174.352 152.534 174.716C152.845 175.368 153.258 176.289 153.714 177.356L153.796 177.552H153.579L152.544 177.645C151.831 177.645 151.231 177.78 150.527 177.769C150.466 177.756 150.409 177.727 150.362 177.685C150.315 177.643 150.279 177.591 150.258 177.531C150.227 177.437 150.227 177.336 150.258 177.242C150.282 177.102 150.313 176.964 150.351 176.828L150.537 176.093C150.631 175.603 150.777 175.124 150.972 174.665C150.953 175.164 150.88 175.66 150.755 176.145L150.61 176.879C150.558 177.128 150.465 177.511 150.61 177.48C151.127 177.48 151.862 177.366 152.544 177.324L153.579 177.231L153.445 177.459C153 176.424 152.627 175.451 152.41 174.778C152.219 174.435 152.08 174.065 151.996 173.681Z" fill="#4CAF4F"/>
<path d="M116.571 260.794L162.456 259.396L182.424 337.37L178.751 426.811H154.489L157.459 339.275L139.715 284.991L142.446 430.278L117.926 430.641L115.35 294.078C115.236 290.28 113.994 281.721 114.46 277.953L116.571 260.794Z" fill="#263238"/>
<path d="M145.819 286.098C145.068 286.146 144.314 286.101 143.574 285.964C142.188 285.798 140.295 285.509 138.215 285.095C136.135 284.681 134.273 284.205 132.928 283.822C132.209 283.664 131.514 283.413 130.859 283.076C130.859 282.921 134.232 283.728 138.37 284.567C142.509 285.405 145.84 285.943 145.819 286.098Z" fill="#455A64"/>
<path d="M178.503 421.906C178.503 422.051 173.009 422.175 166.233 422.175C159.456 422.175 153.952 422.051 153.952 421.906C153.952 421.761 159.446 421.637 166.233 421.637C173.02 421.637 178.503 421.751 178.503 421.906Z" fill="#455A64"/>
<path d="M142.229 426.501C142.229 426.657 136.891 426.771 130.311 426.771C123.73 426.771 118.402 426.657 118.402 426.501C118.402 426.346 123.741 426.232 130.311 426.232C136.88 426.232 142.229 426.356 142.229 426.501Z" fill="#455A64"/>
<path d="M139.063 426.128C138.918 426.128 138.277 394.386 137.625 355.234C136.973 316.081 136.591 284.318 136.725 284.318C136.86 284.318 137.522 316.05 138.163 355.223C138.805 394.397 139.218 426.128 139.063 426.128Z" fill="#455A64"/>
<path d="M175.244 421.906C175.233 421.764 175.233 421.623 175.244 421.481V420.239C175.244 419.122 175.327 417.517 175.389 415.479C175.534 411.339 175.741 405.326 176 397.957C176.558 383.136 177.345 362.706 178.203 340.154C178.203 339.937 178.203 339.73 178.203 339.544V339.616C172.772 317.882 167.857 298.156 164.288 283.884L160.149 267.003C159.673 265.027 159.311 263.485 159.052 262.408C158.928 261.901 158.846 261.508 158.773 261.208C158.733 261.073 158.708 260.934 158.701 260.794C158.754 260.924 158.796 261.059 158.825 261.197C158.908 261.487 159.011 261.88 159.156 262.377C159.435 263.412 159.839 264.985 160.356 266.952C161.391 270.947 162.849 276.701 164.67 283.79C168.271 298.052 173.237 317.727 178.741 339.492V339.564C178.741 339.751 178.741 339.968 178.741 340.175C177.82 362.727 176.982 383.146 176.372 397.967C176.051 405.346 175.782 411.318 175.596 415.479C175.493 417.549 175.41 419.122 175.358 420.239C175.358 420.767 175.296 421.181 175.286 421.481C175.287 421.624 175.273 421.766 175.244 421.906Z" fill="#455A64"/>
<path d="M167.329 337.722C165.587 338.295 163.791 338.694 161.97 338.912C159.735 339.295 157.831 339.564 156.973 339.606V339.399C157.252 339.482 157.397 339.533 157.397 339.575C157.397 339.616 157.221 339.575 156.931 339.575H156.311L156.931 339.388C157.738 339.15 159.642 338.757 161.877 338.353C163.669 337.964 165.495 337.753 167.329 337.722Z" fill="#455A64"/>
<path d="M166.905 340.693C165.291 340.767 163.674 340.695 162.073 340.476C160.457 340.443 158.847 340.266 157.262 339.948C160.496 339.683 163.75 339.935 166.905 340.693Z" fill="#455A64"/>
<path opacity="0.2" d="M116.374 262.439C116.917 263.137 117.602 263.713 118.383 264.128C119.164 264.544 120.023 264.79 120.906 264.851C122.754 265.07 124.623 265.035 126.462 264.747C138.308 263.433 150.858 262.222 162.456 259.396C147.444 260.235 131.583 259.955 116.571 260.794L116.415 262.077" fill="black"/>
<g opacity="0.2">
<path d="M131.842 283.604L140.305 316.454L139.715 284.991L131.842 283.604Z" fill="black"/>
</g>
</svg>
