<svg width="498" height="48" viewBox="0 0 498 48" fill="none" xmlns="http://www.w3.org/2000/svg">
<rect x="0.5" width="48" height="48" rx="8" fill="#E8F5E9"/>
<g clip-path="url(#clip0_22_777)">
<path fill-rule="evenodd" clip-rule="evenodd" d="M10.8533 0.194519C16.3761 0.194519 20.8533 4.67167 20.8533 10.1945V0.194519H30.8533C36.3761 0.194519 40.8533 4.67167 40.8533 10.1945C40.8533 15.7173 36.3761 20.1945 30.8533 20.1945C36.3761 20.1945 40.8533 24.6717 40.8533 30.1945C40.8533 32.9368 39.7494 35.4213 37.9618 37.2279L37.9244 37.2656L37.8912 37.2986C36.0842 39.0888 33.5979 40.1945 30.8533 40.1945C28.1274 40.1945 25.6562 39.1038 23.8523 37.335C23.8289 37.312 23.8055 37.2888 23.7822 37.2656C23.7603 37.2437 23.7385 37.2217 23.7168 37.1996C21.9457 35.3954 20.8533 32.9225 20.8533 30.1945C20.8533 35.7173 16.3761 40.1945 10.8533 40.1945C5.33042 40.1945 0.853271 35.7173 0.853271 30.1945V20.1945H10.8533C5.33042 20.1945 0.853271 15.7173 0.853271 10.1945C0.853271 4.67167 5.33042 0.194519 10.8533 0.194519ZM18.8533 10.1945C18.8533 14.6128 15.2716 18.1945 10.8533 18.1945V2.19452C15.2716 2.19452 18.8533 5.77624 18.8533 10.1945ZM38.8533 30.1945C38.8533 25.7762 35.2716 22.1945 30.8533 22.1945C26.435 22.1945 22.8533 25.7762 22.8533 30.1945H38.8533ZM2.85327 22.1945V30.1945C2.85327 34.6128 6.43499 38.1945 10.8533 38.1945C15.2716 38.1945 18.8533 34.6128 18.8533 30.1945V22.1945H2.85327ZM22.8533 18.1945V2.19452H30.8533C35.2716 2.19452 38.8533 5.77624 38.8533 10.1945C38.8533 14.6128 35.2716 18.1945 30.8533 18.1945H22.8533Z" fill="#5417D7"/>
</g>
<rect x="89.5" width="48" height="48" rx="8" fill="#F5F7FA"/>
<g clip-path="url(#clip1_22_777)">
<path fill-rule="evenodd" clip-rule="evenodd" d="M99.5981 13.9614L89.6123 23.8468C91.6096 25.8241 93.8913 27.4905 96.3789 28.7942C97.0665 30.5998 98.1443 32.2931 99.6123 33.7463C105.135 39.2136 114.09 39.2136 119.612 33.7463C121.08 32.2931 122.158 30.5998 122.846 28.7941C125.333 27.4905 127.615 25.8241 129.612 23.8468L119.635 13.9695C119.627 13.9621 119.62 13.9547 119.612 13.9473C114.09 8.47997 105.135 8.47997 99.6123 13.9473C99.6076 13.952 99.6028 13.9567 99.5981 13.9614ZM118.657 30.5777C115.747 31.5499 112.692 32.0478 109.612 32.0478C106.533 32.0478 103.478 31.5499 100.568 30.5777C100.883 30.9918 101.231 31.3892 101.612 31.7664C106.031 36.1403 113.194 36.1403 117.612 31.7664C117.993 31.3892 118.342 30.9918 118.657 30.5777ZM101.817 15.7292C102.568 16.2199 103.366 16.6398 104.2 16.9822C105.916 17.6857 107.755 18.0478 109.612 18.0478C111.47 18.0478 113.309 17.6857 115.024 16.9822C115.859 16.6398 116.657 16.2199 117.407 15.7292C113.044 11.6193 106.181 11.6193 101.817 15.7292Z" fill="#3B4158"/>
</g>
<rect x="178.5" width="48" height="48" rx="8" fill="#F5F7FA"/>
<g clip-path="url(#clip2_22_777)">
<path d="M233.496 19.5165C233.501 19.4748 233.501 19.4326 233.496 19.3909C233.501 19.3569 233.501 19.3223 233.496 19.2882L233.088 16.3556C233.03 16.0047 232.872 15.6768 232.634 15.4085L232.564 15.3286L232.437 15.2031L225.383 9.24648L225.581 9.44048C225.419 9.2506 225.216 9.09872 224.986 8.99602C224.756 8.89333 224.506 8.84244 224.254 8.8471H222.112C221.764 8.84034 221.424 8.94889 221.146 9.1552C220.855 8.95013 220.504 8.84213 220.145 8.8471H218.003C217.722 8.84263 217.445 8.91098 217.2 9.04523C216.955 9.17948 216.75 9.37488 216.607 9.61164C216.385 9.94979 216.302 10.3572 216.374 10.7527L216.642 12.6013C216.464 12.5028 216.263 12.4516 216.06 12.453H205.689C205.317 12.4553 204.953 12.5622 204.641 12.7611C204.339 12.9462 204.097 13.2113 203.943 13.5256L203.14 12.8524C202.824 12.5656 202.406 12.4102 201.976 12.4188H185.704C185.33 12.4254 184.965 12.5277 184.644 12.7155C184.206 12.9672 183.884 13.3764 183.748 13.8566L178.58 30.802C178.484 31.0812 178.474 31.3824 178.553 31.6669C178.632 31.9514 178.795 32.2065 179.022 32.3996C179.082 32.4488 179.144 32.4945 179.209 32.5365C179.209 32.5365 179.104 32.468 179.046 32.411L186.099 38.379C186.398 38.6483 186.788 38.7988 187.193 38.8011H203.594C203.968 38.7916 204.333 38.6853 204.653 38.493C204.833 38.3963 204.995 38.2688 205.13 38.1165L205.188 38.0366L205.281 37.9225L205.351 37.797L206.119 38.4474C206.413 38.706 206.795 38.8483 207.19 38.8468H223.625C223.999 38.8346 224.364 38.7285 224.684 38.5387C224.861 38.436 225.022 38.3092 225.162 38.1621L225.22 38.0823L225.313 37.9682C225.363 37.896 225.405 37.8196 225.441 37.7399C225.479 37.6707 225.51 37.5981 225.534 37.5231L230.248 22.0497V21.9128C230.254 21.8597 230.254 21.8061 230.248 21.753V21.6504C230.254 21.6163 230.254 21.5817 230.248 21.5476C230.253 21.4755 230.253 21.403 230.248 21.3308H231.761C231.893 21.3426 232.025 21.3426 232.157 21.3308H232.262C232.347 21.3059 232.429 21.2714 232.506 21.2281H232.623L232.832 21.0684L232.925 20.9999L233.088 20.7945V20.7261L233.205 20.532C233.198 20.4943 233.198 20.4557 233.205 20.418C233.198 20.3994 233.198 20.3794 233.205 20.3609C233.229 20.294 233.249 20.2253 233.263 20.1555C233.257 20.133 233.257 20.1095 233.263 20.087C233.257 20.053 233.257 20.0183 233.263 19.9843C233.263 19.9843 233.496 19.5393 233.496 19.5165Z" fill="black"/>
<path d="M202.453 13.7196C202.515 13.7744 202.558 13.8465 202.577 13.926C202.595 14.0056 202.589 14.0889 202.558 14.1647L197.401 31.0987C197.336 31.2836 197.204 31.4382 197.029 31.5324C196.887 31.6256 196.722 31.6806 196.552 31.6921H180.163C180.023 31.6855 179.891 31.6287 179.791 31.5324C179.731 31.4784 179.69 31.4084 179.671 31.3312C179.652 31.254 179.657 31.173 179.686 31.0987L184.854 14.1647C184.913 13.9775 185.042 13.8188 185.215 13.7196C185.359 13.6331 185.523 13.5822 185.692 13.5713H202.08C202.219 13.5726 202.352 13.6257 202.453 13.7196ZM193.898 27.6868L196.982 17.5766H188.346L185.273 27.6868H193.898ZM218.097 13.8908C218.152 13.9545 218.222 14.005 218.301 14.0386C218.38 14.0722 218.465 14.088 218.551 14.0848H220.681C220.762 14.0856 220.842 14.0661 220.913 14.0281C220.984 13.9902 221.044 13.9351 221.088 13.868C221.126 13.8156 221.152 13.7562 221.166 13.6935C221.18 13.6308 221.181 13.566 221.169 13.5028L220.75 10.4903C220.71 10.3509 220.639 10.2221 220.541 10.1137C220.485 10.05 220.415 9.99952 220.336 9.96594C220.258 9.93235 220.173 9.91657 220.087 9.91976H217.957C217.876 9.91899 217.796 9.93849 217.725 9.97642C217.653 10.0144 217.593 10.0695 217.55 10.1366C217.468 10.2963 217.433 10.399 217.468 10.4903L217.899 13.5028C217.921 13.6495 217.99 13.7854 218.097 13.8908ZM224.859 10.4675C224.819 10.3281 224.748 10.1993 224.65 10.0909C224.596 10.0275 224.528 9.97695 224.452 9.9433C224.375 9.90966 224.291 9.89379 224.207 9.89694H222.066C221.986 9.89471 221.907 9.91368 221.837 9.95185C221.768 9.99002 221.71 10.046 221.67 10.1137C221.592 10.215 221.559 10.3421 221.577 10.4675L222.007 13.48C222.034 13.6251 222.103 13.7597 222.205 13.868C222.262 13.9304 222.332 13.9801 222.411 14.0136C222.489 14.0471 222.574 14.0636 222.659 14.062H224.801C224.881 14.063 224.959 14.0435 225.028 14.0055C225.098 13.9674 225.156 13.9121 225.197 13.8452C225.237 13.7941 225.265 13.7348 225.28 13.6716C225.294 13.6084 225.293 13.543 225.278 13.48L224.859 10.4675ZM216.223 15.0319L216.013 13.5485H205.689C205.527 13.5572 205.37 13.6085 205.235 13.6968C205.149 13.7427 205.074 13.8062 205.016 13.883C204.958 13.9598 204.917 14.0481 204.897 14.1419L204.036 16.9718C204.002 17.0425 203.99 17.1219 204.002 17.1993C204.015 17.2767 204.051 17.3485 204.106 17.4054C204.204 17.4959 204.332 17.5486 204.467 17.5538H217.014L213.93 27.664H201.417C201.256 27.6676 201.099 27.715 200.963 27.8009C200.799 27.9034 200.678 28.0619 200.626 28.2459L199.753 31.0759C199.724 31.1485 199.717 31.2274 199.731 31.3039C199.745 31.3805 199.781 31.4516 199.834 31.5095C199.929 31.606 200.058 31.6631 200.195 31.6692H216.63C216.8 31.6549 216.964 31.6001 217.107 31.5095C217.279 31.4148 217.408 31.26 217.468 31.0759L222.194 15.6025H216.874C216.79 15.6041 216.706 15.5887 216.628 15.5573C216.55 15.5259 216.479 15.4791 216.42 15.4199C216.324 15.3164 216.256 15.1908 216.223 15.0547V15.0319Z" fill="white"/>
</g>
<rect x="267.5" width="48" height="48" rx="8" fill="#F5F7FA"/>
<g clip-path="url(#clip3_22_777)">
<path d="M311.497 13.4115C311.497 13.4453 311.497 13.4876 311.488 13.5129C311.444 13.8426 311.444 14.1723 311.47 14.5105C311.488 14.595 311.505 14.6795 311.576 14.7472C311.69 14.874 311.866 14.8486 311.937 14.6964C311.972 14.6204 311.972 14.5443 311.954 14.4682C311.866 14.147 311.849 13.8088 311.84 13.4791C311.84 13.4622 311.84 13.4369 311.84 13.4115C311.937 13.4031 312.025 13.3946 312.104 13.3946C312.166 13.3861 312.219 13.3777 312.263 13.3523C312.395 13.2847 312.395 13.141 312.254 13.0734C312.201 13.048 312.131 13.0396 312.069 13.0396C311.849 13.048 311.629 13.048 311.408 13.048C311.329 13.048 311.25 13.0565 311.171 13.0649C311.127 13.0734 311.074 13.0734 311.039 13.0987C310.977 13.1241 310.942 13.1664 310.942 13.2255C310.95 13.2847 310.977 13.3185 311.039 13.3439C311.074 13.3692 311.118 13.3777 311.162 13.3777C311.267 13.3861 311.382 13.4031 311.497 13.4115ZM313.919 13.8004C313.919 13.8088 313.927 13.8173 313.927 13.8173C313.963 14.0455 313.998 14.2653 314.024 14.4851C314.033 14.5612 314.042 14.6288 314.095 14.688C314.209 14.8317 314.385 14.8148 314.465 14.6626C314.5 14.5865 314.509 14.5105 314.491 14.4259C314.438 14.1723 314.412 13.9187 314.359 13.6736C314.324 13.5214 314.28 13.3777 314.236 13.2424C314.209 13.1579 314.148 13.0987 314.042 13.0903C313.936 13.0734 313.857 13.1241 313.813 13.2002C313.76 13.2678 313.716 13.3354 313.681 13.4115C313.619 13.5468 313.566 13.682 313.496 13.8088C313.487 13.8426 313.478 13.868 313.461 13.8934C313.452 13.8764 313.443 13.868 313.443 13.868C313.329 13.6567 313.223 13.4453 313.108 13.2424C313.091 13.2255 313.082 13.2086 313.073 13.1917C313.02 13.1156 312.959 13.0734 312.862 13.0734C312.774 13.0818 312.703 13.1325 312.659 13.2086C312.642 13.2424 312.642 13.2678 312.633 13.3016C312.597 13.5721 312.553 13.8426 312.518 14.1131C312.501 14.2653 312.492 14.4175 312.492 14.5696C312.483 14.6034 312.492 14.6457 312.509 14.6795C312.527 14.7471 312.58 14.7894 312.65 14.7979C312.738 14.8063 312.8 14.781 312.826 14.7133C312.853 14.6626 312.862 14.6204 312.871 14.5781C312.906 14.4259 312.932 14.2822 312.959 14.1385C312.976 14.054 312.985 13.9863 313.011 13.8934C313.029 13.9272 313.047 13.9525 313.064 13.9779C313.144 14.0793 313.223 14.1808 313.32 14.2653C313.417 14.3329 313.496 14.3245 313.575 14.2484C313.593 14.2315 313.602 14.223 313.619 14.2061C313.698 14.0878 313.795 13.9694 313.875 13.8511C313.892 13.8342 313.901 13.8173 313.919 13.8004Z" fill="#3A3B7B"/>
<path d="M293.624 13.5776C293.563 13.7383 293.552 13.854 293.58 13.9502C293.611 14.081 293.692 14.1238 293.802 14.0906C294.837 13.845 297.105 14.542 297.945 14.7362C298.143 14.777 298.304 14.5316 298.169 14.3115C297.972 14.0985 295.704 13.1862 294.839 13.1364C294.5 13.118 293.894 13.0346 293.624 13.5776Z" fill="#3A3B7B"/>
<path d="M302.49 10.6244C302.601 10.6855 302.662 10.7438 302.693 10.8089C302.738 10.8942 302.714 10.9533 302.638 10.9835C301.954 11.3038 301.044 12.6829 300.677 13.1585C300.588 13.2679 300.382 13.2044 300.351 13.0244C300.358 12.821 301.164 11.3244 301.615 10.9167C301.791 10.7576 302.084 10.4453 302.49 10.6244Z" fill="#3A3B7B"/>
<path d="M297.044 9.94553C297.177 9.84971 297.315 9.81614 297.385 9.87841C298.417 10.7253 298.964 12.0664 299.303 13.2942C299.315 13.3228 299.316 13.3639 299.306 13.4067C299.302 13.4433 299.274 13.482 299.23 13.5119C299.182 13.5449 299.142 13.555 299.123 13.5265C298.67 12.9362 296.088 10.6393 297.044 9.94553Z" fill="#3A3B7B"/>
<path d="M275.195 24.6286C275.443 24.4519 275.711 24.3048 275.996 24.1906C276.293 24.109 276.611 24.1225 276.9 24.2293C277.189 24.336 277.433 24.5301 277.597 24.7823C277.744 25.0338 277.801 25.3242 277.76 25.6097C277.72 25.8952 277.584 26.1603 277.373 26.3652C277.209 26.5313 277.023 26.676 276.821 26.7956C275.916 27.3565 275.003 27.8867 274.09 28.4476C273.904 28.588 273.706 28.714 273.498 28.8242C273.182 28.9753 272.821 29.0158 272.478 28.9386C272.134 28.8615 271.83 28.6715 271.616 28.4016C271.457 28.2104 271.323 28.0014 271.216 27.7791C270.351 26.0348 269.455 24.2982 268.622 22.5231C268.238 21.7548 267.926 20.8711 267.621 20.0181C267.49 19.7703 267.464 19.483 267.55 19.2173C267.635 18.9515 267.826 18.7284 268.08 18.5952C268.335 18.4621 268.633 18.4295 268.912 18.5044C269.192 18.5793 269.429 18.7557 269.575 18.9961C270.023 19.5673 270.419 20.174 270.76 20.8096C271.624 22.3464 272.449 23.8832 273.282 25.374C273.33 25.4564 273.384 25.5358 273.442 25.6122C274.069 25.3593 274.658 25.0286 275.195 24.6286Z" fill="#3A3B7B"/>
<path d="M284.135 24.0925C282.158 26.3132 278.843 25.7523 277.178 22.8938C275.993 20.8652 275.785 17.5149 278.363 15.4017C278.913 14.9593 279.572 14.658 280.276 14.5257C281.14 14.4069 282.021 14.5532 282.794 14.9437C283.566 15.3343 284.189 15.9491 284.576 16.7004C285.985 19.1593 285.785 22.2944 284.135 24.0925ZM283.335 18.9134C283.125 18.3091 282.703 17.7933 282.142 17.4534C281.824 17.2361 281.438 17.1304 281.049 17.1542C280.66 17.178 280.291 17.3298 280.004 17.584C278.859 18.5599 278.619 20.8729 279.452 22.2483C279.558 22.4726 279.714 22.6719 279.909 22.8324C280.103 22.9928 280.332 23.1104 280.579 23.177C280.826 23.2436 281.086 23.2576 281.339 23.218C281.592 23.1783 281.833 23.086 282.046 22.9476C282.666 22.4857 283.122 21.8498 283.348 21.1283C283.575 20.4066 283.562 19.6352 283.311 18.9211L283.335 18.9134Z" fill="#3A3B7B"/>
<path d="M292.206 19.8816C292.003 19.9234 291.794 19.9259 291.59 19.8889C291.387 19.8519 291.193 19.7763 291.021 19.6665C290.87 19.5836 290.74 19.4696 290.64 19.3327C290.54 19.1958 290.474 19.0395 290.445 18.8748C290.416 18.7103 290.425 18.5415 290.472 18.3808C290.519 18.22 290.602 18.0713 290.716 17.9452C290.915 17.6918 291.197 17.5105 291.517 17.4304C292.352 17.1978 293.211 17.0561 294.079 17.0078C294.27 16.9865 294.463 17.002 294.647 17.0533C294.832 17.1047 295.003 17.1909 295.153 17.3069C295.302 17.4228 295.425 17.5662 295.516 17.7286C295.606 17.891 295.662 18.0692 295.68 18.2526C295.93 19.1536 295.958 20.0982 295.76 21.0112C295.04 23.9619 292.558 24.9762 289.772 24.031C288.99 23.7783 288.304 23.3075 287.802 22.6786C287.133 21.9214 286.659 21.0239 286.417 20.0584C286.221 19.1986 286.243 18.3064 286.48 17.4563C286.716 16.6061 287.162 15.8226 287.778 15.1712C288.363 14.4633 289.123 13.9061 289.988 13.5499C290.535 13.2606 291.174 13.1784 291.781 13.3194C291.919 13.3559 292.044 13.4272 292.143 13.5257C292.242 13.6243 292.312 13.7465 292.346 13.8798C292.38 14.013 292.375 14.1525 292.334 14.2836C292.292 14.4148 292.215 14.5329 292.11 14.6257C291.91 14.7994 291.692 14.9538 291.461 15.0867C290.749 15.5218 290.13 16.0823 289.636 16.7388C289.312 17.1636 289.088 17.6514 288.982 18.1678C288.875 18.6842 288.888 19.2167 289.019 19.728C289.201 20.425 289.604 21.0507 290.172 21.5183C291.933 23.0552 294.223 21.5721 293.823 19.4743C293.238 19.6127 292.726 19.7587 292.206 19.8816Z" fill="#3A3B7B"/>
<path d="M302.966 24.2154C300.364 25.7523 297.402 24.2154 296.753 20.9881C296.281 18.6829 297.178 15.4556 300.316 14.2261C300.984 13.9701 301.708 13.8803 302.422 13.9648C303.279 14.1155 304.065 14.5206 304.67 15.123C305.275 15.7255 305.667 16.4949 305.792 17.3228C306.321 20.066 305.12 22.9937 302.966 24.2154ZM303.871 19.044C303.87 18.4057 303.635 17.788 303.206 17.2997C302.977 16.9977 302.646 16.7814 302.269 16.6874C301.893 16.5936 301.494 16.628 301.141 16.7849C299.732 17.3689 298.739 19.4897 299.099 21.0496C299.127 21.2944 299.209 21.5305 299.342 21.7414C299.474 21.9522 299.653 22.1327 299.866 22.2703C300.079 22.4079 300.32 22.4992 300.574 22.5379C300.827 22.5766 301.086 22.5617 301.333 22.4942C302.078 22.2445 302.722 21.7778 303.177 21.1592C303.632 20.5407 303.875 19.8012 303.871 19.044Z" fill="#3A3B7B"/>
<path d="M308.424 24.861C308.384 25.1422 308.23 25.3969 307.995 25.5692C307.76 25.7413 307.464 25.8169 307.171 25.7792C306.878 25.7415 306.612 25.5936 306.433 25.3681C306.253 25.1426 306.175 24.8579 306.214 24.5766C306.253 24.2954 306.407 24.0407 306.642 23.8685C306.877 23.6962 307.174 23.6207 307.467 23.6584C307.76 23.6961 308.025 23.8439 308.205 24.0695C308.384 24.295 308.463 24.5797 308.424 24.861ZM307.727 14.495C307.879 14.2718 308.103 14.1019 308.364 14.0105C308.625 13.9191 308.91 13.9111 309.176 13.9879C309.447 14.0529 309.686 14.2051 309.854 14.4192C310.021 14.6332 310.107 14.896 310.097 15.1636C310.062 15.5927 309.995 16.019 309.897 16.4391C309.633 17.8607 309.376 19.2822 309.096 20.6885C308.968 21.2494 308.8 21.7873 308.616 22.3559C308.552 22.5337 308.445 22.6943 308.303 22.8246C308.216 22.9227 308.104 22.9979 307.978 23.0433C307.851 23.0888 307.716 23.103 307.582 23.0846C307.449 23.0662 307.323 23.0159 307.215 22.9382C307.107 22.8605 307.022 22.758 306.966 22.6402C306.871 22.4289 306.82 22.2019 306.814 21.9717C306.814 21.0189 306.814 20.0584 306.878 19.0978C306.987 17.727 307.201 16.3658 307.519 15.0252C307.556 14.8456 307.627 14.6739 307.727 14.5181V14.495Z" fill="#3A3B7B"/>
<path fill-rule="evenodd" clip-rule="evenodd" d="M271.813 31.0358C271.718 31.2383 271.692 31.4642 271.738 31.6815C271.769 31.9679 271.837 32.2497 271.939 32.5203C272.068 32.8517 272.211 33.1794 272.388 33.5833C272.429 33.6762 272.471 33.7732 272.516 33.8753C272.754 34.4225 273.054 35.1218 273.453 36.1338C273.566 36.4213 273.667 36.7112 273.768 37.003C273.809 37.1209 273.85 37.2392 273.892 37.3578C274.042 37.7794 274.301 38.1581 274.644 38.4582C274.789 38.6232 274.982 38.7434 275.199 38.8035C275.42 38.8648 275.655 38.8609 275.873 38.7924C276.092 38.7238 276.284 38.5937 276.424 38.4189C276.562 38.2476 276.643 38.0412 276.659 37.8256C276.749 37.4055 276.718 36.9699 276.571 36.5649C276.337 35.8924 276.071 35.2189 275.765 34.5602L275.763 34.5573C275.258 33.5268 274.745 32.5033 274.208 31.4795L274.204 31.4723C274.047 31.2056 273.842 30.9671 273.6 30.7677C273.442 30.5897 273.225 30.4696 272.986 30.4282C272.741 30.3859 272.488 30.4285 272.273 30.5484C272.07 30.6599 271.908 30.8306 271.813 31.0358Z" fill="#3A3B7B"/>
<path fill-rule="evenodd" clip-rule="evenodd" d="M279.522 28.4981C278.731 28.3014 277.904 28.2727 277.1 28.4142C276.477 28.473 275.865 28.6109 275.439 28.884C275.223 29.023 275.048 29.2015 274.951 29.4284C274.853 29.6565 274.841 29.9173 274.921 30.208C275.067 30.7404 275.257 31.2581 275.447 31.7741L275.477 31.8576L275.478 31.8595C276.048 33.3585 276.624 34.8525 277.205 36.3413C277.273 36.5759 277.369 36.8023 277.491 37.0158L277.493 37.0197C277.654 37.2849 277.861 37.5221 278.104 37.7214C278.226 37.8309 278.376 37.9067 278.539 37.9406C278.704 37.9747 278.876 37.9648 279.035 37.9119C279.194 37.8589 279.336 37.765 279.443 37.6403C279.549 37.5176 279.618 37.3699 279.644 37.2126C279.749 36.7854 279.715 36.3375 279.547 35.9292C279.495 35.7918 279.454 35.6513 279.41 35.5035C279.396 35.4542 279.381 35.404 279.366 35.3529C280.696 34.854 282.111 34.1831 282.608 32.6224C282.803 32.083 282.82 31.499 282.655 30.9504C282.49 30.4012 282.152 29.9144 281.687 29.557C281.055 29.0568 280.316 28.6953 279.522 28.4981ZM277.328 30.4125C277.355 30.4052 277.381 30.3985 277.407 30.3922C278.273 30.2616 279.159 30.4357 279.902 30.8823C280.229 31.1007 280.363 31.3435 280.386 31.5771C280.41 31.8176 280.319 32.0782 280.136 32.3287C279.79 32.8019 279.159 33.1807 278.589 33.2513C278.173 32.3326 277.751 31.3768 277.328 30.4125Z" fill="#3A3B7B"/>
<path d="M284.799 26.8166C285.742 26.3988 286.909 26.3266 287.823 26.6204C288.053 26.6847 288.253 26.8239 288.388 27.014C288.522 27.203 288.584 27.4307 288.563 27.6583C288.562 27.8061 288.524 27.9515 288.453 28.0827C288.38 28.2162 288.275 28.331 288.147 28.4175C288.019 28.5039 287.871 28.5594 287.715 28.5793C287.56 28.5992 287.401 28.5828 287.254 28.5316L287.243 28.5277L287.232 28.5224C287.157 28.4845 287.077 28.456 286.994 28.4374L286.988 28.4363C286.346 28.2724 285.74 28.5439 285.518 28.8775C285.412 29.0365 285.399 29.1971 285.487 29.3431C285.582 29.4995 285.813 29.675 286.28 29.8001C286.409 29.834 286.54 29.8667 286.674 29.8999C287.044 29.9918 287.428 30.0872 287.8 30.2195L287.801 30.22C289.515 30.8459 290.153 32.1421 289.935 33.3613C289.718 34.567 288.669 35.6642 287.092 35.9231C286.518 36.0452 285.92 36.0214 285.358 35.8541C284.795 35.6862 284.288 35.3799 283.886 34.9655L283.876 34.9547C283.749 34.7985 283.664 34.6151 283.626 34.4205C283.591 34.2448 283.61 34.0633 283.679 33.8973C283.747 33.7323 283.864 33.5894 284.014 33.4854C284.172 33.3674 284.363 33.2966 284.563 33.2818C284.763 33.2671 284.962 33.3087 285.137 33.4014C285.312 33.4825 285.475 33.5859 285.621 33.7089L285.623 33.7111C285.882 33.9378 286.194 33.9968 286.494 33.9421C286.798 33.8866 287.084 33.714 287.267 33.485C287.45 33.2574 287.523 32.987 287.436 32.7246C287.349 32.4602 287.085 32.164 286.507 31.9164C286.356 31.8548 286.199 31.8051 286.036 31.7567C285.992 31.7436 285.947 31.7307 285.902 31.7175C285.781 31.6824 285.657 31.6462 285.536 31.6063C285.452 31.5789 285.369 31.5529 285.286 31.5271C285.061 31.4568 284.842 31.3883 284.631 31.2963C284.172 31.1462 283.775 30.8579 283.499 30.4741C283.223 30.0888 283.084 29.628 283.103 29.1606C283.104 28.0215 283.852 27.2367 284.799 26.8166Z" fill="#3A3B7B"/>
<path d="M296.749 26.6953C296.566 26.6096 296.364 26.5689 296.161 26.5769C295.957 26.585 295.76 26.6414 295.585 26.7412C295.411 26.8403 295.266 26.9792 295.161 27.1453C295.066 27.2852 295 27.4417 294.967 27.606C294.934 27.7702 294.935 27.9389 294.969 28.1027C295.003 28.3132 295.041 28.5179 295.078 28.7198C295.14 29.0539 295.2 29.3805 295.239 29.7135L295.241 29.7219C295.331 30.2441 295.378 30.7722 295.383 31.3015L295.383 31.309C295.414 31.8805 295.211 32.441 294.818 32.8714L294.811 32.879C294.684 33.0363 294.513 33.1564 294.318 33.2258C294.123 33.2952 293.911 33.3112 293.707 33.2719C293.503 33.2326 293.315 33.1397 293.163 33.0034C293.011 32.8672 292.901 32.6925 292.847 32.5C292.73 32.0942 292.662 31.6768 292.645 31.2562L292.845 28.207C292.847 28.1672 292.851 28.1264 292.854 28.0851C292.862 27.9925 292.87 27.8982 292.873 27.8102C292.878 27.6808 292.874 27.5476 292.842 27.4216C292.81 27.2928 292.749 27.1703 292.64 27.066C292.533 26.9627 292.388 26.8865 292.205 26.8346C291.875 26.7429 291.596 26.7458 291.364 26.8405C291.131 26.9353 290.972 27.1111 290.859 27.3142C290.747 27.5157 290.675 27.7541 290.621 27.993C290.58 28.1702 290.548 28.3563 290.517 28.5334C290.506 28.5944 290.496 28.6543 290.485 28.7125L290.485 28.7142C290.32 29.6854 290.271 30.6716 290.339 31.6535C290.352 32.1841 290.467 32.7079 290.679 33.1981C290.918 33.8305 291.352 34.3785 291.922 34.7697C292.494 35.1616 293.176 35.3776 293.879 35.389C294.581 35.4004 295.271 35.2067 295.856 34.8336C296.44 34.461 296.893 33.927 297.154 33.3023C297.52 32.5064 297.692 31.6409 297.657 30.7717C297.635 30.1371 297.599 29.4977 297.563 28.8615C297.546 28.5494 297.528 28.238 297.512 27.9284C297.505 27.6181 297.398 27.3175 297.207 27.0669C297.089 26.9086 296.931 26.7808 296.749 26.6953Z" fill="#3A3B7B"/>
<path d="M303.217 31.4764C303.199 31.499 303.179 31.5224 303.159 31.5467C303.01 30.7236 302.872 29.9008 302.734 29.0768C302.685 28.7811 302.635 28.4842 302.585 28.1881L302.58 28.1551L302.561 28.1266C302.527 28.0728 302.523 28.0202 302.523 27.9079V27.8949L302.521 27.882C302.484 27.6501 302.375 27.4342 302.208 27.2627C302.041 27.0917 301.825 26.9727 301.587 26.921C301.35 26.8648 301.1 26.8772 300.87 26.9567C300.64 27.036 300.44 27.1784 300.294 27.3663C300.173 27.5104 300.074 27.6703 299.999 27.8412C299.831 28.2092 299.66 28.5782 299.489 28.9481L299.487 28.9545C299.06 29.8781 298.631 30.8079 298.214 31.745L298.213 31.748C297.957 32.3556 297.746 32.9958 297.535 33.6341C297.493 33.7615 297.451 33.8889 297.409 34.0159C297.333 34.2173 297.299 34.4312 297.311 34.6451C297.297 34.8366 297.345 35.0276 297.448 35.1923C297.553 35.3603 297.71 35.4926 297.897 35.5704C298.096 35.654 298.318 35.6717 298.528 35.6208C298.738 35.57 298.925 35.4537 299.058 35.2903C299.229 35.0889 299.376 34.8693 299.495 34.6367C299.848 33.9434 300.186 33.2418 300.522 32.5431C300.652 32.2729 300.778 32.0309 300.922 31.7673C300.931 31.7998 300.942 31.8315 300.952 31.8633C301.103 32.4996 301.357 33.1091 301.705 33.6695C301.771 33.7882 301.863 33.8919 301.974 33.9736C302.087 34.0563 302.217 34.1143 302.356 34.1437C302.494 34.1732 302.638 34.1733 302.777 34.1441C302.915 34.115 303.046 34.0569 303.158 33.9747L303.382 33.8142L305.116 32.4125L305.013 33.0396C304.872 33.9016 304.733 34.7565 304.584 35.6115C304.487 35.9905 304.487 36.3863 304.585 36.7652C304.627 36.9784 304.734 37.1747 304.893 37.329C305.054 37.4847 305.259 37.5904 305.483 37.6326C305.706 37.6747 305.938 37.6513 306.148 37.5655C306.355 37.4809 306.53 37.3395 306.653 37.1592C306.939 36.8188 307.117 36.4066 307.166 35.9718C307.239 35.3578 307.323 34.7355 307.406 34.1133C307.502 33.3961 307.597 32.6792 307.678 31.976L307.679 31.9738C307.756 31.204 307.794 30.4311 307.792 29.6578C307.809 29.4134 307.745 29.1699 307.61 28.9618C307.475 28.753 307.274 28.5907 307.037 28.4978C306.79 28.3901 306.513 28.3613 306.248 28.4158C305.985 28.4698 305.746 28.6031 305.568 28.7961C305.248 29.08 304.948 29.3838 304.669 29.7055L304.668 29.7076C304.364 30.071 304.062 30.4415 303.762 30.8096C303.58 31.0333 303.398 31.2566 303.217 31.4764Z" fill="#3A3B7B"/>
</g>
<rect x="356.5" width="48" height="48" rx="8" fill="#F5F7FA"/>
<g clip-path="url(#clip4_22_777)">
<path d="M394.938 11.6905C394.938 12.1565 395.32 12.5343 395.792 12.5343H396.646C397.118 12.5343 397.5 12.1565 397.5 11.6905C397.5 11.2246 397.118 10.8468 396.646 10.8468H395.792C395.32 10.8468 394.938 11.2246 394.938 11.6905Z" fill="#212326"/>
<path d="M370.167 37.8468H374.316L373.108 36.6535C372.788 36.3371 372.353 36.1593 371.9 36.1593H370.167C363.562 36.1593 358.208 30.8707 358.208 24.3468C358.208 17.8229 363.562 12.5343 370.167 12.5343H383.833C390.438 12.5343 395.792 17.8229 395.792 24.3468C395.792 30.8707 390.438 36.1593 383.833 36.1593H378.721C378.041 36.1593 377.389 35.8926 376.909 35.4179L375.494 34.02C374.693 33.2288 373.606 32.7843 372.474 32.7843H370.167C365.449 32.7843 361.625 29.0067 361.625 24.3468C361.625 19.6869 365.449 15.9093 370.167 15.9093H383.833C388.551 15.9093 392.375 19.6869 392.375 24.3468C392.375 29.0067 388.551 32.7843 383.833 32.7843H380.551C379.871 32.7843 379.219 32.5176 378.739 32.0429L377.323 30.645C376.522 29.8538 375.436 29.4093 374.303 29.4093H370.167C367.336 29.4093 365.042 27.1427 365.042 24.3468C365.042 21.5509 367.336 19.2843 370.167 19.2843H383.833C386.664 19.2843 388.958 21.5509 388.958 24.3468C388.958 27.1086 386.719 29.354 383.937 29.4083L383.936 29.4093H382.686C382.006 29.4093 381.355 29.1426 380.874 28.6679L379.459 27.27C378.802 26.6207 377.952 26.205 377.043 26.0767L377 26.0343H370.167C369.223 26.0343 368.458 25.2788 368.458 24.3468C368.458 23.4148 369.223 22.6593 370.167 22.6593H383.833C384.777 22.6593 385.542 23.4148 385.542 24.3468C385.542 25.2788 384.777 26.0343 383.833 26.0343H380.417L381.625 27.2276C381.945 27.544 382.38 27.7218 382.833 27.7218H383.833C385.72 27.7218 387.25 26.2107 387.25 24.3468C387.25 22.4829 385.72 20.9718 383.833 20.9718H370.167C368.28 20.9718 366.75 22.4829 366.75 24.3468C366.75 26.2107 368.28 27.7218 370.167 27.7218H376.439C377.119 27.7218 377.77 27.9885 378.251 28.4632L379.666 29.8611C380.467 30.6523 381.553 31.0968 382.686 31.0968H384.26V31.0838C387.835 30.8661 390.667 27.933 390.667 24.3468C390.667 20.6189 387.607 17.5968 383.833 17.5968H370.167C366.393 17.5968 363.333 20.6189 363.333 24.3468C363.333 28.0748 366.393 31.0968 370.167 31.0968H374.303C374.983 31.0968 375.635 31.3635 376.115 31.8382L377.531 33.2361C378.332 34.0273 379.418 34.4718 380.551 34.4718H383.833C389.494 34.4718 394.083 29.9387 394.083 24.3468C394.083 18.7549 389.494 14.2218 383.833 14.2218H370.167C364.506 14.2218 359.917 18.7549 359.917 24.3468C359.917 29.9387 364.506 34.4718 370.167 34.4718H372.474C373.153 34.4718 373.805 34.7385 374.286 35.2132L375.701 36.6111C376.502 37.4023 377.588 37.8468 378.721 37.8468H383.833C391.381 37.8468 397.5 31.8027 397.5 24.3468C397.5 16.891 391.381 10.8468 383.833 10.8468L370.167 10.8468C362.619 10.8468 356.5 16.891 356.5 24.3468C356.5 31.8027 362.619 37.8468 370.167 37.8468Z" fill="#212326"/>
</g>
<rect x="445.5" width="48" height="48" rx="8" fill="#F5F7FA"/>
<g clip-path="url(#clip5_22_777)">
<path d="M457.843 13.8468C455.812 13.8468 453.865 14.6535 452.429 16.0894L447.743 20.7757C446.307 22.2117 445.5 24.1592 445.5 26.1899C445.5 30.4187 448.928 33.8468 453.157 33.8468C455.188 33.8468 457.135 33.0401 458.571 31.6041L461.813 28.3626C461.813 28.3625 461.813 28.3627 461.813 28.3626L471.257 18.9179C471.943 18.2321 472.873 17.8468 473.843 17.8468C475.467 17.8468 476.843 18.9051 477.321 20.3695L480.301 17.3888C478.942 15.259 476.557 13.8468 473.843 13.8468C471.812 13.8468 469.865 14.6535 468.429 16.0894L455.743 28.7757C455.057 29.4615 454.127 29.8468 453.157 29.8468C451.137 29.8468 449.5 28.2096 449.5 26.1899C449.5 25.2201 449.885 24.2899 450.571 23.6041L455.257 18.9179C455.943 18.2321 456.873 17.8468 457.843 17.8468C459.467 17.8468 460.843 18.9051 461.321 20.3696L464.302 17.3888C462.942 15.2591 460.557 13.8468 457.843 13.8468Z" fill="#394149"/>
<path d="M471.743 28.7757C471.057 29.4615 470.127 29.8468 469.157 29.8468C467.533 29.8468 466.157 28.7888 465.68 27.3246L462.699 30.3053C464.059 32.4347 466.443 33.8468 469.157 33.8468C471.188 33.8468 473.135 33.0401 474.571 31.6041L487.257 18.9179C487.943 18.2321 488.873 17.8468 489.843 17.8468C491.863 17.8468 493.5 19.484 493.5 21.5037C493.5 22.4735 493.115 23.4037 492.429 24.0895L487.743 28.7757C487.057 29.4615 486.127 29.8468 485.157 29.8468C483.533 29.8468 482.157 28.7886 481.679 27.3243L478.699 30.305C480.059 32.4347 482.443 33.8468 485.157 33.8468C487.188 33.8468 489.135 33.0401 490.571 31.6041L495.257 26.9179C496.693 25.4819 497.5 23.5344 497.5 21.5037C497.5 17.2749 494.072 13.8468 489.843 13.8468C487.812 13.8468 485.865 14.6535 484.429 16.0894L471.743 28.7757Z" fill="#394149"/>
</g>
<defs>
<clipPath id="clip0_22_777">
<rect width="40" height="40" fill="white" transform="translate(0.853271 0.194519)"/>
</clipPath>
<clipPath id="clip1_22_777">
<rect width="40" height="28" fill="white" transform="translate(89.6123 9.8468)"/>
</clipPath>
<clipPath id="clip2_22_777">
<rect width="55" height="30" fill="white" transform="translate(178.5 8.8468)"/>
</clipPath>
<clipPath id="clip3_22_777">
<rect width="47" height="29" fill="white" transform="translate(267.5 9.8468)"/>
</clipPath>
<clipPath id="clip4_22_777">
<rect width="41" height="27" fill="white" transform="translate(356.5 10.8468)"/>
</clipPath>
<clipPath id="clip5_22_777">
<rect width="52" height="20" fill="white" transform="translate(445.5 13.8468)"/>
</clipPath>
</defs>
</svg>
