<svg width="177" height="32" viewBox="0 0 177 32" fill="none" xmlns="http://www.w3.org/2000/svg">
<path d="M10.6667 5.33325L16 14.6666L21.3333 5.33325H10.6667Z" fill="#263238"/>
<path d="M7.34044 2.66675L14.6667 14.6667H0L7.34044 2.66675Z" fill="#4CAF4F"/>
<path d="M15.9872 17.3333L21.3333 26.6666H10.6667L15.9872 17.3333Z" fill="#263238"/>
<path d="M17.3333 17.3333L24.6667 29.3333L32 17.3333H17.3333Z" fill="#4CAF4F"/>
<path d="M24.6596 2.66675L17.3333 14.6667H32L24.6596 2.66675Z" fill="#4CAF4F"/>
<path d="M14.6667 17.3333L7.38392 29.3333L4.76837e-06 17.3333H14.6667Z" fill="#4CAF4F"/>
<path d="M58.2589 12.9288H53.9196C53.8403 12.3637 53.6785 11.8618 53.4341 11.4231C53.1897 10.9777 52.876 10.5988 52.4929 10.2863C52.1099 9.97388 51.6673 9.73457 51.1654 9.56838C50.67 9.40218 50.1317 9.31909 49.5505 9.31909C48.5003 9.31909 47.5856 9.58167 46.8062 10.1068C46.0269 10.6254 45.4225 11.3832 44.9932 12.3803C44.5639 13.3708 44.3492 14.5741 44.3492 15.99C44.3492 17.4459 44.5639 18.669 44.9932 19.6595C45.4291 20.65 46.0368 21.3979 46.8161 21.9031C47.5955 22.4084 48.497 22.661 49.5208 22.661C50.0954 22.661 50.6271 22.5845 51.1158 22.4316C51.6112 22.2787 52.0504 22.056 52.4335 21.7635C52.8166 21.4644 53.1336 21.1021 53.3846 20.6766C53.6422 20.2512 53.8205 19.7659 53.9196 19.2208L58.2589 19.2407C58.1466 20.1781 57.8659 21.0821 57.4168 21.953C56.9743 22.8172 56.3765 23.5916 55.6236 24.2764C54.8773 24.9544 53.9856 25.4929 52.9487 25.8917C51.9183 26.2839 50.7526 26.4801 49.4514 26.4801C47.6417 26.4801 46.0236 26.0679 44.5969 25.2436C43.1769 24.4193 42.0541 23.226 41.2285 21.6638C40.4095 20.1016 40 18.2104 40 15.99C40 13.7631 40.4161 11.8685 41.2483 10.3063C42.0805 8.74407 43.2099 7.55413 44.6366 6.73647C46.0632 5.91216 47.6681 5.5 49.4514 5.5C50.6271 5.5 51.7169 5.66619 52.7208 5.99858C53.7313 6.33096 54.6263 6.81624 55.4056 7.45442C56.185 8.08594 56.8191 8.8604 57.3078 9.77778C57.8032 10.6952 58.1202 11.7455 58.2589 12.9288Z" fill="#263238"/>
<path d="M68.1314 26.5C66.5925 26.5 65.2616 26.1709 64.1388 25.5128C63.0226 24.8481 62.1607 23.924 61.553 22.7407C60.9454 21.5508 60.6416 20.1714 60.6416 18.6026C60.6416 17.0204 60.9454 15.6377 61.553 14.4544C62.1607 13.2645 63.0226 12.3405 64.1388 11.6823C65.2616 11.0176 66.5925 10.6852 68.1314 10.6852C69.6703 10.6852 70.9979 11.0176 72.1141 11.6823C73.2369 12.3405 74.1021 13.2645 74.7098 14.4544C75.3174 15.6377 75.6212 17.0204 75.6212 18.6026C75.6212 20.1714 75.3174 21.5508 74.7098 22.7407C74.1021 23.924 73.2369 24.8481 72.1141 25.5128C70.9979 26.1709 69.6703 26.5 68.1314 26.5ZM68.1512 23.2094C68.8513 23.2094 69.4358 23.01 69.9048 22.6111C70.3737 22.2056 70.7271 21.6538 70.9648 20.9558C71.2092 20.2578 71.3314 19.4634 71.3314 18.5726C71.3314 17.6819 71.2092 16.8875 70.9648 16.1895C70.7271 15.4915 70.3737 14.9397 69.9048 14.5342C69.4358 14.1287 68.8513 13.9259 68.1512 13.9259C67.4445 13.9259 66.8501 14.1287 66.3679 14.5342C65.8924 14.9397 65.5324 15.4915 65.288 16.1895C65.0503 16.8875 64.9314 17.6819 64.9314 18.5726C64.9314 19.4634 65.0503 20.2578 65.288 20.9558C65.5324 21.6538 65.8924 22.2056 66.3679 22.6111C66.8501 23.01 67.4445 23.2094 68.1512 23.2094Z" fill="#263238"/>
<path d="M88.1241 19.6795V10.8846H92.3445V26.2009H88.2925V23.4188H88.134C87.7905 24.3162 87.2192 25.0375 86.42 25.5826C85.6275 26.1277 84.6599 26.4003 83.5172 26.4003C82.5001 26.4003 81.6051 26.1676 80.8324 25.7023C80.0596 25.2369 79.4553 24.5755 79.0194 23.7179C78.5901 22.8604 78.3721 21.8333 78.3655 20.6368V10.8846H82.586V19.8789C82.5926 20.783 82.8336 21.4976 83.3092 22.0228C83.7847 22.548 84.4221 22.8105 85.2213 22.8105C85.7298 22.8105 86.2054 22.6942 86.6479 22.4615C87.0904 22.2222 87.4471 21.8699 87.7179 21.4046C87.9953 20.9392 88.1307 20.3642 88.1241 19.6795Z" fill="#263238"/>
<path d="M95.7204 26.2009V10.8846H99.812V13.557H99.9706C100.248 12.6064 100.714 11.8884 101.367 11.4031C102.021 10.9112 102.774 10.6652 103.626 10.6652C103.838 10.6652 104.066 10.6785 104.31 10.7051C104.554 10.7317 104.769 10.7683 104.954 10.8148V14.584C104.756 14.5242 104.482 14.471 104.132 14.4245C103.782 14.378 103.461 14.3547 103.171 14.3547C102.55 14.3547 101.995 14.491 101.506 14.7635C101.024 15.0294 100.641 15.4017 100.357 15.8803C100.08 16.359 99.9408 16.9107 99.9408 17.5356V26.2009H95.7204Z" fill="#263238"/>
<path d="M107.057 26.2009V23.6681L114.507 14.3846V14.2749H107.314V10.8846H119.589V13.6467L112.595 22.7009V22.8105H119.847V26.2009H107.057Z" fill="#263238"/>
<path d="M137.657 12.3803C137.519 11.8951 137.324 11.4663 137.073 11.094C136.822 10.7151 136.515 10.396 136.152 10.1368C135.795 9.87085 135.385 9.66809 134.923 9.52849C134.467 9.38889 133.962 9.31909 133.407 9.31909C132.37 9.31909 131.459 9.57835 130.673 10.0969C129.893 10.6154 129.286 11.3699 128.85 12.3604C128.414 13.3443 128.196 14.5475 128.196 15.9701C128.196 17.3927 128.411 18.6026 128.84 19.5997C129.269 20.5969 129.877 21.358 130.663 21.8832C131.449 22.4017 132.377 22.661 133.447 22.661C134.418 22.661 135.247 22.4881 135.934 22.1425C136.627 21.7901 137.155 21.2949 137.519 20.6567C137.889 20.0185 138.073 19.264 138.073 18.3932L138.945 18.5228H133.714V15.2721H142.205V17.8447C142.205 19.6396 141.828 21.1819 141.075 22.4715C140.322 23.7545 139.285 24.745 137.965 25.443C136.644 26.1344 135.131 26.4801 133.427 26.4801C131.525 26.4801 129.854 26.0579 128.414 25.2137C126.974 24.3628 125.851 23.1562 125.046 21.594C124.246 20.0252 123.847 18.1638 123.847 16.01C123.847 14.3547 124.085 12.8789 124.56 11.5826C125.042 10.2797 125.716 9.17616 126.581 8.27208C127.446 7.368 128.454 6.67996 129.603 6.20798C130.752 5.73599 131.997 5.5 133.338 5.5C134.487 5.5 135.557 5.66952 136.548 6.00855C137.539 6.34093 138.417 6.81292 139.183 7.4245C139.956 8.03609 140.587 8.76401 141.075 9.60826C141.564 10.4459 141.878 11.3699 142.017 12.3803H137.657Z" fill="#4CAF4F"/>
<path d="M152.283 26.5C150.718 26.5 149.37 26.1809 148.241 25.5427C147.118 24.8979 146.253 23.9872 145.645 22.8105C145.037 21.6273 144.734 20.2279 144.734 18.6125C144.734 17.037 145.037 15.6543 145.645 14.4644C146.253 13.2745 147.108 12.3471 148.211 11.6823C149.321 11.0176 150.622 10.6852 152.114 10.6852C153.118 10.6852 154.053 10.8481 154.918 11.1738C155.79 11.4929 156.55 11.9748 157.197 12.6197C157.851 13.2645 158.359 14.0755 158.723 15.0527C159.086 16.0233 159.267 17.16 159.267 18.463V19.6296H146.418V16.9972H155.295C155.295 16.3856 155.163 15.8438 154.898 15.3718C154.634 14.8998 154.268 14.5309 153.799 14.265C153.336 13.9924 152.798 13.8561 152.184 13.8561C151.543 13.8561 150.975 14.0057 150.48 14.3048C149.991 14.5973 149.608 14.9929 149.331 15.4915C149.053 15.9834 148.911 16.5318 148.905 17.1368V19.6396C148.905 20.3974 149.043 21.0522 149.321 21.604C149.605 22.1557 150.004 22.5812 150.519 22.8803C151.035 23.1795 151.645 23.3291 152.352 23.3291C152.821 23.3291 153.25 23.2626 153.64 23.1296C154.03 22.9967 154.363 22.7972 154.641 22.5313C154.918 22.2654 155.13 21.9397 155.275 21.5541L159.178 21.8134C158.98 22.7574 158.574 23.5817 157.96 24.2863C157.352 24.9843 156.566 25.5294 155.602 25.9217C154.644 26.3072 153.538 26.5 152.283 26.5Z" fill="#4CAF4F"/>
<path d="M166.242 17.3462V26.2009H162.022V10.8846H166.044V13.5869H166.222C166.559 12.6961 167.124 11.9915 167.916 11.4729C168.709 10.9478 169.67 10.6852 170.799 10.6852C171.856 10.6852 172.777 10.9179 173.563 11.3832C174.349 11.8485 174.96 12.5133 175.396 13.3775C175.832 14.235 176.05 15.2588 176.05 16.4487V26.2009H171.83V17.2066C171.836 16.2692 171.599 15.538 171.116 15.0128C170.634 14.481 169.97 14.2151 169.125 14.2151C168.557 14.2151 168.055 14.3381 167.619 14.584C167.19 14.83 166.853 15.189 166.609 15.661C166.371 16.1263 166.249 16.688 166.242 17.3462Z" fill="#4CAF4F"/>
</svg>
