<svg width="67" height="57" viewBox="0 0 67 57" fill="none" xmlns="http://www.w3.org/2000/svg">
<path d="M66.5 39C66.5 48.9411 58.4411 57 48.5 57L21.5 57C18.7386 57 16.5 54.7614 16.5 52L16.5 18C16.5 12.4772 20.9772 8 26.5 8L61.5 8C64.2614 8 66.5 10.2386 66.5 13L66.5 39Z" fill="#E8F5E9"/>
<path d="M24.49 10C20.9187 10 18.0114 12.9339 18.0114 16.5203C18.0114 18.7892 19.1765 20.7925 20.9358 21.9602C18.8109 22.6706 16.9723 23.9985 15.6238 25.7357C14.8782 25.1622 14.0451 24.701 13.147 24.3705C14.5089 23.3595 15.3989 21.7353 15.3989 19.91C15.3989 16.8682 12.9388 14.3782 9.91547 14.3782C6.89215 14.3782 4.43208 16.8682 4.43208 19.91C4.43208 21.7364 5.32277 23.3613 6.68579 24.3723C3.07721 25.7039 0.5 29.1903 0.5 33.2933V36.1754C0.500369 36.3951 0.588257 36.6056 0.744089 36.7604C0.89992 36.9155 1.11078 37.0019 1.3305 37.0011H13.9755C14.0061 37.0045 14.0368 37.0063 14.0674 37.0059H34.9133C34.9439 37.0063 34.9749 37.0045 35.0052 37.0011H47.6511C48.1057 36.9993 48.4739 36.6304 48.475 36.1754V33.2933C48.475 29.1903 45.9022 25.7039 42.2955 24.3719C43.6585 23.3613 44.5492 21.736 44.5492 19.9096C44.5492 16.8679 42.0892 14.3778 39.0658 14.3778C36.0426 14.3778 33.5824 16.8679 33.5824 19.9096C33.5824 21.735 34.4728 23.3594 35.8346 24.3701C34.9347 24.7014 34.1013 25.1641 33.3546 25.739C32.0067 24.0008 30.1707 22.6711 28.0459 21.9602C29.8047 20.7925 30.9703 18.7892 30.9703 16.5203C30.9703 12.9339 28.0614 10 24.4902 10H24.49ZM24.49 11.6544C27.161 11.6544 29.3142 13.822 29.3142 16.5203C29.3142 19.1976 27.1945 21.3442 24.5531 21.3786C24.5321 21.3786 24.5114 21.3756 24.49 21.3756C24.4686 21.3756 24.4483 21.3786 24.4268 21.3786C21.7854 21.3446 19.6672 19.1977 19.6672 16.5203C19.6672 13.8217 21.8186 11.6544 24.4896 11.6544H24.49ZM9.91556 16.0324C12.0348 16.0324 13.7446 17.7525 13.7446 19.9099C13.7446 22.0528 12.057 23.7655 9.95763 23.7887C9.9436 23.7887 9.92994 23.7873 9.91553 23.7873C9.9015 23.7873 9.88784 23.7887 9.87344 23.7887C7.7741 23.7655 6.08647 22.0524 6.08647 19.9099C6.08647 17.7526 7.79623 16.0324 9.9155 16.0324H9.91556ZM39.0653 16.0324C41.1846 16.0324 42.8944 17.7525 42.8944 19.9099C42.8944 22.0528 41.2067 23.7655 39.1074 23.7887C39.0934 23.7887 39.0797 23.7873 39.0653 23.7873C39.0513 23.7873 39.0376 23.7887 39.0232 23.7887C36.9239 23.7655 35.2363 22.0524 35.2363 19.9099C35.2363 17.7526 36.946 16.0324 39.0653 16.0324H39.0653ZM24.4266 23.0328C24.4477 23.0332 24.4684 23.0358 24.4898 23.0358C24.5108 23.0358 24.5315 23.0328 24.5529 23.0328C29.8502 23.0668 34.0896 27.3427 34.0896 32.6952L34.0892 35.3511H14.8911V32.6952C14.8911 27.3422 19.1293 23.0669 24.4259 23.0328H24.4266ZM9.85223 25.445C9.87327 25.4454 9.89395 25.4479 9.91537 25.4479C9.93679 25.4479 9.9571 25.445 9.97852 25.445C11.7702 25.4594 13.4054 26.0772 14.7074 27.1108C13.7757 28.7593 13.2369 30.6621 13.2369 32.6957V35.3452H2.15369V33.2932C2.15369 28.9431 5.57396 25.4789 9.85203 25.4446L9.85223 25.445ZM39.002 25.445C39.0234 25.4454 39.0437 25.4479 39.0652 25.4479C39.0866 25.4479 39.1069 25.445 39.1283 25.445C43.4064 25.479 46.8266 28.9435 46.8266 33.2935V35.3452H35.7377L35.7374 32.6957C35.7374 30.6632 35.2001 28.7618 34.2702 27.1137C35.5726 26.0787 37.2089 25.4594 39.0021 25.445H39.002Z" fill="#103E13"/>
</svg>
