<svg width="39" height="44" viewBox="0 0 39 44" fill="none" xmlns="http://www.w3.org/2000/svg">
<path d="M30.9377 17.0546L35.1883 19.3539L36.0781 19.8539C37.9739 20.919 37.9739 23.665 36.0781 24.7301L24.0049 31.5132C21.2049 33.0864 17.7951 33.0864 14.9951 31.5132L2.92185 24.7301C1.02605 23.665 1.02605 20.919 2.92185 19.8539L3.8117 19.3539L7.82668 17.0546M31.8622 27.2922L35.7258 29.2371C37.7184 30.2401 37.7824 33.0795 35.837 34.1725L24.0049 40.8201C21.2049 42.3933 17.7951 42.3933 14.9951 40.8201L3.3356 34.2695C1.35679 33.1577 1.46583 30.2555 3.52239 29.2974L7.82668 27.2922M24.0049 21.6223L36.0781 14.8392C37.9739 13.7741 37.974 11.0281 36.0782 9.96298L24.0049 3.17986C21.2049 1.60672 17.7951 1.60671 14.9951 3.17986L2.92185 9.96298C1.02605 11.0281 1.02605 13.7741 2.92185 14.8392L14.9951 21.6223C17.7951 23.1955 21.2049 23.1955 24.0049 21.6223Z" stroke="#4CAF4F" stroke-width="3"/>
</svg>
